G04 MADE WITH FRITZING*
G04 WWW.FRITZING.ORG*
G04 DOUBLE SIDED*
G04 HOLES PLATED*
G04 CONTOUR ON CENTER OF CONTOUR VECTOR*
%ASAXBY*%
%FSLAX23Y23*%
%MOIN*%
%OFA0B0*%
%SFA1.0B1.0*%
%ADD10C,0.075000*%
%ADD11C,0.077119*%
%ADD12C,0.050000*%
%ADD13C,0.051496*%
%ADD14C,0.078000*%
%ADD15C,0.057000*%
%ADD16C,0.064000*%
%ADD17C,0.047559*%
%ADD18C,0.060000*%
%ADD19C,0.055433*%
%ADD20C,0.082000*%
%ADD21C,0.129921*%
%ADD22C,0.062992*%
%ADD23C,0.065000*%
%ADD24C,0.137795*%
%ADD25C,0.070925*%
%ADD26C,0.070866*%
%ADD27C,0.070000*%
%ADD28R,0.075000X0.075000*%
%ADD29R,0.082000X0.082000*%
%ADD30R,0.062992X0.062992*%
%ADD31R,0.137795X0.137795*%
%ADD32R,0.001000X0.001000*%
%LNCOPPER1*%
G90*
G70*
G54D10*
X2329Y1516D03*
X2368Y1102D03*
X5025Y1260D03*
X5325Y1260D03*
G54D11*
X3564Y474D03*
X3564Y579D03*
X3564Y683D03*
X3564Y787D03*
X3564Y891D03*
X3564Y995D03*
X2754Y579D03*
X2754Y683D03*
X2754Y787D03*
X2754Y891D03*
X2754Y995D03*
X2754Y1100D03*
G54D12*
X5123Y1496D03*
X5025Y1496D03*
X5025Y1417D03*
X5025Y1575D03*
X5123Y1575D03*
X5123Y1417D03*
X5123Y1496D03*
X5025Y1496D03*
X5025Y1417D03*
X5025Y1575D03*
X5123Y1575D03*
X5123Y1417D03*
G54D10*
X2073Y1654D03*
X2073Y1910D03*
X2250Y1654D03*
X2250Y1910D03*
X6037Y2878D03*
X6037Y2578D03*
X6357Y2877D03*
X6357Y2577D03*
X6909Y2877D03*
X6909Y2577D03*
X6352Y2425D03*
X6352Y2125D03*
X6909Y2424D03*
X6909Y2124D03*
X6594Y2877D03*
X6594Y2577D03*
X6207Y1929D03*
X6207Y2229D03*
X6812Y1932D03*
X6812Y2232D03*
G54D13*
X6195Y2425D03*
X6195Y2720D03*
X6195Y2425D03*
X6195Y2720D03*
X6751Y2424D03*
X6751Y2719D03*
X6751Y2424D03*
X6751Y2719D03*
G54D14*
X6057Y2031D03*
X6057Y2431D03*
X6057Y2031D03*
X6057Y2431D03*
X6613Y2030D03*
X6613Y2430D03*
X6613Y2030D03*
X6613Y2430D03*
G54D10*
X2654Y3075D03*
X2654Y3175D03*
X2654Y2838D03*
X2654Y2938D03*
G54D15*
X4671Y669D03*
X4750Y669D03*
X4671Y669D03*
X4750Y669D03*
X2309Y2579D03*
X2388Y2579D03*
X2309Y2579D03*
X2388Y2579D03*
X5183Y2264D03*
X5183Y2343D03*
X5183Y2264D03*
X5183Y2343D03*
G54D16*
X5203Y2539D03*
X5203Y2618D03*
X5203Y2697D03*
X5203Y2539D03*
X5203Y2618D03*
X5203Y2697D03*
G54D17*
X6398Y1715D03*
X6477Y1715D03*
X6556Y1715D03*
X6635Y1715D03*
X6398Y1715D03*
X6477Y1715D03*
X6556Y1715D03*
X6635Y1715D03*
X1856Y2894D03*
X1856Y2972D03*
X1856Y3051D03*
X1856Y3130D03*
X1856Y2894D03*
X1856Y2972D03*
X1856Y3051D03*
X1856Y3130D03*
G54D18*
X5195Y1993D03*
X5195Y1798D03*
X5370Y1797D03*
X5368Y1996D03*
G54D19*
X4008Y1068D03*
X4288Y1068D03*
X4008Y1068D03*
X4288Y1068D03*
G54D20*
X4051Y2069D03*
X4051Y2169D03*
X4051Y2269D03*
X4514Y2103D03*
X4514Y2203D03*
X4514Y2303D03*
G54D21*
X1332Y1919D03*
X1568Y1999D03*
X1568Y2478D03*
X1096Y1999D03*
X1096Y2478D03*
X603Y1919D03*
X840Y1999D03*
X840Y2478D03*
X367Y1999D03*
X367Y2478D03*
G54D10*
X2111Y2068D03*
X2111Y2368D03*
X2211Y2068D03*
X2211Y2368D03*
X2311Y2068D03*
X2311Y2368D03*
X2411Y2068D03*
X2411Y2368D03*
X2511Y2068D03*
X2511Y2368D03*
X2611Y2068D03*
X2611Y2368D03*
X2711Y2068D03*
X2711Y2368D03*
X2811Y2068D03*
X2811Y2368D03*
X2911Y2068D03*
X2911Y2368D03*
X3011Y2068D03*
X3011Y2368D03*
X3111Y2068D03*
X3111Y2368D03*
X3211Y2068D03*
X3211Y2368D03*
X3311Y2068D03*
X3311Y2368D03*
X3411Y2068D03*
X3411Y2368D03*
X3632Y3155D03*
X3332Y3155D03*
X3632Y3255D03*
X3332Y3255D03*
X2127Y3169D03*
X2427Y3169D03*
X2127Y3069D03*
X2427Y3069D03*
X2127Y2940D03*
X2427Y2940D03*
X2127Y2840D03*
X2427Y2840D03*
X1442Y1125D03*
X1442Y1425D03*
X1542Y1125D03*
X1542Y1425D03*
X359Y952D03*
X359Y1252D03*
X459Y952D03*
X459Y1252D03*
X1071Y1738D03*
X1571Y1738D03*
X343Y1738D03*
X843Y1738D03*
X980Y1521D03*
X1080Y1521D03*
X1180Y1521D03*
X472Y1534D03*
X572Y1534D03*
X672Y1534D03*
G54D14*
X2427Y1713D03*
X2527Y1713D03*
X3300Y1856D03*
X3400Y1856D03*
X3500Y1856D03*
G54D10*
X4589Y2899D03*
X4189Y2899D03*
X1729Y673D03*
X1729Y1073D03*
X2073Y1063D03*
X2073Y1563D03*
X4277Y532D03*
X4577Y532D03*
X4773Y419D03*
X5173Y419D03*
X4396Y1024D03*
X4696Y1024D03*
X5025Y610D03*
X5325Y610D03*
X4484Y1778D03*
X4484Y1478D03*
X4169Y1762D03*
X4169Y1462D03*
X3869Y1895D03*
X4169Y1895D03*
X3633Y2975D03*
X3633Y2675D03*
X3409Y2778D03*
X3109Y2778D03*
X3190Y3155D03*
X2890Y3155D03*
X3397Y2916D03*
X3097Y2916D03*
X1300Y1324D03*
X1000Y1324D03*
X744Y1363D03*
X444Y1363D03*
G54D22*
X3933Y2899D03*
X4032Y2899D03*
X1492Y752D03*
X1492Y850D03*
X744Y950D03*
X843Y950D03*
G54D20*
X4366Y1177D03*
X4366Y1777D03*
X3717Y1952D03*
X3717Y2552D03*
X4386Y3194D03*
X3786Y3194D03*
G54D23*
X4848Y1847D03*
X4848Y2047D03*
X4848Y1847D03*
X4848Y2047D03*
X3732Y1459D03*
X3732Y1659D03*
X3732Y1459D03*
X3732Y1659D03*
G54D24*
X5124Y1083D03*
X5124Y883D03*
X607Y3076D03*
X807Y3076D03*
X1007Y3076D03*
X6274Y3133D03*
X6474Y3133D03*
X6674Y3133D03*
X5092Y3076D03*
X5292Y3076D03*
G54D25*
X3106Y1599D03*
G54D26*
X2913Y1599D03*
G54D10*
X4243Y2564D03*
X4543Y2564D03*
X4224Y2781D03*
X4524Y2781D03*
X4110Y655D03*
X4110Y755D03*
X4110Y855D03*
X2477Y808D03*
X2477Y908D03*
X2477Y1008D03*
X3028Y476D03*
X3028Y876D03*
X2614Y1027D03*
X2614Y1427D03*
G54D27*
X3107Y1815D03*
X3007Y1815D03*
X4051Y1559D03*
X4051Y1659D03*
X3441Y1126D03*
X3341Y1126D03*
X2813Y2545D03*
X2713Y2545D03*
X2812Y1934D03*
X2712Y1934D03*
X2910Y1815D03*
X2810Y1815D03*
G54D28*
X2654Y3075D03*
X2654Y2838D03*
G54D29*
X4051Y2069D03*
X4514Y2103D03*
G54D28*
X2111Y2068D03*
X3632Y3155D03*
X2127Y3169D03*
X2127Y2940D03*
X1442Y1125D03*
X359Y952D03*
G54D30*
X3933Y2899D03*
X1492Y752D03*
X744Y950D03*
G54D31*
X5124Y1083D03*
X607Y3076D03*
X6274Y3133D03*
X5092Y3076D03*
G54D32*
X365Y2543D02*
X368Y2543D01*
X838Y2543D02*
X841Y2543D01*
X1094Y2543D02*
X1097Y2543D01*
X1566Y2543D02*
X1569Y2543D01*
X356Y2542D02*
X377Y2542D01*
X829Y2542D02*
X850Y2542D01*
X1084Y2542D02*
X1106Y2542D01*
X1557Y2542D02*
X1578Y2542D01*
X351Y2541D02*
X382Y2541D01*
X824Y2541D02*
X854Y2541D01*
X1080Y2541D02*
X1110Y2541D01*
X1552Y2541D02*
X1583Y2541D01*
X348Y2540D02*
X386Y2540D01*
X820Y2540D02*
X858Y2540D01*
X1076Y2540D02*
X1114Y2540D01*
X1548Y2540D02*
X1587Y2540D01*
X345Y2539D02*
X389Y2539D01*
X817Y2539D02*
X861Y2539D01*
X1073Y2539D02*
X1117Y2539D01*
X1545Y2539D02*
X1589Y2539D01*
X342Y2538D02*
X391Y2538D01*
X814Y2538D02*
X864Y2538D01*
X1070Y2538D02*
X1120Y2538D01*
X1543Y2538D02*
X1592Y2538D01*
X340Y2537D02*
X394Y2537D01*
X812Y2537D02*
X866Y2537D01*
X1068Y2537D02*
X1122Y2537D01*
X1541Y2537D02*
X1594Y2537D01*
X338Y2536D02*
X396Y2536D01*
X810Y2536D02*
X868Y2536D01*
X1066Y2536D02*
X1124Y2536D01*
X1539Y2536D02*
X1596Y2536D01*
X336Y2535D02*
X398Y2535D01*
X808Y2535D02*
X870Y2535D01*
X1064Y2535D02*
X1126Y2535D01*
X1537Y2535D02*
X1598Y2535D01*
X334Y2534D02*
X399Y2534D01*
X807Y2534D02*
X872Y2534D01*
X1063Y2534D02*
X1127Y2534D01*
X1535Y2534D02*
X1600Y2534D01*
X333Y2533D02*
X401Y2533D01*
X805Y2533D02*
X873Y2533D01*
X1061Y2533D02*
X1129Y2533D01*
X1533Y2533D02*
X1601Y2533D01*
X331Y2532D02*
X402Y2532D01*
X803Y2532D02*
X875Y2532D01*
X1059Y2532D02*
X1131Y2532D01*
X1532Y2532D02*
X1603Y2532D01*
X330Y2531D02*
X404Y2531D01*
X802Y2531D02*
X876Y2531D01*
X1058Y2531D02*
X1132Y2531D01*
X1530Y2531D02*
X1604Y2531D01*
X328Y2530D02*
X405Y2530D01*
X801Y2530D02*
X877Y2530D01*
X1057Y2530D02*
X1133Y2530D01*
X1529Y2530D02*
X1606Y2530D01*
X327Y2529D02*
X406Y2529D01*
X799Y2529D02*
X879Y2529D01*
X1055Y2529D02*
X1135Y2529D01*
X1528Y2529D02*
X1607Y2529D01*
X326Y2528D02*
X408Y2528D01*
X798Y2528D02*
X880Y2528D01*
X1054Y2528D02*
X1136Y2528D01*
X1526Y2528D02*
X1608Y2528D01*
X325Y2527D02*
X409Y2527D01*
X797Y2527D02*
X881Y2527D01*
X1053Y2527D02*
X1137Y2527D01*
X1525Y2527D02*
X1610Y2527D01*
X323Y2526D02*
X410Y2526D01*
X796Y2526D02*
X882Y2526D01*
X1052Y2526D02*
X1138Y2526D01*
X1524Y2526D02*
X1611Y2526D01*
X322Y2525D02*
X411Y2525D01*
X795Y2525D02*
X884Y2525D01*
X1051Y2525D02*
X1139Y2525D01*
X1523Y2525D02*
X1612Y2525D01*
X321Y2524D02*
X412Y2524D01*
X794Y2524D02*
X885Y2524D01*
X1050Y2524D02*
X1141Y2524D01*
X1522Y2524D02*
X1613Y2524D01*
X320Y2523D02*
X413Y2523D01*
X793Y2523D02*
X886Y2523D01*
X1049Y2523D02*
X1141Y2523D01*
X1521Y2523D02*
X1614Y2523D01*
X319Y2522D02*
X414Y2522D01*
X792Y2522D02*
X886Y2522D01*
X1048Y2522D02*
X1142Y2522D01*
X1520Y2522D02*
X1615Y2522D01*
X319Y2521D02*
X415Y2521D01*
X791Y2521D02*
X887Y2521D01*
X1047Y2521D02*
X1143Y2521D01*
X1519Y2521D02*
X1616Y2521D01*
X318Y2520D02*
X416Y2520D01*
X790Y2520D02*
X888Y2520D01*
X1046Y2520D02*
X1144Y2520D01*
X1518Y2520D02*
X1616Y2520D01*
X317Y2519D02*
X417Y2519D01*
X789Y2519D02*
X889Y2519D01*
X1045Y2519D02*
X1145Y2519D01*
X1518Y2519D02*
X1617Y2519D01*
X316Y2518D02*
X417Y2518D01*
X788Y2518D02*
X890Y2518D01*
X1044Y2518D02*
X1146Y2518D01*
X1517Y2518D02*
X1618Y2518D01*
X315Y2517D02*
X418Y2517D01*
X788Y2517D02*
X890Y2517D01*
X1044Y2517D02*
X1146Y2517D01*
X1516Y2517D02*
X1619Y2517D01*
X315Y2516D02*
X419Y2516D01*
X787Y2516D02*
X891Y2516D01*
X1043Y2516D02*
X1147Y2516D01*
X1515Y2516D02*
X1620Y2516D01*
X314Y2515D02*
X420Y2515D01*
X786Y2515D02*
X892Y2515D01*
X1042Y2515D02*
X1148Y2515D01*
X1515Y2515D02*
X1620Y2515D01*
X313Y2514D02*
X420Y2514D01*
X786Y2514D02*
X893Y2514D01*
X1041Y2514D02*
X1149Y2514D01*
X1514Y2514D02*
X1621Y2514D01*
X313Y2513D02*
X421Y2513D01*
X785Y2513D02*
X893Y2513D01*
X1041Y2513D02*
X1149Y2513D01*
X1513Y2513D02*
X1622Y2513D01*
X312Y2512D02*
X422Y2512D01*
X784Y2512D02*
X894Y2512D01*
X1040Y2512D02*
X1150Y2512D01*
X1513Y2512D02*
X1622Y2512D01*
X311Y2511D02*
X422Y2511D01*
X784Y2511D02*
X894Y2511D01*
X1040Y2511D02*
X1150Y2511D01*
X1512Y2511D02*
X1623Y2511D01*
X311Y2510D02*
X423Y2510D01*
X783Y2510D02*
X895Y2510D01*
X1039Y2510D02*
X1151Y2510D01*
X1511Y2510D02*
X1623Y2510D01*
X310Y2509D02*
X423Y2509D01*
X783Y2509D02*
X896Y2509D01*
X1038Y2509D02*
X1152Y2509D01*
X1511Y2509D02*
X1624Y2509D01*
X310Y2508D02*
X424Y2508D01*
X782Y2508D02*
X896Y2508D01*
X1038Y2508D02*
X1152Y2508D01*
X1510Y2508D02*
X1625Y2508D01*
X309Y2507D02*
X424Y2507D01*
X782Y2507D02*
X897Y2507D01*
X1037Y2507D02*
X1153Y2507D01*
X1510Y2507D02*
X1625Y2507D01*
X309Y2506D02*
X425Y2506D01*
X781Y2506D02*
X897Y2506D01*
X1037Y2506D02*
X1153Y2506D01*
X1509Y2506D02*
X1625Y2506D01*
X308Y2505D02*
X425Y2505D01*
X781Y2505D02*
X898Y2505D01*
X1036Y2505D02*
X1154Y2505D01*
X1509Y2505D02*
X1626Y2505D01*
X308Y2504D02*
X426Y2504D01*
X780Y2504D02*
X898Y2504D01*
X1036Y2504D02*
X1154Y2504D01*
X1508Y2504D02*
X1626Y2504D01*
X307Y2503D02*
X360Y2503D01*
X374Y2503D02*
X426Y2503D01*
X780Y2503D02*
X832Y2503D01*
X846Y2503D02*
X899Y2503D01*
X1036Y2503D02*
X1088Y2503D01*
X1102Y2503D02*
X1155Y2503D01*
X1508Y2503D02*
X1560Y2503D01*
X1574Y2503D02*
X1627Y2503D01*
X307Y2502D02*
X357Y2502D01*
X377Y2502D02*
X427Y2502D01*
X779Y2502D02*
X829Y2502D01*
X849Y2502D02*
X899Y2502D01*
X1035Y2502D02*
X1085Y2502D01*
X1105Y2502D02*
X1155Y2502D01*
X1508Y2502D02*
X1558Y2502D01*
X1577Y2502D02*
X1627Y2502D01*
X307Y2501D02*
X355Y2501D01*
X379Y2501D02*
X427Y2501D01*
X779Y2501D02*
X827Y2501D01*
X851Y2501D02*
X899Y2501D01*
X1035Y2501D02*
X1083Y2501D01*
X1107Y2501D02*
X1155Y2501D01*
X1507Y2501D02*
X1555Y2501D01*
X1579Y2501D02*
X1628Y2501D01*
X306Y2500D02*
X353Y2500D01*
X381Y2500D02*
X427Y2500D01*
X779Y2500D02*
X825Y2500D01*
X853Y2500D02*
X900Y2500D01*
X1034Y2500D02*
X1081Y2500D01*
X1109Y2500D02*
X1156Y2500D01*
X1507Y2500D02*
X1554Y2500D01*
X1581Y2500D02*
X1628Y2500D01*
X306Y2499D02*
X351Y2499D01*
X382Y2499D02*
X428Y2499D01*
X778Y2499D02*
X824Y2499D01*
X855Y2499D02*
X900Y2499D01*
X1034Y2499D02*
X1080Y2499D01*
X1110Y2499D02*
X1156Y2499D01*
X1506Y2499D02*
X1552Y2499D01*
X1583Y2499D02*
X1628Y2499D01*
X305Y2498D02*
X350Y2498D01*
X383Y2498D02*
X428Y2498D01*
X778Y2498D02*
X823Y2498D01*
X856Y2498D02*
X900Y2498D01*
X1034Y2498D02*
X1078Y2498D01*
X1112Y2498D02*
X1156Y2498D01*
X1506Y2498D02*
X1551Y2498D01*
X1584Y2498D02*
X1629Y2498D01*
X305Y2497D02*
X349Y2497D01*
X384Y2497D02*
X428Y2497D01*
X778Y2497D02*
X821Y2497D01*
X857Y2497D02*
X901Y2497D01*
X1033Y2497D02*
X1077Y2497D01*
X1113Y2497D02*
X1157Y2497D01*
X1506Y2497D02*
X1550Y2497D01*
X1585Y2497D02*
X1629Y2497D01*
X305Y2496D02*
X348Y2496D01*
X386Y2496D02*
X429Y2496D01*
X777Y2496D02*
X820Y2496D01*
X858Y2496D02*
X901Y2496D01*
X1033Y2496D02*
X1076Y2496D01*
X1114Y2496D02*
X1157Y2496D01*
X1506Y2496D02*
X1549Y2496D01*
X1586Y2496D02*
X1629Y2496D01*
X305Y2495D02*
X347Y2495D01*
X386Y2495D02*
X429Y2495D01*
X777Y2495D02*
X819Y2495D01*
X859Y2495D02*
X901Y2495D01*
X1033Y2495D02*
X1075Y2495D01*
X1115Y2495D02*
X1157Y2495D01*
X1505Y2495D02*
X1548Y2495D01*
X1587Y2495D02*
X1629Y2495D01*
X304Y2494D02*
X346Y2494D01*
X387Y2494D02*
X429Y2494D01*
X777Y2494D02*
X819Y2494D01*
X860Y2494D02*
X901Y2494D01*
X1033Y2494D02*
X1074Y2494D01*
X1116Y2494D02*
X1157Y2494D01*
X1505Y2494D02*
X1547Y2494D01*
X1588Y2494D02*
X1630Y2494D01*
X304Y2493D02*
X345Y2493D01*
X388Y2493D02*
X429Y2493D01*
X777Y2493D02*
X818Y2493D01*
X861Y2493D02*
X902Y2493D01*
X1032Y2493D02*
X1074Y2493D01*
X1116Y2493D02*
X1158Y2493D01*
X1505Y2493D02*
X1546Y2493D01*
X1589Y2493D02*
X1630Y2493D01*
X304Y2492D02*
X345Y2492D01*
X389Y2492D02*
X430Y2492D01*
X776Y2492D02*
X817Y2492D01*
X861Y2492D02*
X902Y2492D01*
X1032Y2492D02*
X1073Y2492D01*
X1117Y2492D02*
X1158Y2492D01*
X1505Y2492D02*
X1545Y2492D01*
X1589Y2492D02*
X1630Y2492D01*
X304Y2491D02*
X344Y2491D01*
X389Y2491D02*
X430Y2491D01*
X776Y2491D02*
X817Y2491D01*
X862Y2491D02*
X902Y2491D01*
X1032Y2491D02*
X1072Y2491D01*
X1118Y2491D02*
X1158Y2491D01*
X1504Y2491D02*
X1545Y2491D01*
X1590Y2491D02*
X1630Y2491D01*
X304Y2490D02*
X344Y2490D01*
X390Y2490D02*
X430Y2490D01*
X776Y2490D02*
X816Y2490D01*
X862Y2490D02*
X902Y2490D01*
X1032Y2490D02*
X1072Y2490D01*
X1118Y2490D02*
X1158Y2490D01*
X1504Y2490D02*
X1544Y2490D01*
X1591Y2490D02*
X1631Y2490D01*
X303Y2489D02*
X343Y2489D01*
X390Y2489D02*
X430Y2489D01*
X776Y2489D02*
X815Y2489D01*
X863Y2489D02*
X902Y2489D01*
X1032Y2489D02*
X1071Y2489D01*
X1119Y2489D02*
X1158Y2489D01*
X1504Y2489D02*
X1544Y2489D01*
X1591Y2489D02*
X1631Y2489D01*
X303Y2488D02*
X343Y2488D01*
X391Y2488D02*
X430Y2488D01*
X776Y2488D02*
X815Y2488D01*
X863Y2488D02*
X903Y2488D01*
X1031Y2488D02*
X1071Y2488D01*
X1119Y2488D02*
X1159Y2488D01*
X1504Y2488D02*
X1543Y2488D01*
X1592Y2488D02*
X1631Y2488D01*
X303Y2487D02*
X342Y2487D01*
X391Y2487D02*
X430Y2487D01*
X775Y2487D02*
X815Y2487D01*
X864Y2487D02*
X903Y2487D01*
X1031Y2487D02*
X1070Y2487D01*
X1120Y2487D02*
X1159Y2487D01*
X1504Y2487D02*
X1543Y2487D01*
X1592Y2487D02*
X1631Y2487D01*
X303Y2486D02*
X342Y2486D01*
X392Y2486D02*
X431Y2486D01*
X775Y2486D02*
X814Y2486D01*
X864Y2486D02*
X903Y2486D01*
X1031Y2486D02*
X1070Y2486D01*
X1120Y2486D02*
X1159Y2486D01*
X1504Y2486D02*
X1542Y2486D01*
X1592Y2486D02*
X1631Y2486D01*
X303Y2485D02*
X342Y2485D01*
X392Y2485D02*
X431Y2485D01*
X775Y2485D02*
X814Y2485D01*
X864Y2485D02*
X903Y2485D01*
X1031Y2485D02*
X1070Y2485D01*
X1120Y2485D02*
X1159Y2485D01*
X1503Y2485D02*
X1542Y2485D01*
X1593Y2485D02*
X1631Y2485D01*
X303Y2484D02*
X341Y2484D01*
X392Y2484D02*
X431Y2484D01*
X775Y2484D02*
X814Y2484D01*
X865Y2484D02*
X903Y2484D01*
X1031Y2484D02*
X1070Y2484D01*
X1121Y2484D02*
X1159Y2484D01*
X1503Y2484D02*
X1542Y2484D01*
X1593Y2484D02*
X1632Y2484D01*
X303Y2483D02*
X341Y2483D01*
X392Y2483D02*
X431Y2483D01*
X775Y2483D02*
X813Y2483D01*
X865Y2483D02*
X903Y2483D01*
X1031Y2483D02*
X1069Y2483D01*
X1121Y2483D02*
X1159Y2483D01*
X1503Y2483D02*
X1542Y2483D01*
X1593Y2483D02*
X1632Y2483D01*
X303Y2482D02*
X341Y2482D01*
X393Y2482D02*
X431Y2482D01*
X775Y2482D02*
X813Y2482D01*
X865Y2482D02*
X903Y2482D01*
X1031Y2482D02*
X1069Y2482D01*
X1121Y2482D02*
X1159Y2482D01*
X1503Y2482D02*
X1542Y2482D01*
X1593Y2482D02*
X1632Y2482D01*
X302Y2481D02*
X341Y2481D01*
X393Y2481D02*
X431Y2481D01*
X775Y2481D02*
X813Y2481D01*
X865Y2481D02*
X903Y2481D01*
X1031Y2481D02*
X1069Y2481D01*
X1121Y2481D02*
X1159Y2481D01*
X1503Y2481D02*
X1541Y2481D01*
X1593Y2481D02*
X1632Y2481D01*
X302Y2480D02*
X341Y2480D01*
X393Y2480D02*
X431Y2480D01*
X775Y2480D02*
X813Y2480D01*
X865Y2480D02*
X903Y2480D01*
X1031Y2480D02*
X1069Y2480D01*
X1121Y2480D02*
X1159Y2480D01*
X1503Y2480D02*
X1541Y2480D01*
X1593Y2480D02*
X1632Y2480D01*
X302Y2479D02*
X341Y2479D01*
X393Y2479D02*
X431Y2479D01*
X775Y2479D02*
X813Y2479D01*
X865Y2479D02*
X904Y2479D01*
X1031Y2479D02*
X1069Y2479D01*
X1121Y2479D02*
X1159Y2479D01*
X1503Y2479D02*
X1541Y2479D01*
X1593Y2479D02*
X1632Y2479D01*
X302Y2478D02*
X341Y2478D01*
X393Y2478D02*
X431Y2478D01*
X775Y2478D02*
X813Y2478D01*
X865Y2478D02*
X904Y2478D01*
X1031Y2478D02*
X1069Y2478D01*
X1121Y2478D02*
X1159Y2478D01*
X1503Y2478D02*
X1541Y2478D01*
X1593Y2478D02*
X1632Y2478D01*
X302Y2477D02*
X341Y2477D01*
X393Y2477D02*
X431Y2477D01*
X775Y2477D02*
X813Y2477D01*
X865Y2477D02*
X904Y2477D01*
X1031Y2477D02*
X1069Y2477D01*
X1121Y2477D02*
X1159Y2477D01*
X1503Y2477D02*
X1541Y2477D01*
X1593Y2477D02*
X1632Y2477D01*
X302Y2476D02*
X341Y2476D01*
X393Y2476D02*
X431Y2476D01*
X775Y2476D02*
X813Y2476D01*
X865Y2476D02*
X903Y2476D01*
X1031Y2476D02*
X1069Y2476D01*
X1121Y2476D02*
X1159Y2476D01*
X1503Y2476D02*
X1541Y2476D01*
X1593Y2476D02*
X1632Y2476D01*
X302Y2475D02*
X341Y2475D01*
X393Y2475D02*
X431Y2475D01*
X775Y2475D02*
X813Y2475D01*
X865Y2475D02*
X903Y2475D01*
X1031Y2475D02*
X1069Y2475D01*
X1121Y2475D02*
X1159Y2475D01*
X1503Y2475D02*
X1541Y2475D01*
X1593Y2475D02*
X1632Y2475D01*
X303Y2474D02*
X341Y2474D01*
X393Y2474D02*
X431Y2474D01*
X775Y2474D02*
X813Y2474D01*
X865Y2474D02*
X903Y2474D01*
X1031Y2474D02*
X1069Y2474D01*
X1121Y2474D02*
X1159Y2474D01*
X1503Y2474D02*
X1542Y2474D01*
X1593Y2474D02*
X1632Y2474D01*
X303Y2473D02*
X341Y2473D01*
X392Y2473D02*
X431Y2473D01*
X775Y2473D02*
X813Y2473D01*
X865Y2473D02*
X903Y2473D01*
X1031Y2473D02*
X1069Y2473D01*
X1121Y2473D02*
X1159Y2473D01*
X1503Y2473D02*
X1542Y2473D01*
X1593Y2473D02*
X1632Y2473D01*
X303Y2472D02*
X341Y2472D01*
X392Y2472D02*
X431Y2472D01*
X775Y2472D02*
X814Y2472D01*
X865Y2472D02*
X903Y2472D01*
X1031Y2472D02*
X1070Y2472D01*
X1120Y2472D02*
X1159Y2472D01*
X1503Y2472D02*
X1542Y2472D01*
X1593Y2472D02*
X1631Y2472D01*
X303Y2471D02*
X342Y2471D01*
X392Y2471D02*
X431Y2471D01*
X775Y2471D02*
X814Y2471D01*
X864Y2471D02*
X903Y2471D01*
X1031Y2471D02*
X1070Y2471D01*
X1120Y2471D02*
X1159Y2471D01*
X1503Y2471D02*
X1542Y2471D01*
X1593Y2471D02*
X1631Y2471D01*
X303Y2470D02*
X342Y2470D01*
X392Y2470D02*
X431Y2470D01*
X775Y2470D02*
X814Y2470D01*
X864Y2470D02*
X903Y2470D01*
X1031Y2470D02*
X1070Y2470D01*
X1120Y2470D02*
X1159Y2470D01*
X1504Y2470D02*
X1543Y2470D01*
X1592Y2470D02*
X1631Y2470D01*
X303Y2469D02*
X342Y2469D01*
X391Y2469D02*
X430Y2469D01*
X775Y2469D02*
X815Y2469D01*
X864Y2469D02*
X903Y2469D01*
X1031Y2469D02*
X1071Y2469D01*
X1119Y2469D02*
X1159Y2469D01*
X1504Y2469D02*
X1543Y2469D01*
X1592Y2469D02*
X1631Y2469D01*
X303Y2468D02*
X343Y2468D01*
X391Y2468D02*
X430Y2468D01*
X776Y2468D02*
X815Y2468D01*
X863Y2468D02*
X903Y2468D01*
X1032Y2468D02*
X1071Y2468D01*
X1119Y2468D02*
X1159Y2468D01*
X1504Y2468D02*
X1543Y2468D01*
X1591Y2468D02*
X1631Y2468D01*
X303Y2467D02*
X343Y2467D01*
X390Y2467D02*
X430Y2467D01*
X776Y2467D02*
X816Y2467D01*
X863Y2467D02*
X902Y2467D01*
X1032Y2467D02*
X1072Y2467D01*
X1118Y2467D02*
X1158Y2467D01*
X1504Y2467D02*
X1544Y2467D01*
X1591Y2467D02*
X1631Y2467D01*
X304Y2466D02*
X344Y2466D01*
X390Y2466D02*
X430Y2466D01*
X776Y2466D02*
X816Y2466D01*
X862Y2466D02*
X902Y2466D01*
X1032Y2466D02*
X1072Y2466D01*
X1118Y2466D02*
X1158Y2466D01*
X1504Y2466D02*
X1544Y2466D01*
X1590Y2466D02*
X1631Y2466D01*
X304Y2465D02*
X344Y2465D01*
X389Y2465D02*
X430Y2465D01*
X776Y2465D02*
X817Y2465D01*
X862Y2465D02*
X902Y2465D01*
X1032Y2465D02*
X1073Y2465D01*
X1117Y2465D02*
X1158Y2465D01*
X1504Y2465D02*
X1545Y2465D01*
X1590Y2465D02*
X1630Y2465D01*
X304Y2464D02*
X345Y2464D01*
X389Y2464D02*
X429Y2464D01*
X776Y2464D02*
X817Y2464D01*
X861Y2464D02*
X902Y2464D01*
X1032Y2464D02*
X1073Y2464D01*
X1117Y2464D02*
X1158Y2464D01*
X1505Y2464D02*
X1546Y2464D01*
X1589Y2464D02*
X1630Y2464D01*
X304Y2463D02*
X346Y2463D01*
X388Y2463D02*
X429Y2463D01*
X777Y2463D02*
X818Y2463D01*
X860Y2463D02*
X902Y2463D01*
X1033Y2463D02*
X1074Y2463D01*
X1116Y2463D02*
X1158Y2463D01*
X1505Y2463D02*
X1546Y2463D01*
X1589Y2463D02*
X1630Y2463D01*
X304Y2462D02*
X346Y2462D01*
X387Y2462D02*
X429Y2462D01*
X777Y2462D02*
X819Y2462D01*
X859Y2462D02*
X901Y2462D01*
X1033Y2462D02*
X1075Y2462D01*
X1115Y2462D02*
X1157Y2462D01*
X1505Y2462D02*
X1547Y2462D01*
X1588Y2462D02*
X1630Y2462D01*
X305Y2461D02*
X347Y2461D01*
X386Y2461D02*
X429Y2461D01*
X777Y2461D02*
X820Y2461D01*
X859Y2461D02*
X901Y2461D01*
X1033Y2461D02*
X1076Y2461D01*
X1114Y2461D02*
X1157Y2461D01*
X1505Y2461D02*
X1548Y2461D01*
X1587Y2461D02*
X1629Y2461D01*
X305Y2460D02*
X348Y2460D01*
X385Y2460D02*
X428Y2460D01*
X777Y2460D02*
X821Y2460D01*
X858Y2460D02*
X901Y2460D01*
X1033Y2460D02*
X1077Y2460D01*
X1114Y2460D02*
X1157Y2460D01*
X1506Y2460D02*
X1549Y2460D01*
X1586Y2460D02*
X1629Y2460D01*
X305Y2459D02*
X349Y2459D01*
X384Y2459D02*
X428Y2459D01*
X778Y2459D02*
X822Y2459D01*
X856Y2459D02*
X901Y2459D01*
X1034Y2459D02*
X1078Y2459D01*
X1112Y2459D02*
X1157Y2459D01*
X1506Y2459D02*
X1550Y2459D01*
X1585Y2459D02*
X1629Y2459D01*
X306Y2458D02*
X351Y2458D01*
X383Y2458D02*
X428Y2458D01*
X778Y2458D02*
X823Y2458D01*
X855Y2458D02*
X900Y2458D01*
X1034Y2458D02*
X1079Y2458D01*
X1111Y2458D02*
X1156Y2458D01*
X1506Y2458D02*
X1551Y2458D01*
X1584Y2458D02*
X1629Y2458D01*
X306Y2457D02*
X352Y2457D01*
X382Y2457D02*
X428Y2457D01*
X778Y2457D02*
X824Y2457D01*
X854Y2457D02*
X900Y2457D01*
X1034Y2457D02*
X1080Y2457D01*
X1110Y2457D02*
X1156Y2457D01*
X1507Y2457D02*
X1552Y2457D01*
X1582Y2457D02*
X1628Y2457D01*
X306Y2456D02*
X354Y2456D01*
X380Y2456D02*
X427Y2456D01*
X779Y2456D02*
X826Y2456D01*
X852Y2456D02*
X900Y2456D01*
X1035Y2456D02*
X1082Y2456D01*
X1108Y2456D02*
X1155Y2456D01*
X1507Y2456D02*
X1554Y2456D01*
X1581Y2456D02*
X1628Y2456D01*
X307Y2455D02*
X355Y2455D01*
X378Y2455D02*
X427Y2455D01*
X779Y2455D02*
X828Y2455D01*
X850Y2455D02*
X899Y2455D01*
X1035Y2455D02*
X1084Y2455D01*
X1106Y2455D02*
X1155Y2455D01*
X1507Y2455D02*
X1556Y2455D01*
X1579Y2455D02*
X1628Y2455D01*
X307Y2454D02*
X358Y2454D01*
X376Y2454D02*
X426Y2454D01*
X779Y2454D02*
X830Y2454D01*
X848Y2454D02*
X899Y2454D01*
X1035Y2454D02*
X1086Y2454D01*
X1104Y2454D02*
X1155Y2454D01*
X1508Y2454D02*
X1558Y2454D01*
X1576Y2454D02*
X1627Y2454D01*
X307Y2453D02*
X361Y2453D01*
X372Y2453D02*
X426Y2453D01*
X780Y2453D02*
X833Y2453D01*
X845Y2453D02*
X898Y2453D01*
X1036Y2453D02*
X1089Y2453D01*
X1101Y2453D02*
X1154Y2453D01*
X1508Y2453D02*
X1562Y2453D01*
X1573Y2453D02*
X1627Y2453D01*
X308Y2452D02*
X426Y2452D01*
X780Y2452D02*
X898Y2452D01*
X1036Y2452D02*
X1154Y2452D01*
X1508Y2452D02*
X1626Y2452D01*
X308Y2451D02*
X425Y2451D01*
X781Y2451D02*
X898Y2451D01*
X1037Y2451D02*
X1153Y2451D01*
X1509Y2451D02*
X1626Y2451D01*
X309Y2450D02*
X425Y2450D01*
X781Y2450D02*
X897Y2450D01*
X1037Y2450D02*
X1153Y2450D01*
X1509Y2450D02*
X1625Y2450D01*
X309Y2449D02*
X424Y2449D01*
X782Y2449D02*
X897Y2449D01*
X1038Y2449D02*
X1152Y2449D01*
X1510Y2449D02*
X1625Y2449D01*
X310Y2448D02*
X424Y2448D01*
X782Y2448D02*
X896Y2448D01*
X1038Y2448D02*
X1152Y2448D01*
X1510Y2448D02*
X1624Y2448D01*
X310Y2447D02*
X423Y2447D01*
X783Y2447D02*
X896Y2447D01*
X1039Y2447D02*
X1151Y2447D01*
X1511Y2447D02*
X1624Y2447D01*
X311Y2446D02*
X423Y2446D01*
X783Y2446D02*
X895Y2446D01*
X1039Y2446D02*
X1151Y2446D01*
X1512Y2446D02*
X1623Y2446D01*
X312Y2445D02*
X422Y2445D01*
X784Y2445D02*
X894Y2445D01*
X1040Y2445D02*
X1150Y2445D01*
X1512Y2445D02*
X1623Y2445D01*
X312Y2444D02*
X421Y2444D01*
X785Y2444D02*
X894Y2444D01*
X1040Y2444D02*
X1150Y2444D01*
X1513Y2444D02*
X1622Y2444D01*
X313Y2443D02*
X421Y2443D01*
X785Y2443D02*
X893Y2443D01*
X1041Y2443D02*
X1149Y2443D01*
X1513Y2443D02*
X1621Y2443D01*
X313Y2442D02*
X420Y2442D01*
X786Y2442D02*
X892Y2442D01*
X1042Y2442D02*
X1148Y2442D01*
X1514Y2442D02*
X1621Y2442D01*
X314Y2441D02*
X419Y2441D01*
X786Y2441D02*
X892Y2441D01*
X1042Y2441D02*
X1148Y2441D01*
X1515Y2441D02*
X1620Y2441D01*
X315Y2440D02*
X419Y2440D01*
X787Y2440D02*
X891Y2440D01*
X1043Y2440D02*
X1147Y2440D01*
X1516Y2440D02*
X1619Y2440D01*
X316Y2439D02*
X418Y2439D01*
X788Y2439D02*
X890Y2439D01*
X1044Y2439D02*
X1146Y2439D01*
X1516Y2439D02*
X1619Y2439D01*
X316Y2438D02*
X417Y2438D01*
X789Y2438D02*
X890Y2438D01*
X1045Y2438D02*
X1145Y2438D01*
X1517Y2438D02*
X1618Y2438D01*
X317Y2437D02*
X416Y2437D01*
X789Y2437D02*
X889Y2437D01*
X1045Y2437D02*
X1145Y2437D01*
X1518Y2437D02*
X1617Y2437D01*
X318Y2436D02*
X416Y2436D01*
X790Y2436D02*
X888Y2436D01*
X1046Y2436D02*
X1144Y2436D01*
X1519Y2436D02*
X1616Y2436D01*
X319Y2435D02*
X415Y2435D01*
X791Y2435D02*
X887Y2435D01*
X1047Y2435D02*
X1143Y2435D01*
X1519Y2435D02*
X1615Y2435D01*
X320Y2434D02*
X414Y2434D01*
X792Y2434D02*
X886Y2434D01*
X1048Y2434D02*
X1142Y2434D01*
X1520Y2434D02*
X1614Y2434D01*
X321Y2433D02*
X413Y2433D01*
X793Y2433D02*
X885Y2433D01*
X1049Y2433D02*
X1141Y2433D01*
X1521Y2433D02*
X1614Y2433D01*
X322Y2432D02*
X412Y2432D01*
X794Y2432D02*
X884Y2432D01*
X1050Y2432D02*
X1140Y2432D01*
X1522Y2432D02*
X1613Y2432D01*
X323Y2431D02*
X411Y2431D01*
X795Y2431D02*
X883Y2431D01*
X1051Y2431D02*
X1139Y2431D01*
X1523Y2431D02*
X1611Y2431D01*
X324Y2430D02*
X410Y2430D01*
X796Y2430D02*
X882Y2430D01*
X1052Y2430D02*
X1138Y2430D01*
X1524Y2430D02*
X1610Y2430D01*
X325Y2429D02*
X409Y2429D01*
X797Y2429D02*
X881Y2429D01*
X1053Y2429D02*
X1137Y2429D01*
X1526Y2429D02*
X1609Y2429D01*
X326Y2428D02*
X407Y2428D01*
X798Y2428D02*
X880Y2428D01*
X1054Y2428D02*
X1136Y2428D01*
X1527Y2428D02*
X1608Y2428D01*
X327Y2427D02*
X406Y2427D01*
X800Y2427D02*
X878Y2427D01*
X1056Y2427D02*
X1134Y2427D01*
X1528Y2427D02*
X1607Y2427D01*
X329Y2426D02*
X405Y2426D01*
X801Y2426D02*
X877Y2426D01*
X1057Y2426D02*
X1133Y2426D01*
X1529Y2426D02*
X1605Y2426D01*
X330Y2425D02*
X403Y2425D01*
X803Y2425D02*
X876Y2425D01*
X1058Y2425D02*
X1132Y2425D01*
X1531Y2425D02*
X1604Y2425D01*
X332Y2424D02*
X402Y2424D01*
X804Y2424D02*
X874Y2424D01*
X1060Y2424D02*
X1130Y2424D01*
X1532Y2424D02*
X1603Y2424D01*
X333Y2423D02*
X400Y2423D01*
X806Y2423D02*
X873Y2423D01*
X1062Y2423D02*
X1129Y2423D01*
X1534Y2423D02*
X1601Y2423D01*
X335Y2422D02*
X399Y2422D01*
X807Y2422D02*
X871Y2422D01*
X1063Y2422D02*
X1127Y2422D01*
X1536Y2422D02*
X1599Y2422D01*
X337Y2421D02*
X397Y2421D01*
X809Y2421D02*
X869Y2421D01*
X1065Y2421D02*
X1125Y2421D01*
X1537Y2421D02*
X1598Y2421D01*
X339Y2420D02*
X395Y2420D01*
X811Y2420D02*
X867Y2420D01*
X1067Y2420D02*
X1123Y2420D01*
X1539Y2420D02*
X1596Y2420D01*
X341Y2419D02*
X393Y2419D01*
X813Y2419D02*
X865Y2419D01*
X1069Y2419D02*
X1121Y2419D01*
X1541Y2419D02*
X1594Y2419D01*
X343Y2418D02*
X391Y2418D01*
X815Y2418D02*
X863Y2418D01*
X1071Y2418D02*
X1119Y2418D01*
X1544Y2418D02*
X1591Y2418D01*
X346Y2417D02*
X388Y2417D01*
X818Y2417D02*
X860Y2417D01*
X1074Y2417D02*
X1116Y2417D01*
X1546Y2417D02*
X1588Y2417D01*
X349Y2416D02*
X385Y2416D01*
X821Y2416D02*
X857Y2416D01*
X1077Y2416D02*
X1113Y2416D01*
X1549Y2416D02*
X1585Y2416D01*
X353Y2415D02*
X381Y2415D01*
X825Y2415D02*
X853Y2415D01*
X1081Y2415D02*
X1109Y2415D01*
X1553Y2415D02*
X1581Y2415D01*
X358Y2414D02*
X375Y2414D01*
X831Y2414D02*
X848Y2414D01*
X1086Y2414D02*
X1104Y2414D01*
X1559Y2414D02*
X1576Y2414D01*
X4816Y2080D02*
X4879Y2080D01*
X4816Y2079D02*
X4880Y2079D01*
X4816Y2078D02*
X4880Y2078D01*
X4816Y2077D02*
X4880Y2077D01*
X4816Y2076D02*
X4880Y2076D01*
X4816Y2075D02*
X4880Y2075D01*
X4816Y2074D02*
X4880Y2074D01*
X4816Y2073D02*
X4880Y2073D01*
X4816Y2072D02*
X4880Y2072D01*
X4816Y2071D02*
X4880Y2071D01*
X4816Y2070D02*
X4880Y2070D01*
X4816Y2069D02*
X4880Y2069D01*
X4816Y2068D02*
X4880Y2068D01*
X4816Y2067D02*
X4880Y2067D01*
X4816Y2066D02*
X4880Y2066D01*
X4816Y2065D02*
X4880Y2065D01*
X358Y2064D02*
X375Y2064D01*
X831Y2064D02*
X848Y2064D01*
X1086Y2064D02*
X1104Y2064D01*
X1559Y2064D02*
X1576Y2064D01*
X4816Y2064D02*
X4880Y2064D01*
X353Y2063D02*
X381Y2063D01*
X825Y2063D02*
X853Y2063D01*
X1081Y2063D02*
X1109Y2063D01*
X1553Y2063D02*
X1581Y2063D01*
X4816Y2063D02*
X4880Y2063D01*
X349Y2062D02*
X385Y2062D01*
X821Y2062D02*
X857Y2062D01*
X1077Y2062D02*
X1113Y2062D01*
X1549Y2062D02*
X1585Y2062D01*
X4816Y2062D02*
X4880Y2062D01*
X346Y2061D02*
X388Y2061D01*
X818Y2061D02*
X860Y2061D01*
X1074Y2061D02*
X1116Y2061D01*
X1546Y2061D02*
X1588Y2061D01*
X4816Y2061D02*
X4844Y2061D01*
X4851Y2061D02*
X4880Y2061D01*
X343Y2060D02*
X391Y2060D01*
X815Y2060D02*
X863Y2060D01*
X1071Y2060D02*
X1119Y2060D01*
X1544Y2060D02*
X1591Y2060D01*
X4816Y2060D02*
X4841Y2060D01*
X4854Y2060D02*
X4880Y2060D01*
X341Y2059D02*
X393Y2059D01*
X813Y2059D02*
X865Y2059D01*
X1069Y2059D02*
X1121Y2059D01*
X1541Y2059D02*
X1594Y2059D01*
X4816Y2059D02*
X4839Y2059D01*
X4856Y2059D02*
X4880Y2059D01*
X339Y2058D02*
X395Y2058D01*
X811Y2058D02*
X867Y2058D01*
X1067Y2058D02*
X1123Y2058D01*
X1539Y2058D02*
X1596Y2058D01*
X4816Y2058D02*
X4838Y2058D01*
X4857Y2058D02*
X4880Y2058D01*
X337Y2057D02*
X397Y2057D01*
X809Y2057D02*
X869Y2057D01*
X1065Y2057D02*
X1125Y2057D01*
X1537Y2057D02*
X1598Y2057D01*
X4816Y2057D02*
X4837Y2057D01*
X4858Y2057D02*
X4880Y2057D01*
X335Y2056D02*
X399Y2056D01*
X807Y2056D02*
X871Y2056D01*
X1063Y2056D02*
X1127Y2056D01*
X1536Y2056D02*
X1599Y2056D01*
X4816Y2056D02*
X4836Y2056D01*
X4859Y2056D02*
X4880Y2056D01*
X333Y2055D02*
X400Y2055D01*
X806Y2055D02*
X873Y2055D01*
X1062Y2055D02*
X1129Y2055D01*
X1534Y2055D02*
X1601Y2055D01*
X4816Y2055D02*
X4835Y2055D01*
X4860Y2055D02*
X4880Y2055D01*
X332Y2054D02*
X402Y2054D01*
X804Y2054D02*
X874Y2054D01*
X1060Y2054D02*
X1130Y2054D01*
X1532Y2054D02*
X1603Y2054D01*
X4816Y2054D02*
X4835Y2054D01*
X4860Y2054D02*
X4880Y2054D01*
X330Y2053D02*
X403Y2053D01*
X803Y2053D02*
X876Y2053D01*
X1058Y2053D02*
X1132Y2053D01*
X1531Y2053D02*
X1604Y2053D01*
X4816Y2053D02*
X4834Y2053D01*
X4861Y2053D02*
X4880Y2053D01*
X329Y2052D02*
X405Y2052D01*
X801Y2052D02*
X877Y2052D01*
X1057Y2052D02*
X1133Y2052D01*
X1529Y2052D02*
X1605Y2052D01*
X4816Y2052D02*
X4834Y2052D01*
X4861Y2052D02*
X4880Y2052D01*
X327Y2051D02*
X406Y2051D01*
X800Y2051D02*
X878Y2051D01*
X1056Y2051D02*
X1134Y2051D01*
X1528Y2051D02*
X1607Y2051D01*
X4816Y2051D02*
X4834Y2051D01*
X4861Y2051D02*
X4880Y2051D01*
X326Y2050D02*
X407Y2050D01*
X798Y2050D02*
X880Y2050D01*
X1054Y2050D02*
X1136Y2050D01*
X1527Y2050D02*
X1608Y2050D01*
X4816Y2050D02*
X4833Y2050D01*
X4862Y2050D02*
X4880Y2050D01*
X325Y2049D02*
X409Y2049D01*
X797Y2049D02*
X881Y2049D01*
X1053Y2049D02*
X1137Y2049D01*
X1526Y2049D02*
X1609Y2049D01*
X4816Y2049D02*
X4833Y2049D01*
X4862Y2049D02*
X4880Y2049D01*
X324Y2048D02*
X410Y2048D01*
X796Y2048D02*
X882Y2048D01*
X1052Y2048D02*
X1138Y2048D01*
X1524Y2048D02*
X1610Y2048D01*
X4816Y2048D02*
X4833Y2048D01*
X4862Y2048D02*
X4880Y2048D01*
X323Y2047D02*
X411Y2047D01*
X795Y2047D02*
X883Y2047D01*
X1051Y2047D02*
X1139Y2047D01*
X1523Y2047D02*
X1611Y2047D01*
X4816Y2047D02*
X4833Y2047D01*
X4862Y2047D02*
X4880Y2047D01*
X322Y2046D02*
X412Y2046D01*
X794Y2046D02*
X884Y2046D01*
X1050Y2046D02*
X1140Y2046D01*
X1522Y2046D02*
X1613Y2046D01*
X4816Y2046D02*
X4833Y2046D01*
X4862Y2046D02*
X4880Y2046D01*
X321Y2045D02*
X413Y2045D01*
X793Y2045D02*
X885Y2045D01*
X1049Y2045D02*
X1141Y2045D01*
X1521Y2045D02*
X1614Y2045D01*
X4816Y2045D02*
X4834Y2045D01*
X4861Y2045D02*
X4880Y2045D01*
X320Y2044D02*
X414Y2044D01*
X792Y2044D02*
X886Y2044D01*
X1048Y2044D02*
X1142Y2044D01*
X1520Y2044D02*
X1614Y2044D01*
X4816Y2044D02*
X4834Y2044D01*
X4861Y2044D02*
X4880Y2044D01*
X319Y2043D02*
X415Y2043D01*
X791Y2043D02*
X887Y2043D01*
X1047Y2043D02*
X1143Y2043D01*
X1519Y2043D02*
X1615Y2043D01*
X4816Y2043D02*
X4834Y2043D01*
X4861Y2043D02*
X4880Y2043D01*
X318Y2042D02*
X416Y2042D01*
X790Y2042D02*
X888Y2042D01*
X1046Y2042D02*
X1144Y2042D01*
X1519Y2042D02*
X1616Y2042D01*
X4816Y2042D02*
X4835Y2042D01*
X4861Y2042D02*
X4880Y2042D01*
X317Y2041D02*
X416Y2041D01*
X789Y2041D02*
X889Y2041D01*
X1045Y2041D02*
X1145Y2041D01*
X1518Y2041D02*
X1617Y2041D01*
X4816Y2041D02*
X4835Y2041D01*
X4860Y2041D02*
X4880Y2041D01*
X316Y2040D02*
X417Y2040D01*
X789Y2040D02*
X890Y2040D01*
X1045Y2040D02*
X1145Y2040D01*
X1517Y2040D02*
X1618Y2040D01*
X4816Y2040D02*
X4836Y2040D01*
X4859Y2040D02*
X4880Y2040D01*
X316Y2039D02*
X418Y2039D01*
X788Y2039D02*
X890Y2039D01*
X1044Y2039D02*
X1146Y2039D01*
X1516Y2039D02*
X1619Y2039D01*
X4816Y2039D02*
X4836Y2039D01*
X4859Y2039D02*
X4880Y2039D01*
X315Y2038D02*
X419Y2038D01*
X787Y2038D02*
X891Y2038D01*
X1043Y2038D02*
X1147Y2038D01*
X1516Y2038D02*
X1619Y2038D01*
X4816Y2038D02*
X4837Y2038D01*
X4858Y2038D02*
X4880Y2038D01*
X314Y2037D02*
X419Y2037D01*
X787Y2037D02*
X892Y2037D01*
X1042Y2037D02*
X1148Y2037D01*
X1515Y2037D02*
X1620Y2037D01*
X4816Y2037D02*
X4838Y2037D01*
X4857Y2037D02*
X4880Y2037D01*
X313Y2036D02*
X420Y2036D01*
X786Y2036D02*
X892Y2036D01*
X1042Y2036D02*
X1148Y2036D01*
X1514Y2036D02*
X1621Y2036D01*
X4816Y2036D02*
X4840Y2036D01*
X4855Y2036D02*
X4880Y2036D01*
X313Y2035D02*
X421Y2035D01*
X785Y2035D02*
X893Y2035D01*
X1041Y2035D02*
X1149Y2035D01*
X1513Y2035D02*
X1621Y2035D01*
X4816Y2035D02*
X4842Y2035D01*
X4853Y2035D02*
X4880Y2035D01*
X312Y2034D02*
X421Y2034D01*
X785Y2034D02*
X894Y2034D01*
X1040Y2034D02*
X1150Y2034D01*
X1513Y2034D02*
X1622Y2034D01*
X4816Y2034D02*
X4846Y2034D01*
X4849Y2034D02*
X4880Y2034D01*
X312Y2033D02*
X422Y2033D01*
X784Y2033D02*
X894Y2033D01*
X1040Y2033D02*
X1150Y2033D01*
X1512Y2033D02*
X1623Y2033D01*
X4816Y2033D02*
X4880Y2033D01*
X311Y2032D02*
X423Y2032D01*
X783Y2032D02*
X895Y2032D01*
X1039Y2032D02*
X1151Y2032D01*
X1512Y2032D02*
X1623Y2032D01*
X4816Y2032D02*
X4880Y2032D01*
X310Y2031D02*
X423Y2031D01*
X783Y2031D02*
X896Y2031D01*
X1039Y2031D02*
X1151Y2031D01*
X1511Y2031D02*
X1624Y2031D01*
X4816Y2031D02*
X4880Y2031D01*
X310Y2030D02*
X424Y2030D01*
X782Y2030D02*
X896Y2030D01*
X1038Y2030D02*
X1152Y2030D01*
X1510Y2030D02*
X1624Y2030D01*
X4816Y2030D02*
X4880Y2030D01*
X309Y2029D02*
X424Y2029D01*
X782Y2029D02*
X897Y2029D01*
X1038Y2029D02*
X1152Y2029D01*
X1510Y2029D02*
X1625Y2029D01*
X4816Y2029D02*
X4880Y2029D01*
X309Y2028D02*
X425Y2028D01*
X781Y2028D02*
X897Y2028D01*
X1037Y2028D02*
X1153Y2028D01*
X1509Y2028D02*
X1625Y2028D01*
X4816Y2028D02*
X4880Y2028D01*
X308Y2027D02*
X425Y2027D01*
X781Y2027D02*
X898Y2027D01*
X1037Y2027D02*
X1153Y2027D01*
X1509Y2027D02*
X1626Y2027D01*
X4816Y2027D02*
X4880Y2027D01*
X308Y2026D02*
X426Y2026D01*
X780Y2026D02*
X898Y2026D01*
X1036Y2026D02*
X1154Y2026D01*
X1509Y2026D02*
X1626Y2026D01*
X4816Y2026D02*
X4880Y2026D01*
X307Y2025D02*
X361Y2025D01*
X372Y2025D02*
X426Y2025D01*
X780Y2025D02*
X833Y2025D01*
X845Y2025D02*
X898Y2025D01*
X1036Y2025D02*
X1089Y2025D01*
X1101Y2025D02*
X1154Y2025D01*
X1508Y2025D02*
X1562Y2025D01*
X1573Y2025D02*
X1627Y2025D01*
X4816Y2025D02*
X4880Y2025D01*
X307Y2024D02*
X358Y2024D01*
X376Y2024D02*
X426Y2024D01*
X779Y2024D02*
X830Y2024D01*
X848Y2024D02*
X899Y2024D01*
X1035Y2024D02*
X1086Y2024D01*
X1104Y2024D02*
X1155Y2024D01*
X1508Y2024D02*
X1558Y2024D01*
X1576Y2024D02*
X1627Y2024D01*
X4816Y2024D02*
X4880Y2024D01*
X307Y2023D02*
X355Y2023D01*
X378Y2023D02*
X427Y2023D01*
X779Y2023D02*
X828Y2023D01*
X850Y2023D02*
X899Y2023D01*
X1035Y2023D02*
X1084Y2023D01*
X1106Y2023D02*
X1155Y2023D01*
X1507Y2023D02*
X1556Y2023D01*
X1579Y2023D02*
X1628Y2023D01*
X4816Y2023D02*
X4880Y2023D01*
X306Y2022D02*
X354Y2022D01*
X380Y2022D02*
X427Y2022D01*
X779Y2022D02*
X826Y2022D01*
X852Y2022D02*
X900Y2022D01*
X1035Y2022D02*
X1082Y2022D01*
X1108Y2022D02*
X1155Y2022D01*
X1507Y2022D02*
X1554Y2022D01*
X1581Y2022D02*
X1628Y2022D01*
X4816Y2022D02*
X4880Y2022D01*
X306Y2021D02*
X352Y2021D01*
X382Y2021D02*
X428Y2021D01*
X778Y2021D02*
X824Y2021D01*
X854Y2021D02*
X900Y2021D01*
X1034Y2021D02*
X1080Y2021D01*
X1110Y2021D02*
X1156Y2021D01*
X1507Y2021D02*
X1552Y2021D01*
X1582Y2021D02*
X1628Y2021D01*
X4816Y2021D02*
X4880Y2021D01*
X306Y2020D02*
X351Y2020D01*
X383Y2020D02*
X428Y2020D01*
X778Y2020D02*
X823Y2020D01*
X855Y2020D02*
X900Y2020D01*
X1034Y2020D02*
X1079Y2020D01*
X1111Y2020D02*
X1156Y2020D01*
X1506Y2020D02*
X1551Y2020D01*
X1584Y2020D02*
X1629Y2020D01*
X4816Y2020D02*
X4880Y2020D01*
X305Y2019D02*
X349Y2019D01*
X384Y2019D02*
X428Y2019D01*
X778Y2019D02*
X822Y2019D01*
X856Y2019D02*
X901Y2019D01*
X1034Y2019D02*
X1078Y2019D01*
X1112Y2019D02*
X1157Y2019D01*
X1506Y2019D02*
X1550Y2019D01*
X1585Y2019D02*
X1629Y2019D01*
X4816Y2019D02*
X4880Y2019D01*
X305Y2018D02*
X348Y2018D01*
X385Y2018D02*
X428Y2018D01*
X777Y2018D02*
X821Y2018D01*
X858Y2018D02*
X901Y2018D01*
X1033Y2018D02*
X1077Y2018D01*
X1114Y2018D02*
X1157Y2018D01*
X1506Y2018D02*
X1549Y2018D01*
X1586Y2018D02*
X1629Y2018D01*
X4816Y2018D02*
X4880Y2018D01*
X305Y2017D02*
X347Y2017D01*
X386Y2017D02*
X429Y2017D01*
X777Y2017D02*
X820Y2017D01*
X859Y2017D02*
X901Y2017D01*
X1033Y2017D02*
X1076Y2017D01*
X1114Y2017D02*
X1157Y2017D01*
X1505Y2017D02*
X1548Y2017D01*
X1587Y2017D02*
X1629Y2017D01*
X4816Y2017D02*
X4880Y2017D01*
X304Y2016D02*
X346Y2016D01*
X387Y2016D02*
X429Y2016D01*
X777Y2016D02*
X819Y2016D01*
X859Y2016D02*
X901Y2016D01*
X1033Y2016D02*
X1075Y2016D01*
X1115Y2016D02*
X1157Y2016D01*
X1505Y2016D02*
X1547Y2016D01*
X1588Y2016D02*
X1630Y2016D01*
X4816Y2016D02*
X4880Y2016D01*
X304Y2015D02*
X346Y2015D01*
X388Y2015D02*
X429Y2015D01*
X777Y2015D02*
X818Y2015D01*
X860Y2015D02*
X902Y2015D01*
X1033Y2015D02*
X1074Y2015D01*
X1116Y2015D02*
X1158Y2015D01*
X1505Y2015D02*
X1546Y2015D01*
X1589Y2015D02*
X1630Y2015D01*
X304Y2014D02*
X345Y2014D01*
X389Y2014D02*
X429Y2014D01*
X776Y2014D02*
X817Y2014D01*
X861Y2014D02*
X902Y2014D01*
X1032Y2014D02*
X1073Y2014D01*
X1117Y2014D02*
X1158Y2014D01*
X1505Y2014D02*
X1546Y2014D01*
X1589Y2014D02*
X1630Y2014D01*
X304Y2013D02*
X344Y2013D01*
X389Y2013D02*
X430Y2013D01*
X776Y2013D02*
X817Y2013D01*
X862Y2013D02*
X902Y2013D01*
X1032Y2013D02*
X1073Y2013D01*
X1117Y2013D02*
X1158Y2013D01*
X1504Y2013D02*
X1545Y2013D01*
X1590Y2013D02*
X1630Y2013D01*
X304Y2012D02*
X344Y2012D01*
X390Y2012D02*
X430Y2012D01*
X776Y2012D02*
X816Y2012D01*
X862Y2012D02*
X902Y2012D01*
X1032Y2012D02*
X1072Y2012D01*
X1118Y2012D02*
X1158Y2012D01*
X1504Y2012D02*
X1544Y2012D01*
X1590Y2012D02*
X1631Y2012D01*
X303Y2011D02*
X343Y2011D01*
X390Y2011D02*
X430Y2011D01*
X776Y2011D02*
X816Y2011D01*
X863Y2011D02*
X902Y2011D01*
X1032Y2011D02*
X1072Y2011D01*
X1118Y2011D02*
X1158Y2011D01*
X1504Y2011D02*
X1544Y2011D01*
X1591Y2011D02*
X1631Y2011D01*
X303Y2010D02*
X343Y2010D01*
X391Y2010D02*
X430Y2010D01*
X776Y2010D02*
X815Y2010D01*
X863Y2010D02*
X903Y2010D01*
X1032Y2010D02*
X1071Y2010D01*
X1119Y2010D02*
X1159Y2010D01*
X1504Y2010D02*
X1543Y2010D01*
X1591Y2010D02*
X1631Y2010D01*
X303Y2009D02*
X342Y2009D01*
X391Y2009D02*
X430Y2009D01*
X775Y2009D02*
X815Y2009D01*
X864Y2009D02*
X903Y2009D01*
X1031Y2009D02*
X1071Y2009D01*
X1119Y2009D02*
X1159Y2009D01*
X1504Y2009D02*
X1543Y2009D01*
X1592Y2009D02*
X1631Y2009D01*
X303Y2008D02*
X342Y2008D01*
X392Y2008D02*
X431Y2008D01*
X775Y2008D02*
X814Y2008D01*
X864Y2008D02*
X903Y2008D01*
X1031Y2008D02*
X1070Y2008D01*
X1120Y2008D02*
X1159Y2008D01*
X1504Y2008D02*
X1543Y2008D01*
X1592Y2008D02*
X1631Y2008D01*
X303Y2007D02*
X342Y2007D01*
X392Y2007D02*
X431Y2007D01*
X775Y2007D02*
X814Y2007D01*
X864Y2007D02*
X903Y2007D01*
X1031Y2007D02*
X1070Y2007D01*
X1120Y2007D02*
X1159Y2007D01*
X1503Y2007D02*
X1542Y2007D01*
X1593Y2007D02*
X1631Y2007D01*
X303Y2006D02*
X341Y2006D01*
X392Y2006D02*
X431Y2006D01*
X775Y2006D02*
X814Y2006D01*
X865Y2006D02*
X903Y2006D01*
X1031Y2006D02*
X1070Y2006D01*
X1120Y2006D02*
X1159Y2006D01*
X1503Y2006D02*
X1542Y2006D01*
X1593Y2006D02*
X1631Y2006D01*
X303Y2005D02*
X341Y2005D01*
X392Y2005D02*
X431Y2005D01*
X775Y2005D02*
X813Y2005D01*
X865Y2005D02*
X903Y2005D01*
X1031Y2005D02*
X1069Y2005D01*
X1121Y2005D02*
X1159Y2005D01*
X1503Y2005D02*
X1542Y2005D01*
X1593Y2005D02*
X1632Y2005D01*
X303Y2004D02*
X341Y2004D01*
X393Y2004D02*
X431Y2004D01*
X775Y2004D02*
X813Y2004D01*
X865Y2004D02*
X903Y2004D01*
X1031Y2004D02*
X1069Y2004D01*
X1121Y2004D02*
X1159Y2004D01*
X1503Y2004D02*
X1542Y2004D01*
X1593Y2004D02*
X1632Y2004D01*
X302Y2003D02*
X341Y2003D01*
X393Y2003D02*
X431Y2003D01*
X775Y2003D02*
X813Y2003D01*
X865Y2003D02*
X903Y2003D01*
X1031Y2003D02*
X1069Y2003D01*
X1121Y2003D02*
X1159Y2003D01*
X1503Y2003D02*
X1541Y2003D01*
X1593Y2003D02*
X1632Y2003D01*
X302Y2002D02*
X341Y2002D01*
X393Y2002D02*
X431Y2002D01*
X775Y2002D02*
X813Y2002D01*
X865Y2002D02*
X903Y2002D01*
X1031Y2002D02*
X1069Y2002D01*
X1121Y2002D02*
X1159Y2002D01*
X1503Y2002D02*
X1541Y2002D01*
X1593Y2002D02*
X1632Y2002D01*
X302Y2001D02*
X341Y2001D01*
X393Y2001D02*
X431Y2001D01*
X775Y2001D02*
X813Y2001D01*
X865Y2001D02*
X904Y2001D01*
X1031Y2001D02*
X1069Y2001D01*
X1121Y2001D02*
X1159Y2001D01*
X1503Y2001D02*
X1541Y2001D01*
X1593Y2001D02*
X1632Y2001D01*
X302Y2000D02*
X341Y2000D01*
X393Y2000D02*
X431Y2000D01*
X775Y2000D02*
X813Y2000D01*
X865Y2000D02*
X904Y2000D01*
X1031Y2000D02*
X1069Y2000D01*
X1121Y2000D02*
X1159Y2000D01*
X1503Y2000D02*
X1541Y2000D01*
X1593Y2000D02*
X1632Y2000D01*
X302Y1999D02*
X341Y1999D01*
X393Y1999D02*
X431Y1999D01*
X775Y1999D02*
X813Y1999D01*
X865Y1999D02*
X904Y1999D01*
X1031Y1999D02*
X1069Y1999D01*
X1121Y1999D02*
X1159Y1999D01*
X1503Y1999D02*
X1541Y1999D01*
X1593Y1999D02*
X1632Y1999D01*
X302Y1998D02*
X341Y1998D01*
X393Y1998D02*
X431Y1998D01*
X775Y1998D02*
X813Y1998D01*
X865Y1998D02*
X903Y1998D01*
X1031Y1998D02*
X1069Y1998D01*
X1121Y1998D02*
X1159Y1998D01*
X1503Y1998D02*
X1541Y1998D01*
X1593Y1998D02*
X1632Y1998D01*
X302Y1997D02*
X341Y1997D01*
X393Y1997D02*
X431Y1997D01*
X775Y1997D02*
X813Y1997D01*
X865Y1997D02*
X903Y1997D01*
X1031Y1997D02*
X1069Y1997D01*
X1121Y1997D02*
X1159Y1997D01*
X1503Y1997D02*
X1541Y1997D01*
X1593Y1997D02*
X1632Y1997D01*
X303Y1996D02*
X341Y1996D01*
X393Y1996D02*
X431Y1996D01*
X775Y1996D02*
X813Y1996D01*
X865Y1996D02*
X903Y1996D01*
X1031Y1996D02*
X1069Y1996D01*
X1121Y1996D02*
X1159Y1996D01*
X1503Y1996D02*
X1542Y1996D01*
X1593Y1996D02*
X1632Y1996D01*
X303Y1995D02*
X341Y1995D01*
X392Y1995D02*
X431Y1995D01*
X775Y1995D02*
X813Y1995D01*
X865Y1995D02*
X903Y1995D01*
X1031Y1995D02*
X1069Y1995D01*
X1121Y1995D02*
X1159Y1995D01*
X1503Y1995D02*
X1542Y1995D01*
X1593Y1995D02*
X1632Y1995D01*
X303Y1994D02*
X341Y1994D01*
X392Y1994D02*
X431Y1994D01*
X775Y1994D02*
X814Y1994D01*
X865Y1994D02*
X903Y1994D01*
X1031Y1994D02*
X1070Y1994D01*
X1121Y1994D02*
X1159Y1994D01*
X1503Y1994D02*
X1542Y1994D01*
X1593Y1994D02*
X1632Y1994D01*
X303Y1993D02*
X342Y1993D01*
X392Y1993D02*
X431Y1993D01*
X775Y1993D02*
X814Y1993D01*
X864Y1993D02*
X903Y1993D01*
X1031Y1993D02*
X1070Y1993D01*
X1120Y1993D02*
X1159Y1993D01*
X1503Y1993D02*
X1542Y1993D01*
X1593Y1993D02*
X1631Y1993D01*
X303Y1992D02*
X342Y1992D01*
X392Y1992D02*
X431Y1992D01*
X775Y1992D02*
X814Y1992D01*
X864Y1992D02*
X903Y1992D01*
X1031Y1992D02*
X1070Y1992D01*
X1120Y1992D02*
X1159Y1992D01*
X1504Y1992D02*
X1542Y1992D01*
X1592Y1992D02*
X1631Y1992D01*
X303Y1991D02*
X342Y1991D01*
X391Y1991D02*
X430Y1991D01*
X775Y1991D02*
X815Y1991D01*
X864Y1991D02*
X903Y1991D01*
X1031Y1991D02*
X1070Y1991D01*
X1120Y1991D02*
X1159Y1991D01*
X1504Y1991D02*
X1543Y1991D01*
X1592Y1991D02*
X1631Y1991D01*
X303Y1990D02*
X343Y1990D01*
X391Y1990D02*
X430Y1990D01*
X776Y1990D02*
X815Y1990D01*
X863Y1990D02*
X903Y1990D01*
X1031Y1990D02*
X1071Y1990D01*
X1119Y1990D02*
X1159Y1990D01*
X1504Y1990D02*
X1543Y1990D01*
X1592Y1990D02*
X1631Y1990D01*
X303Y1989D02*
X343Y1989D01*
X390Y1989D02*
X430Y1989D01*
X776Y1989D02*
X815Y1989D01*
X863Y1989D02*
X902Y1989D01*
X1032Y1989D02*
X1071Y1989D01*
X1119Y1989D02*
X1158Y1989D01*
X1504Y1989D02*
X1544Y1989D01*
X1591Y1989D02*
X1631Y1989D01*
X304Y1988D02*
X344Y1988D01*
X390Y1988D02*
X430Y1988D01*
X776Y1988D02*
X816Y1988D01*
X862Y1988D02*
X902Y1988D01*
X1032Y1988D02*
X1072Y1988D01*
X1118Y1988D02*
X1158Y1988D01*
X1504Y1988D02*
X1544Y1988D01*
X1591Y1988D02*
X1631Y1988D01*
X304Y1987D02*
X344Y1987D01*
X389Y1987D02*
X430Y1987D01*
X776Y1987D02*
X817Y1987D01*
X862Y1987D02*
X902Y1987D01*
X1032Y1987D02*
X1072Y1987D01*
X1118Y1987D02*
X1158Y1987D01*
X1504Y1987D02*
X1545Y1987D01*
X1590Y1987D02*
X1630Y1987D01*
X304Y1986D02*
X345Y1986D01*
X389Y1986D02*
X430Y1986D01*
X776Y1986D02*
X817Y1986D01*
X861Y1986D02*
X902Y1986D01*
X1032Y1986D02*
X1073Y1986D01*
X1117Y1986D02*
X1158Y1986D01*
X1505Y1986D02*
X1545Y1986D01*
X1589Y1986D02*
X1630Y1986D01*
X304Y1985D02*
X345Y1985D01*
X388Y1985D02*
X429Y1985D01*
X777Y1985D02*
X818Y1985D01*
X861Y1985D02*
X902Y1985D01*
X1032Y1985D02*
X1074Y1985D01*
X1116Y1985D02*
X1158Y1985D01*
X1505Y1985D02*
X1546Y1985D01*
X1589Y1985D02*
X1630Y1985D01*
X304Y1984D02*
X346Y1984D01*
X387Y1984D02*
X429Y1984D01*
X602Y1984D02*
X604Y1984D01*
X777Y1984D02*
X819Y1984D01*
X860Y1984D02*
X901Y1984D01*
X1033Y1984D02*
X1074Y1984D01*
X1116Y1984D02*
X1157Y1984D01*
X1330Y1984D02*
X1332Y1984D01*
X1505Y1984D02*
X1547Y1984D01*
X1588Y1984D02*
X1630Y1984D01*
X305Y1983D02*
X347Y1983D01*
X386Y1983D02*
X429Y1983D01*
X592Y1983D02*
X613Y1983D01*
X777Y1983D02*
X819Y1983D01*
X859Y1983D02*
X901Y1983D01*
X1033Y1983D02*
X1075Y1983D01*
X1115Y1983D02*
X1157Y1983D01*
X1321Y1983D02*
X1342Y1983D01*
X1505Y1983D02*
X1548Y1983D01*
X1587Y1983D02*
X1629Y1983D01*
X305Y1982D02*
X348Y1982D01*
X386Y1982D02*
X429Y1982D01*
X588Y1982D02*
X618Y1982D01*
X777Y1982D02*
X820Y1982D01*
X858Y1982D02*
X901Y1982D01*
X1033Y1982D02*
X1076Y1982D01*
X1114Y1982D02*
X1157Y1982D01*
X1316Y1982D02*
X1346Y1982D01*
X1506Y1982D02*
X1549Y1982D01*
X1586Y1982D02*
X1629Y1982D01*
X305Y1981D02*
X349Y1981D01*
X384Y1981D02*
X428Y1981D01*
X584Y1981D02*
X622Y1981D01*
X778Y1981D02*
X821Y1981D01*
X857Y1981D02*
X901Y1981D01*
X1033Y1981D02*
X1077Y1981D01*
X1113Y1981D02*
X1157Y1981D01*
X1312Y1981D02*
X1350Y1981D01*
X1506Y1981D02*
X1550Y1981D01*
X1585Y1981D02*
X1629Y1981D01*
X305Y1980D02*
X350Y1980D01*
X383Y1980D02*
X428Y1980D01*
X581Y1980D02*
X625Y1980D01*
X778Y1980D02*
X823Y1980D01*
X856Y1980D02*
X900Y1980D01*
X1034Y1980D02*
X1078Y1980D01*
X1112Y1980D02*
X1156Y1980D01*
X1309Y1980D02*
X1353Y1980D01*
X1506Y1980D02*
X1551Y1980D01*
X1584Y1980D02*
X1629Y1980D01*
X306Y1979D02*
X351Y1979D01*
X382Y1979D02*
X428Y1979D01*
X578Y1979D02*
X628Y1979D01*
X778Y1979D02*
X824Y1979D01*
X855Y1979D02*
X900Y1979D01*
X1034Y1979D02*
X1080Y1979D01*
X1110Y1979D02*
X1156Y1979D01*
X1307Y1979D02*
X1356Y1979D01*
X1506Y1979D02*
X1552Y1979D01*
X1583Y1979D02*
X1628Y1979D01*
X306Y1978D02*
X353Y1978D01*
X381Y1978D02*
X427Y1978D01*
X576Y1978D02*
X630Y1978D01*
X779Y1978D02*
X825Y1978D01*
X853Y1978D02*
X900Y1978D01*
X1034Y1978D02*
X1081Y1978D01*
X1109Y1978D02*
X1156Y1978D01*
X1304Y1978D02*
X1358Y1978D01*
X1507Y1978D02*
X1554Y1978D01*
X1581Y1978D02*
X1628Y1978D01*
X307Y1977D02*
X355Y1977D01*
X379Y1977D02*
X427Y1977D01*
X574Y1977D02*
X632Y1977D01*
X779Y1977D02*
X827Y1977D01*
X851Y1977D02*
X899Y1977D01*
X1035Y1977D02*
X1083Y1977D01*
X1107Y1977D02*
X1155Y1977D01*
X1302Y1977D02*
X1360Y1977D01*
X1507Y1977D02*
X1555Y1977D01*
X1579Y1977D02*
X1628Y1977D01*
X307Y1976D02*
X357Y1976D01*
X377Y1976D02*
X427Y1976D01*
X572Y1976D02*
X634Y1976D01*
X779Y1976D02*
X829Y1976D01*
X849Y1976D02*
X899Y1976D01*
X1035Y1976D02*
X1085Y1976D01*
X1105Y1976D02*
X1155Y1976D01*
X1300Y1976D02*
X1362Y1976D01*
X1508Y1976D02*
X1558Y1976D01*
X1577Y1976D02*
X1627Y1976D01*
X307Y1975D02*
X360Y1975D01*
X374Y1975D02*
X426Y1975D01*
X571Y1975D02*
X635Y1975D01*
X780Y1975D02*
X832Y1975D01*
X846Y1975D02*
X899Y1975D01*
X1036Y1975D02*
X1088Y1975D01*
X1102Y1975D02*
X1155Y1975D01*
X1299Y1975D02*
X1364Y1975D01*
X1508Y1975D02*
X1560Y1975D01*
X1574Y1975D02*
X1627Y1975D01*
X308Y1974D02*
X426Y1974D01*
X569Y1974D02*
X637Y1974D01*
X780Y1974D02*
X898Y1974D01*
X1036Y1974D02*
X1154Y1974D01*
X1297Y1974D02*
X1365Y1974D01*
X1508Y1974D02*
X1626Y1974D01*
X308Y1973D02*
X425Y1973D01*
X567Y1973D02*
X639Y1973D01*
X781Y1973D02*
X898Y1973D01*
X1036Y1973D02*
X1154Y1973D01*
X1296Y1973D02*
X1367Y1973D01*
X1509Y1973D02*
X1626Y1973D01*
X309Y1972D02*
X425Y1972D01*
X566Y1972D02*
X640Y1972D01*
X781Y1972D02*
X897Y1972D01*
X1037Y1972D02*
X1153Y1972D01*
X1294Y1972D02*
X1368Y1972D01*
X1509Y1972D02*
X1625Y1972D01*
X309Y1971D02*
X424Y1971D01*
X565Y1971D02*
X641Y1971D01*
X782Y1971D02*
X897Y1971D01*
X1037Y1971D02*
X1153Y1971D01*
X1293Y1971D02*
X1370Y1971D01*
X1510Y1971D02*
X1625Y1971D01*
X310Y1970D02*
X424Y1970D01*
X563Y1970D02*
X643Y1970D01*
X782Y1970D02*
X896Y1970D01*
X1038Y1970D02*
X1152Y1970D01*
X1292Y1970D02*
X1371Y1970D01*
X1510Y1970D02*
X1625Y1970D01*
X310Y1969D02*
X423Y1969D01*
X562Y1969D02*
X644Y1969D01*
X783Y1969D02*
X896Y1969D01*
X1038Y1969D02*
X1152Y1969D01*
X1290Y1969D02*
X1372Y1969D01*
X1511Y1969D02*
X1624Y1969D01*
X311Y1968D02*
X423Y1968D01*
X561Y1968D02*
X645Y1968D01*
X783Y1968D02*
X895Y1968D01*
X1039Y1968D02*
X1151Y1968D01*
X1289Y1968D02*
X1373Y1968D01*
X1511Y1968D02*
X1623Y1968D01*
X311Y1967D02*
X422Y1967D01*
X560Y1967D02*
X646Y1967D01*
X784Y1967D02*
X894Y1967D01*
X1040Y1967D02*
X1150Y1967D01*
X1288Y1967D02*
X1374Y1967D01*
X1512Y1967D02*
X1623Y1967D01*
X312Y1966D02*
X422Y1966D01*
X559Y1966D02*
X647Y1966D01*
X784Y1966D02*
X894Y1966D01*
X1040Y1966D02*
X1150Y1966D01*
X1287Y1966D02*
X1376Y1966D01*
X1513Y1966D02*
X1622Y1966D01*
X313Y1965D02*
X421Y1965D01*
X557Y1965D02*
X648Y1965D01*
X785Y1965D02*
X893Y1965D01*
X1041Y1965D02*
X1149Y1965D01*
X1286Y1965D02*
X1377Y1965D01*
X1513Y1965D02*
X1622Y1965D01*
X313Y1964D02*
X420Y1964D01*
X557Y1964D02*
X649Y1964D01*
X786Y1964D02*
X893Y1964D01*
X1041Y1964D02*
X1149Y1964D01*
X1285Y1964D02*
X1378Y1964D01*
X1514Y1964D02*
X1621Y1964D01*
X314Y1963D02*
X420Y1963D01*
X556Y1963D02*
X650Y1963D01*
X786Y1963D02*
X892Y1963D01*
X1042Y1963D02*
X1148Y1963D01*
X1284Y1963D02*
X1378Y1963D01*
X1515Y1963D02*
X1620Y1963D01*
X315Y1962D02*
X419Y1962D01*
X555Y1962D02*
X651Y1962D01*
X787Y1962D02*
X891Y1962D01*
X1043Y1962D02*
X1147Y1962D01*
X1283Y1962D02*
X1379Y1962D01*
X1515Y1962D02*
X1620Y1962D01*
X315Y1961D02*
X418Y1961D01*
X554Y1961D02*
X652Y1961D01*
X788Y1961D02*
X890Y1961D01*
X1044Y1961D02*
X1146Y1961D01*
X1282Y1961D02*
X1380Y1961D01*
X1516Y1961D02*
X1619Y1961D01*
X316Y1960D02*
X417Y1960D01*
X553Y1960D02*
X653Y1960D01*
X788Y1960D02*
X890Y1960D01*
X1044Y1960D02*
X1146Y1960D01*
X1281Y1960D02*
X1381Y1960D01*
X1517Y1960D02*
X1618Y1960D01*
X317Y1959D02*
X417Y1959D01*
X552Y1959D02*
X654Y1959D01*
X789Y1959D02*
X889Y1959D01*
X1045Y1959D02*
X1145Y1959D01*
X1281Y1959D02*
X1382Y1959D01*
X1517Y1959D02*
X1617Y1959D01*
X318Y1958D02*
X416Y1958D01*
X552Y1958D02*
X654Y1958D01*
X790Y1958D02*
X888Y1958D01*
X1046Y1958D02*
X1144Y1958D01*
X1280Y1958D02*
X1383Y1958D01*
X1518Y1958D02*
X1616Y1958D01*
X319Y1957D02*
X415Y1957D01*
X551Y1957D02*
X655Y1957D01*
X791Y1957D02*
X887Y1957D01*
X1047Y1957D02*
X1143Y1957D01*
X1279Y1957D02*
X1383Y1957D01*
X1519Y1957D02*
X1616Y1957D01*
X319Y1956D02*
X414Y1956D01*
X550Y1956D02*
X656Y1956D01*
X792Y1956D02*
X886Y1956D01*
X1048Y1956D02*
X1142Y1956D01*
X1278Y1956D02*
X1384Y1956D01*
X1520Y1956D02*
X1615Y1956D01*
X320Y1955D02*
X413Y1955D01*
X549Y1955D02*
X656Y1955D01*
X793Y1955D02*
X886Y1955D01*
X1049Y1955D02*
X1141Y1955D01*
X1278Y1955D02*
X1385Y1955D01*
X1521Y1955D02*
X1614Y1955D01*
X321Y1954D02*
X412Y1954D01*
X549Y1954D02*
X657Y1954D01*
X794Y1954D02*
X885Y1954D01*
X1050Y1954D02*
X1141Y1954D01*
X1277Y1954D02*
X1385Y1954D01*
X1522Y1954D02*
X1613Y1954D01*
X322Y1953D02*
X411Y1953D01*
X548Y1953D02*
X658Y1953D01*
X795Y1953D02*
X884Y1953D01*
X1051Y1953D02*
X1139Y1953D01*
X1276Y1953D02*
X1386Y1953D01*
X1523Y1953D02*
X1612Y1953D01*
X323Y1952D02*
X410Y1952D01*
X548Y1952D02*
X658Y1952D01*
X796Y1952D02*
X882Y1952D01*
X1052Y1952D02*
X1138Y1952D01*
X1276Y1952D02*
X1387Y1952D01*
X1524Y1952D02*
X1611Y1952D01*
X325Y1951D02*
X409Y1951D01*
X547Y1951D02*
X659Y1951D01*
X797Y1951D02*
X881Y1951D01*
X1053Y1951D02*
X1137Y1951D01*
X1275Y1951D02*
X1387Y1951D01*
X1525Y1951D02*
X1610Y1951D01*
X326Y1950D02*
X408Y1950D01*
X546Y1950D02*
X660Y1950D01*
X798Y1950D02*
X880Y1950D01*
X1054Y1950D02*
X1136Y1950D01*
X1275Y1950D02*
X1388Y1950D01*
X1526Y1950D02*
X1608Y1950D01*
X327Y1949D02*
X406Y1949D01*
X546Y1949D02*
X660Y1949D01*
X799Y1949D02*
X879Y1949D01*
X1055Y1949D02*
X1135Y1949D01*
X1274Y1949D02*
X1388Y1949D01*
X1528Y1949D02*
X1607Y1949D01*
X328Y1948D02*
X405Y1948D01*
X545Y1948D02*
X661Y1948D01*
X801Y1948D02*
X877Y1948D01*
X1057Y1948D02*
X1133Y1948D01*
X1274Y1948D02*
X1389Y1948D01*
X1529Y1948D02*
X1606Y1948D01*
X330Y1947D02*
X404Y1947D01*
X545Y1947D02*
X661Y1947D01*
X802Y1947D02*
X876Y1947D01*
X1058Y1947D02*
X1132Y1947D01*
X1273Y1947D02*
X1389Y1947D01*
X1530Y1947D02*
X1604Y1947D01*
X331Y1946D02*
X402Y1946D01*
X544Y1946D02*
X661Y1946D01*
X803Y1946D02*
X875Y1946D01*
X1059Y1946D02*
X1131Y1946D01*
X1273Y1946D02*
X1390Y1946D01*
X1532Y1946D02*
X1603Y1946D01*
X333Y1945D02*
X401Y1945D01*
X544Y1945D02*
X662Y1945D01*
X805Y1945D02*
X873Y1945D01*
X1061Y1945D02*
X1129Y1945D01*
X1272Y1945D02*
X1390Y1945D01*
X1533Y1945D02*
X1601Y1945D01*
X334Y1944D02*
X399Y1944D01*
X543Y1944D02*
X596Y1944D01*
X610Y1944D02*
X662Y1944D01*
X807Y1944D02*
X872Y1944D01*
X1063Y1944D02*
X1127Y1944D01*
X1272Y1944D02*
X1324Y1944D01*
X1338Y1944D02*
X1391Y1944D01*
X1535Y1944D02*
X1600Y1944D01*
X336Y1943D02*
X398Y1943D01*
X543Y1943D02*
X593Y1943D01*
X613Y1943D02*
X663Y1943D01*
X808Y1943D02*
X870Y1943D01*
X1064Y1943D02*
X1126Y1943D01*
X1271Y1943D02*
X1321Y1943D01*
X1341Y1943D02*
X1391Y1943D01*
X1537Y1943D02*
X1598Y1943D01*
X338Y1942D02*
X396Y1942D01*
X543Y1942D02*
X591Y1942D01*
X615Y1942D02*
X663Y1942D01*
X810Y1942D02*
X868Y1942D01*
X1066Y1942D02*
X1124Y1942D01*
X1271Y1942D02*
X1319Y1942D01*
X1343Y1942D02*
X1391Y1942D01*
X1539Y1942D02*
X1596Y1942D01*
X340Y1941D02*
X394Y1941D01*
X542Y1941D02*
X589Y1941D01*
X617Y1941D02*
X663Y1941D01*
X812Y1941D02*
X866Y1941D01*
X1068Y1941D02*
X1122Y1941D01*
X1271Y1941D02*
X1317Y1941D01*
X1345Y1941D02*
X1392Y1941D01*
X1541Y1941D02*
X1594Y1941D01*
X342Y1940D02*
X391Y1940D01*
X542Y1940D02*
X588Y1940D01*
X618Y1940D02*
X664Y1940D01*
X814Y1940D02*
X864Y1940D01*
X1070Y1940D02*
X1120Y1940D01*
X1270Y1940D02*
X1316Y1940D01*
X1347Y1940D02*
X1392Y1940D01*
X1543Y1940D02*
X1592Y1940D01*
X345Y1939D02*
X389Y1939D01*
X542Y1939D02*
X586Y1939D01*
X619Y1939D02*
X664Y1939D01*
X817Y1939D02*
X861Y1939D01*
X1073Y1939D02*
X1117Y1939D01*
X1270Y1939D02*
X1315Y1939D01*
X1348Y1939D02*
X1392Y1939D01*
X1545Y1939D02*
X1589Y1939D01*
X348Y1938D02*
X386Y1938D01*
X541Y1938D02*
X585Y1938D01*
X621Y1938D02*
X664Y1938D01*
X820Y1938D02*
X858Y1938D01*
X1076Y1938D02*
X1114Y1938D01*
X1270Y1938D02*
X1314Y1938D01*
X1349Y1938D02*
X1393Y1938D01*
X1548Y1938D02*
X1587Y1938D01*
X351Y1937D02*
X382Y1937D01*
X541Y1937D02*
X584Y1937D01*
X622Y1937D02*
X665Y1937D01*
X824Y1937D02*
X854Y1937D01*
X1080Y1937D02*
X1110Y1937D01*
X1269Y1937D02*
X1312Y1937D01*
X1350Y1937D02*
X1393Y1937D01*
X1552Y1937D02*
X1583Y1937D01*
X356Y1936D02*
X377Y1936D01*
X541Y1936D02*
X583Y1936D01*
X623Y1936D02*
X665Y1936D01*
X828Y1936D02*
X850Y1936D01*
X1084Y1936D02*
X1106Y1936D01*
X1269Y1936D02*
X1312Y1936D01*
X1351Y1936D02*
X1393Y1936D01*
X1557Y1936D02*
X1578Y1936D01*
X365Y1935D02*
X368Y1935D01*
X541Y1935D02*
X582Y1935D01*
X623Y1935D02*
X665Y1935D01*
X838Y1935D02*
X841Y1935D01*
X1094Y1935D02*
X1096Y1935D01*
X1269Y1935D02*
X1311Y1935D01*
X1352Y1935D02*
X1394Y1935D01*
X1566Y1935D02*
X1569Y1935D01*
X540Y1934D02*
X582Y1934D01*
X624Y1934D02*
X666Y1934D01*
X1269Y1934D02*
X1310Y1934D01*
X1353Y1934D02*
X1394Y1934D01*
X540Y1933D02*
X581Y1933D01*
X625Y1933D02*
X666Y1933D01*
X1268Y1933D02*
X1309Y1933D01*
X1353Y1933D02*
X1394Y1933D01*
X540Y1932D02*
X580Y1932D01*
X626Y1932D02*
X666Y1932D01*
X1268Y1932D02*
X1309Y1932D01*
X1354Y1932D02*
X1394Y1932D01*
X540Y1931D02*
X580Y1931D01*
X626Y1931D02*
X666Y1931D01*
X1268Y1931D02*
X1308Y1931D01*
X1354Y1931D02*
X1394Y1931D01*
X540Y1930D02*
X579Y1930D01*
X627Y1930D02*
X666Y1930D01*
X1268Y1930D02*
X1308Y1930D01*
X1355Y1930D02*
X1395Y1930D01*
X539Y1929D02*
X579Y1929D01*
X627Y1929D02*
X666Y1929D01*
X1268Y1929D02*
X1307Y1929D01*
X1355Y1929D02*
X1395Y1929D01*
X539Y1928D02*
X578Y1928D01*
X627Y1928D02*
X667Y1928D01*
X1268Y1928D02*
X1307Y1928D01*
X1356Y1928D02*
X1395Y1928D01*
X539Y1927D02*
X578Y1927D01*
X628Y1927D02*
X667Y1927D01*
X1267Y1927D02*
X1306Y1927D01*
X1356Y1927D02*
X1395Y1927D01*
X539Y1926D02*
X578Y1926D01*
X628Y1926D02*
X667Y1926D01*
X1267Y1926D02*
X1306Y1926D01*
X1356Y1926D02*
X1395Y1926D01*
X539Y1925D02*
X577Y1925D01*
X628Y1925D02*
X667Y1925D01*
X1267Y1925D02*
X1306Y1925D01*
X1357Y1925D02*
X1395Y1925D01*
X539Y1924D02*
X577Y1924D01*
X629Y1924D02*
X667Y1924D01*
X1267Y1924D02*
X1305Y1924D01*
X1357Y1924D02*
X1395Y1924D01*
X539Y1923D02*
X577Y1923D01*
X629Y1923D02*
X667Y1923D01*
X1267Y1923D02*
X1305Y1923D01*
X1357Y1923D02*
X1395Y1923D01*
X539Y1922D02*
X577Y1922D01*
X629Y1922D02*
X667Y1922D01*
X1267Y1922D02*
X1305Y1922D01*
X1357Y1922D02*
X1395Y1922D01*
X539Y1921D02*
X577Y1921D01*
X629Y1921D02*
X667Y1921D01*
X1267Y1921D02*
X1305Y1921D01*
X1357Y1921D02*
X1396Y1921D01*
X539Y1920D02*
X577Y1920D01*
X629Y1920D02*
X667Y1920D01*
X1267Y1920D02*
X1305Y1920D01*
X1357Y1920D02*
X1396Y1920D01*
X538Y1919D02*
X577Y1919D01*
X629Y1919D02*
X667Y1919D01*
X1267Y1919D02*
X1305Y1919D01*
X1357Y1919D02*
X1396Y1919D01*
X539Y1918D02*
X577Y1918D01*
X629Y1918D02*
X667Y1918D01*
X1267Y1918D02*
X1305Y1918D01*
X1357Y1918D02*
X1396Y1918D01*
X539Y1917D02*
X577Y1917D01*
X629Y1917D02*
X667Y1917D01*
X1267Y1917D02*
X1305Y1917D01*
X1357Y1917D02*
X1396Y1917D01*
X539Y1916D02*
X577Y1916D01*
X629Y1916D02*
X667Y1916D01*
X1267Y1916D02*
X1305Y1916D01*
X1357Y1916D02*
X1395Y1916D01*
X539Y1915D02*
X577Y1915D01*
X629Y1915D02*
X667Y1915D01*
X1267Y1915D02*
X1305Y1915D01*
X1357Y1915D02*
X1395Y1915D01*
X539Y1914D02*
X577Y1914D01*
X629Y1914D02*
X667Y1914D01*
X1267Y1914D02*
X1306Y1914D01*
X1357Y1914D02*
X1395Y1914D01*
X539Y1913D02*
X578Y1913D01*
X628Y1913D02*
X667Y1913D01*
X1267Y1913D02*
X1306Y1913D01*
X1357Y1913D02*
X1395Y1913D01*
X539Y1912D02*
X578Y1912D01*
X628Y1912D02*
X667Y1912D01*
X1267Y1912D02*
X1306Y1912D01*
X1356Y1912D02*
X1395Y1912D01*
X539Y1911D02*
X578Y1911D01*
X628Y1911D02*
X667Y1911D01*
X1267Y1911D02*
X1306Y1911D01*
X1356Y1911D02*
X1395Y1911D01*
X539Y1910D02*
X579Y1910D01*
X627Y1910D02*
X667Y1910D01*
X1268Y1910D02*
X1307Y1910D01*
X1356Y1910D02*
X1395Y1910D01*
X539Y1909D02*
X579Y1909D01*
X627Y1909D02*
X666Y1909D01*
X1268Y1909D02*
X1307Y1909D01*
X1355Y1909D02*
X1395Y1909D01*
X540Y1908D02*
X579Y1908D01*
X626Y1908D02*
X666Y1908D01*
X1268Y1908D02*
X1308Y1908D01*
X1355Y1908D02*
X1395Y1908D01*
X540Y1907D02*
X580Y1907D01*
X626Y1907D02*
X666Y1907D01*
X1268Y1907D02*
X1308Y1907D01*
X1354Y1907D02*
X1394Y1907D01*
X540Y1906D02*
X580Y1906D01*
X625Y1906D02*
X666Y1906D01*
X1268Y1906D02*
X1309Y1906D01*
X1354Y1906D02*
X1394Y1906D01*
X540Y1905D02*
X581Y1905D01*
X625Y1905D02*
X666Y1905D01*
X1268Y1905D02*
X1309Y1905D01*
X1353Y1905D02*
X1394Y1905D01*
X540Y1904D02*
X582Y1904D01*
X624Y1904D02*
X665Y1904D01*
X1269Y1904D02*
X1310Y1904D01*
X1352Y1904D02*
X1394Y1904D01*
X541Y1903D02*
X583Y1903D01*
X623Y1903D02*
X665Y1903D01*
X1269Y1903D02*
X1311Y1903D01*
X1352Y1903D02*
X1393Y1903D01*
X541Y1902D02*
X583Y1902D01*
X622Y1902D02*
X665Y1902D01*
X1269Y1902D02*
X1312Y1902D01*
X1351Y1902D02*
X1393Y1902D01*
X541Y1901D02*
X584Y1901D01*
X621Y1901D02*
X665Y1901D01*
X1269Y1901D02*
X1313Y1901D01*
X1350Y1901D02*
X1393Y1901D01*
X541Y1900D02*
X586Y1900D01*
X620Y1900D02*
X664Y1900D01*
X1270Y1900D02*
X1314Y1900D01*
X1349Y1900D02*
X1393Y1900D01*
X542Y1899D02*
X587Y1899D01*
X619Y1899D02*
X664Y1899D01*
X1270Y1899D02*
X1315Y1899D01*
X1347Y1899D02*
X1392Y1899D01*
X542Y1898D02*
X588Y1898D01*
X618Y1898D02*
X664Y1898D01*
X1270Y1898D02*
X1316Y1898D01*
X1346Y1898D02*
X1392Y1898D01*
X542Y1897D02*
X590Y1897D01*
X616Y1897D02*
X663Y1897D01*
X1271Y1897D02*
X1318Y1897D01*
X1344Y1897D02*
X1392Y1897D01*
X543Y1896D02*
X592Y1896D01*
X614Y1896D02*
X663Y1896D01*
X1271Y1896D02*
X1320Y1896D01*
X1343Y1896D02*
X1391Y1896D01*
X543Y1895D02*
X594Y1895D01*
X612Y1895D02*
X663Y1895D01*
X1271Y1895D02*
X1322Y1895D01*
X1340Y1895D02*
X1391Y1895D01*
X544Y1894D02*
X597Y1894D01*
X609Y1894D02*
X662Y1894D01*
X1272Y1894D02*
X1325Y1894D01*
X1337Y1894D02*
X1391Y1894D01*
X544Y1893D02*
X662Y1893D01*
X1272Y1893D02*
X1390Y1893D01*
X544Y1892D02*
X661Y1892D01*
X1273Y1892D02*
X1390Y1892D01*
X545Y1891D02*
X661Y1891D01*
X1273Y1891D02*
X1389Y1891D01*
X545Y1890D02*
X660Y1890D01*
X1274Y1890D02*
X1389Y1890D01*
X546Y1889D02*
X660Y1889D01*
X1274Y1889D02*
X1388Y1889D01*
X546Y1888D02*
X659Y1888D01*
X1275Y1888D02*
X1388Y1888D01*
X547Y1887D02*
X659Y1887D01*
X1275Y1887D02*
X1387Y1887D01*
X548Y1886D02*
X658Y1886D01*
X1276Y1886D02*
X1386Y1886D01*
X548Y1885D02*
X658Y1885D01*
X1277Y1885D02*
X1386Y1885D01*
X549Y1884D02*
X657Y1884D01*
X1277Y1884D02*
X1385Y1884D01*
X550Y1883D02*
X656Y1883D01*
X1278Y1883D02*
X1385Y1883D01*
X550Y1882D02*
X656Y1882D01*
X1279Y1882D02*
X1384Y1882D01*
X551Y1881D02*
X655Y1881D01*
X1279Y1881D02*
X1383Y1881D01*
X552Y1880D02*
X654Y1880D01*
X1280Y1880D02*
X1382Y1880D01*
X553Y1879D02*
X653Y1879D01*
X1281Y1879D02*
X1382Y1879D01*
X553Y1878D02*
X653Y1878D01*
X1282Y1878D02*
X1381Y1878D01*
X554Y1877D02*
X652Y1877D01*
X1282Y1877D02*
X1380Y1877D01*
X555Y1876D02*
X651Y1876D01*
X1283Y1876D02*
X1379Y1876D01*
X556Y1875D02*
X650Y1875D01*
X1284Y1875D02*
X1378Y1875D01*
X557Y1874D02*
X649Y1874D01*
X1285Y1874D02*
X1377Y1874D01*
X558Y1873D02*
X648Y1873D01*
X1286Y1873D02*
X1376Y1873D01*
X559Y1872D02*
X647Y1872D01*
X1287Y1872D02*
X1375Y1872D01*
X560Y1871D02*
X646Y1871D01*
X1288Y1871D02*
X1374Y1871D01*
X561Y1870D02*
X645Y1870D01*
X1289Y1870D02*
X1373Y1870D01*
X562Y1869D02*
X644Y1869D01*
X1291Y1869D02*
X1372Y1869D01*
X564Y1868D02*
X642Y1868D01*
X1292Y1868D02*
X1371Y1868D01*
X565Y1867D02*
X641Y1867D01*
X1293Y1867D02*
X1369Y1867D01*
X566Y1866D02*
X640Y1866D01*
X1295Y1866D02*
X1368Y1866D01*
X568Y1865D02*
X638Y1865D01*
X1296Y1865D02*
X1366Y1865D01*
X569Y1864D02*
X636Y1864D01*
X1298Y1864D02*
X1365Y1864D01*
X571Y1863D02*
X635Y1863D01*
X1299Y1863D02*
X1363Y1863D01*
X573Y1862D02*
X633Y1862D01*
X1301Y1862D02*
X1361Y1862D01*
X575Y1861D02*
X631Y1861D01*
X1303Y1861D02*
X1359Y1861D01*
X577Y1860D02*
X629Y1860D01*
X1305Y1860D02*
X1357Y1860D01*
X579Y1859D02*
X627Y1859D01*
X1307Y1859D02*
X1355Y1859D01*
X582Y1858D02*
X624Y1858D01*
X1310Y1858D02*
X1352Y1858D01*
X585Y1857D02*
X621Y1857D01*
X1313Y1857D02*
X1349Y1857D01*
X589Y1856D02*
X617Y1856D01*
X1317Y1856D02*
X1345Y1856D01*
X594Y1855D02*
X612Y1855D01*
X1322Y1855D02*
X1340Y1855D01*
X3699Y1691D02*
X3763Y1691D01*
X3699Y1690D02*
X3763Y1690D01*
X3699Y1689D02*
X3763Y1689D01*
X3699Y1688D02*
X3763Y1688D01*
X3699Y1687D02*
X3763Y1687D01*
X3699Y1686D02*
X3763Y1686D01*
X3699Y1685D02*
X3763Y1685D01*
X3699Y1684D02*
X3763Y1684D01*
X3699Y1683D02*
X3763Y1683D01*
X3699Y1682D02*
X3763Y1682D01*
X3699Y1681D02*
X3763Y1681D01*
X3699Y1680D02*
X3763Y1680D01*
X3699Y1679D02*
X3763Y1679D01*
X3699Y1678D02*
X3763Y1678D01*
X3699Y1677D02*
X3763Y1677D01*
X3699Y1676D02*
X3763Y1676D01*
X3699Y1675D02*
X3763Y1675D01*
X3699Y1674D02*
X3763Y1674D01*
X3699Y1673D02*
X3763Y1673D01*
X3699Y1672D02*
X3726Y1672D01*
X3736Y1672D02*
X3763Y1672D01*
X3699Y1671D02*
X3724Y1671D01*
X3738Y1671D02*
X3763Y1671D01*
X3699Y1670D02*
X3722Y1670D01*
X3740Y1670D02*
X3763Y1670D01*
X3699Y1669D02*
X3721Y1669D01*
X3741Y1669D02*
X3763Y1669D01*
X3699Y1668D02*
X3720Y1668D01*
X3742Y1668D02*
X3763Y1668D01*
X3699Y1667D02*
X3719Y1667D01*
X3743Y1667D02*
X3763Y1667D01*
X3699Y1666D02*
X3719Y1666D01*
X3743Y1666D02*
X3763Y1666D01*
X3699Y1665D02*
X3718Y1665D01*
X3744Y1665D02*
X3763Y1665D01*
X3699Y1664D02*
X3718Y1664D01*
X3744Y1664D02*
X3763Y1664D01*
X3699Y1663D02*
X3717Y1663D01*
X3745Y1663D02*
X3763Y1663D01*
X3699Y1662D02*
X3717Y1662D01*
X3745Y1662D02*
X3763Y1662D01*
X3699Y1661D02*
X3717Y1661D01*
X3745Y1661D02*
X3763Y1661D01*
X3699Y1660D02*
X3717Y1660D01*
X3745Y1660D02*
X3763Y1660D01*
X3699Y1659D02*
X3717Y1659D01*
X3745Y1659D02*
X3763Y1659D01*
X3699Y1658D02*
X3717Y1658D01*
X3745Y1658D02*
X3763Y1658D01*
X3699Y1657D02*
X3717Y1657D01*
X3745Y1657D02*
X3763Y1657D01*
X3699Y1656D02*
X3717Y1656D01*
X3745Y1656D02*
X3763Y1656D01*
X3699Y1655D02*
X3717Y1655D01*
X3745Y1655D02*
X3763Y1655D01*
X3699Y1654D02*
X3718Y1654D01*
X3744Y1654D02*
X3763Y1654D01*
X3699Y1653D02*
X3718Y1653D01*
X3744Y1653D02*
X3763Y1653D01*
X3699Y1652D02*
X3719Y1652D01*
X3743Y1652D02*
X3763Y1652D01*
X3699Y1651D02*
X3719Y1651D01*
X3743Y1651D02*
X3763Y1651D01*
X3699Y1650D02*
X3720Y1650D01*
X3742Y1650D02*
X3763Y1650D01*
X3699Y1649D02*
X3721Y1649D01*
X3741Y1649D02*
X3763Y1649D01*
X3699Y1648D02*
X3722Y1648D01*
X3740Y1648D02*
X3763Y1648D01*
X3699Y1647D02*
X3724Y1647D01*
X3738Y1647D02*
X3763Y1647D01*
X3699Y1646D02*
X3727Y1646D01*
X3735Y1646D02*
X3763Y1646D01*
X3699Y1645D02*
X3763Y1645D01*
X3699Y1644D02*
X3763Y1644D01*
X3699Y1643D02*
X3763Y1643D01*
X3699Y1642D02*
X3763Y1642D01*
X3699Y1641D02*
X3763Y1641D01*
X3699Y1640D02*
X3763Y1640D01*
X3699Y1639D02*
X3763Y1639D01*
X3699Y1638D02*
X3763Y1638D01*
X3699Y1637D02*
X3763Y1637D01*
X3699Y1636D02*
X3763Y1636D01*
X3699Y1635D02*
X3763Y1635D01*
X3699Y1634D02*
X3763Y1634D01*
X3699Y1633D02*
X3763Y1633D01*
X3699Y1632D02*
X3763Y1632D01*
X3699Y1631D02*
X3763Y1631D01*
X3699Y1630D02*
X3763Y1630D01*
X3699Y1629D02*
X3763Y1629D01*
X3699Y1628D02*
X3763Y1628D01*
X3699Y1627D02*
X3763Y1627D01*
D02*
G04 End of Copper1*
M02*