; NON-PLATED HOLES START AT T1
; THROUGH (PLATED) HOLES START AT T100
M48
INCH
T1C0.125984
T100C0.030000
T101C0.039370
T102C0.041686
T103C0.035000
T104C0.042000
T105C0.031000
T106C0.031497
T107C0.035433
T108C0.031496
T109C0.028000
T110C0.038000
T111C0.027559
T112C0.051181
T113C0.031555
T114C0.059055
%
T1
X070727Y034843
X055963Y001378
X070727Y015551
X001026Y035039
X055963Y035039
X058522Y015551
X001026Y001378
X058522Y034843
T100
X033409Y011256
X027116Y019335
X031071Y018154
X029102Y018154
X030069Y018154
X034411Y011256
X028118Y019335
X028127Y025447
X027125Y025447
X040513Y016589
X040513Y015587
X028100Y018154
T101
X066133Y020302
X060569Y024313
X060569Y020313
X066133Y024302
T102
X027537Y010996
X027537Y008911
X027537Y009953
X035642Y004743
X035642Y005785
X035642Y006827
X027537Y006827
X035642Y007870
X027537Y007870
X035642Y008911
X027537Y005785
X035642Y009953
T103
X036318Y032545
X044844Y014781
X045774Y005315
X024765Y009075
X053254Y012598
X041694Y017620
X041694Y018951
X036318Y031545
X062065Y022291
X025112Y020675
X063574Y025767
X033318Y031545
X007442Y013630
X030112Y023675
X024270Y028399
X031086Y027784
X017285Y010728
X046955Y010236
X024112Y020675
X010710Y017376
X065936Y028767
X015415Y014252
X026143Y010272
X047734Y004187
X008426Y017376
X004442Y013630
X053254Y006102
X026112Y020675
X034112Y023675
X015415Y011252
X045891Y028990
X023112Y023675
X021270Y031693
X063521Y021250
X010001Y013242
X005720Y015337
X024270Y029399
X027112Y020675
X034112Y020675
X030969Y029162
X009804Y015211
X033969Y029162
X045238Y027809
X020727Y010630
X060372Y028778
X026143Y014272
X069086Y028767
X026537Y031746
X022112Y020675
X024765Y008075
X021270Y028399
X021112Y023675
X041891Y028990
X060372Y025778
X024270Y031693
X020727Y019095
X038694Y018951
X021270Y029399
X023286Y015158
X041104Y008549
X041694Y014620
X028899Y031549
X042434Y025644
X022112Y023675
X063521Y024250
X032112Y020675
X025112Y023675
X034086Y027784
X069086Y021239
X051734Y004187
X041104Y006549
X041104Y007549
X003426Y017376
X014415Y011252
X068117Y022318
X026537Y030746
X030277Y008760
X029112Y023675
X024765Y010075
X033318Y032545
X024270Y030693
X063574Y028767
X027112Y023675
X031112Y020675
X004588Y012517
X031899Y031549
X003588Y009517
X021112Y020675
X065936Y025767
X045434Y025644
X050254Y006102
X022498Y016536
X022498Y019095
X011804Y015211
X017285Y006728
X024112Y023675
X068117Y019318
X006720Y015337
X004720Y015337
X029112Y020675
X033112Y023675
X043955Y010236
X020727Y015630
X021270Y030693
X028112Y023675
X050254Y012598
X010804Y015211
X044844Y017781
X020727Y016536
X069086Y024239
X031112Y023675
X003588Y012517
X062065Y019291
X013001Y013242
X030112Y020675
X014415Y014252
X030277Y004760
X026112Y023675
X023680Y011024
X033112Y020675
X004588Y009517
X036331Y029753
X042774Y005315
X069086Y025767
X015710Y017376
X032112Y023675
X026537Y029384
X042238Y027809
X036331Y026753
X026537Y028384
X028112Y020675
X023112Y020675
T104
X037167Y019524
X045136Y021032
X043663Y017770
X040513Y021691
X037167Y025524
X043663Y011770
X040513Y022691
X037860Y031937
X045136Y023032
X043860Y031937
X040513Y020691
X045136Y022032
T105
X051234Y014963
X050254Y014963
X051234Y015753
X051234Y014173
X050254Y015753
X050254Y014173
T106
X007442Y009496
X014923Y008500
X014923Y007516
X039332Y028990
X008427Y009496
X040316Y028990
T107
X040075Y010683
X042875Y010683
T108
X029133Y015985
X061947Y027203
X067511Y024240
X067511Y027192
X061947Y024250
T109
X051952Y019926
X051946Y017984
X053683Y019963
X053702Y017967
T110
X034001Y018557
X035001Y018557
X033001Y018557
X024270Y017126
X025270Y017126
T111
X052026Y025394
X048483Y018473
X018562Y031299
X051829Y022638
X063983Y017153
X023876Y025788
X018562Y029724
X018562Y028937
X023089Y025788
X048483Y020473
X066346Y017153
X051829Y023425
X018562Y030512
X046711Y006693
X037317Y014587
X037317Y016587
X052026Y026969
X065558Y017153
X064771Y017153
X047499Y006693
X052026Y026181
T112
X015680Y024777
X003672Y019994
X010956Y024777
X003672Y024777
X006034Y019187
X008396Y019994
X013318Y019187
X008396Y024777
X015680Y019994
X010956Y019994
T113
X031064Y015985
T114
X064739Y031326
X008074Y030762
X062739Y031326
X066739Y031326
X051239Y010827
X010074Y030762
X006074Y030762
X051239Y008827
X050915Y030762
X052915Y030762
T00
M30
