; NON-PLATED HOLES START AT T1
; THROUGH (PLATED) HOLES START AT T100
M48
INCH
T1C0.125984
T100C0.059055
T101C0.041686
T102C0.051181
T103C0.035000
T104C0.035433
T105C0.030000
T106C0.031497
T107C0.031496
T108C0.039370
T109C0.027559
T110C0.038000
T111C0.061111
T112C0.031555
T113C0.047702
T114C0.031000
T115C0.042000
T116C0.044094
%
T1
X001442Y001568
X037017Y001600
X043907Y013018
X001387Y032309
X043907Y001610
X070876Y032112
X043907Y016167
X040703Y032309
X070876Y016167
X043907Y032104
X070876Y001600
X070876Y013018
T100
X055718Y029750
X038203Y025439
X065561Y029750
X034083Y004538
X032083Y004538
X066936Y008159
X053718Y029750
X066936Y004159
X051718Y029750
X038203Y019439
X066936Y006159
X066936Y010159
X067561Y029750
X038203Y028439
X038203Y022439
T101
X003405Y005238
X011511Y005238
X003405Y007321
X003405Y004195
X011511Y004195
X003405Y009406
X003405Y008364
X011511Y007321
X011511Y003154
X011511Y008364
X003405Y006280
X011511Y006280
T102
X061441Y008369
X056641Y006324
X061425Y001600
X055834Y003962
X061441Y013093
X061425Y006324
X056641Y001600
X056657Y013093
X055850Y010731
X056657Y008369
T103
X021210Y021086
X011940Y024987
X028966Y018168
X018848Y021432
X024163Y027795
X008972Y021491
X021466Y003175
X024163Y024795
X005972Y021491
X001604Y008963
X021184Y007829
X068556Y026994
X014972Y018491
X013789Y011246
X024227Y017084
X018848Y024432
X024227Y019069
X064384Y012316
X002588Y013294
X021227Y016122
X025353Y002304
X015972Y021491
X022393Y027059
X008693Y027987
X004621Y006395
X041236Y015450
X009838Y024039
X024227Y016122
X014517Y027188
X004972Y018491
X021227Y018085
X018013Y014983
X020413Y003451
X024163Y023795
X013972Y018491
X068907Y017349
X012811Y030420
X028354Y022267
X020423Y027826
X015819Y028514
X003972Y021491
X009864Y028013
X009864Y031013
X024163Y022795
X010811Y030420
X013742Y009671
X007093Y030422
X006588Y013294
X012972Y018491
X018959Y002274
X020423Y024826
X012838Y024039
X011972Y018491
X010940Y027987
X028966Y021168
X023238Y005734
X004460Y017310
X024210Y021086
X005972Y018491
X006093Y030422
X071072Y018530
X016972Y018491
X027163Y025795
X027163Y028795
X010940Y024987
X016289Y023629
X020120Y011246
X013972Y021491
X001604Y004963
X024227Y018085
X021210Y020102
X008093Y030422
X026228Y006395
X065556Y024829
X014789Y011246
X027163Y027795
X011972Y021491
X017864Y024582
X024210Y020102
X013612Y026435
X031354Y022267
X015959Y002274
X065907Y017349
X016742Y009671
X027163Y026795
X021227Y019069
X006621Y006395
X038236Y015450
X021227Y017084
X008972Y018491
X010972Y018491
X022184Y007829
X010972Y021491
X014972Y021491
X025029Y009404
X001571Y021504
X019428Y006451
X016289Y024629
X025029Y006404
X020423Y023464
X005621Y006395
X070072Y018530
X007693Y027987
X002688Y014751
X017864Y027582
X027163Y024795
X065323Y021483
X016819Y028514
X022393Y023059
X011811Y030420
X068323Y021483
X028353Y002304
X018120Y011246
X071072Y021530
X015972Y018491
X020423Y022464
X019428Y003451
X021466Y005734
X029228Y006395
X007693Y024987
X006972Y021491
X020184Y007829
X020413Y006451
X021013Y014983
X005541Y012112
X065556Y025805
X001571Y024504
X007972Y021491
X068556Y025805
X007972Y018491
X012972Y021491
X002688Y017310
X028164Y019075
X005541Y008112
X004972Y021491
X013612Y029435
X003972Y018491
X024163Y025795
X070072Y021530
X025164Y019075
X063198Y017349
X006972Y018491
X025147Y031519
X027163Y023795
X004460Y014751
X024163Y028795
X009972Y021491
X027163Y022795
X011940Y027987
X009972Y018491
X016972Y021491
X064384Y003851
X063198Y016349
X008693Y024987
X065556Y026994
X068556Y024829
X028147Y031519
X023238Y003175
X014517Y024188
X024163Y026795
T104
X055128Y018136
X025164Y018091
X053949Y009690
X049419Y020104
X053949Y001273
X028164Y018091
X053949Y004273
X053949Y012690
X045719Y020104
X055128Y021836
T105
X013002Y016251
X015502Y030123
X011051Y017432
X026183Y030329
X011034Y016251
X025181Y030329
X010050Y017432
X014004Y016251
X012036Y016251
X019325Y029323
X010051Y022546
X018323Y029323
X010527Y009938
X011053Y022546
X015502Y031125
X011529Y009938
T106
X002949Y022882
X002949Y023866
T107
X012067Y014082
T108
X065307Y023648
X069307Y023648
T109
X033479Y026423
X033479Y024423
T110
X002372Y029553
X016368Y017034
X005460Y026562
X012889Y006379
X030738Y029829
X003372Y029553
X028478Y012621
X018336Y031010
X029537Y003384
X024372Y003384
X036214Y016561
X036214Y007978
X025372Y010656
X007110Y016254
X037214Y007978
X018368Y017034
X017368Y017034
X037214Y016561
X029537Y010656
X028470Y014447
X033049Y007978
X028537Y010656
X025372Y003384
X028470Y029947
X022632Y014447
X066923Y018923
X033995Y020609
X023632Y014447
X004460Y026562
X003460Y026562
X017336Y031010
X061427Y029750
X008887Y013097
X012889Y007379
X038017Y031325
X024372Y010656
X007887Y013097
X037017Y031325
X029470Y014447
X004372Y029553
X022632Y029947
X053161Y007966
X065923Y018923
X060427Y029750
X059427Y029750
X032049Y016561
X028537Y003384
X033995Y021609
X067923Y018923
X032049Y007978
X023632Y029947
X053161Y006966
X031738Y029829
X006110Y016254
X029470Y029947
X002460Y026562
X019336Y031010
X029478Y012621
X053161Y005966
X033049Y016561
X015368Y017034
T111
X040251Y001572
X040251Y010332
T112
X013998Y014082
T113
X069897Y024829
X069897Y027782
T114
X035573Y028947
X035573Y031297
X041235Y014269
X040224Y014269
X033549Y028947
X040224Y011919
X039212Y011919
X033549Y031297
X039212Y014269
X034561Y028947
X034561Y031297
X041235Y011919
T115
X052175Y027120
X062860Y027984
X047639Y022144
X057545Y027984
X043907Y022144
X062860Y019984
X052175Y019120
X043907Y030144
X057545Y019984
X047703Y016244
X047639Y030144
X055703Y016244
T116
X060408Y018343
X058677Y018306
X058671Y016364
X060427Y016346
T00
M30
