G04 MADE WITH FRITZING*
G04 WWW.FRITZING.ORG*
G04 DOUBLE SIDED*
G04 HOLES PLATED*
G04 CONTOUR ON CENTER OF CONTOUR VECTOR*
%ASAXBY*%
%FSLAX23Y23*%
%MOIN*%
%OFA0B0*%
%SFA1.0B1.0*%
%ADD10C,0.078000*%
%ADD11C,0.138889*%
%ADD12C,0.075000*%
%ADD13C,0.050000*%
%ADD14C,0.062992*%
%ADD15C,0.074000*%
%ADD16C,0.137795*%
%ADD17C,0.077119*%
%ADD18C,0.082000*%
%ADD19C,0.065000*%
%ADD20C,0.070925*%
%ADD21C,0.070866*%
%ADD22C,0.070000*%
%ADD23C,0.129921*%
%ADD24C,0.077992*%
%ADD25C,0.094488*%
%ADD26R,0.075000X0.075000*%
%ADD27R,0.062992X0.062992*%
%ADD28R,0.137795X0.137795*%
%ADD29R,0.000276X0.000276*%
%ADD30R,0.001000X0.001000*%
%LNCOPPER1*%
G90*
G70*
G54D10*
X3721Y798D03*
X3621Y798D03*
X3305Y798D03*
X3205Y798D03*
X3721Y1656D03*
X3205Y1656D03*
X3305Y1656D03*
X3621Y1656D03*
G54D11*
X4025Y157D03*
X4025Y1033D03*
G54D10*
X2947Y1445D03*
X2263Y1445D03*
X2947Y2995D03*
X2263Y2995D03*
X2847Y2995D03*
X2363Y2995D03*
X2363Y1445D03*
X2847Y1445D03*
G54D12*
X6438Y1232D03*
X6438Y385D03*
X2416Y2880D03*
X2716Y2880D03*
X2416Y2780D03*
X2716Y2780D03*
X2416Y2680D03*
X2716Y2680D03*
X2416Y2580D03*
X2716Y2580D03*
X2416Y2480D03*
X2716Y2480D03*
X2416Y2380D03*
X2716Y2380D03*
X2416Y2280D03*
X2716Y2280D03*
G54D10*
X2954Y338D03*
X2854Y338D03*
X2537Y338D03*
X2437Y338D03*
X2954Y1066D03*
X2854Y1066D03*
X2537Y1066D03*
X2437Y1066D03*
G54D13*
X4022Y1192D03*
X4022Y1427D03*
X3921Y1427D03*
X4124Y1427D03*
X4124Y1192D03*
X3921Y1192D03*
X3456Y2895D03*
X3456Y3130D03*
X3355Y3130D03*
X3557Y3130D03*
X3557Y2895D03*
X3355Y2895D03*
G54D10*
X6143Y2975D03*
X6043Y2975D03*
X5943Y2975D03*
X5316Y597D03*
X5316Y697D03*
X5316Y797D03*
X6792Y1892D03*
X6692Y1892D03*
X6592Y1892D03*
X1934Y3101D03*
X1834Y3101D03*
X1734Y3101D03*
X437Y2955D03*
X337Y2955D03*
X237Y2955D03*
X546Y2656D03*
X446Y2656D03*
X346Y2656D03*
X246Y2656D03*
G54D14*
X295Y2288D03*
X295Y2387D03*
G54D15*
X5395Y427D03*
X5395Y127D03*
X5395Y427D03*
X5395Y127D03*
X2816Y1809D03*
X2516Y1809D03*
X2816Y1809D03*
X2516Y1809D03*
X5395Y969D03*
X5395Y1269D03*
X5395Y969D03*
X5395Y1269D03*
G54D12*
X4942Y2010D03*
X4572Y2010D03*
X4942Y2010D03*
X4572Y2010D03*
X5513Y1814D03*
X5513Y2184D03*
X5513Y1814D03*
X5513Y2184D03*
G54D10*
X3400Y2161D03*
X3400Y2061D03*
G54D16*
X3820Y1944D03*
X3820Y2244D03*
X3820Y2544D03*
X3820Y2844D03*
G54D17*
X1151Y315D03*
X1151Y420D03*
X1151Y524D03*
X1151Y628D03*
X1151Y732D03*
X1151Y836D03*
X341Y420D03*
X341Y524D03*
X341Y628D03*
X341Y732D03*
X341Y836D03*
X341Y941D03*
G54D12*
X2147Y318D03*
X2147Y573D03*
X2324Y318D03*
X2324Y573D03*
X269Y1475D03*
X269Y1731D03*
X446Y1475D03*
X446Y1731D03*
X6556Y2699D03*
X6856Y2699D03*
X6856Y2483D03*
X6556Y2483D03*
X6556Y2581D03*
X6856Y2581D03*
X6891Y1735D03*
X6591Y1735D03*
X6832Y2148D03*
X6532Y2148D03*
G54D10*
X6531Y2365D03*
X6931Y2365D03*
X6531Y2365D03*
X6931Y2365D03*
G54D12*
X1479Y1125D03*
X1379Y1125D03*
X1812Y1125D03*
X2012Y1125D03*
X2042Y2346D03*
X2042Y2246D03*
X1629Y2363D03*
X1629Y2463D03*
X1582Y2851D03*
X1682Y2851D03*
X397Y1849D03*
X397Y2149D03*
X497Y1849D03*
X497Y2149D03*
X597Y1849D03*
X597Y2149D03*
X697Y1849D03*
X697Y2149D03*
X797Y1849D03*
X797Y2149D03*
X897Y1849D03*
X897Y2149D03*
X997Y1849D03*
X997Y2149D03*
X1097Y1849D03*
X1097Y2149D03*
X1197Y1849D03*
X1197Y2149D03*
X1297Y1849D03*
X1297Y2149D03*
X1397Y1849D03*
X1397Y2149D03*
X1497Y1849D03*
X1497Y2149D03*
X1597Y1849D03*
X1597Y2149D03*
X1697Y1849D03*
X1697Y2149D03*
X7107Y2153D03*
X7107Y1853D03*
X7007Y2153D03*
X7007Y1853D03*
G54D10*
X1289Y738D03*
X1289Y638D03*
X789Y1310D03*
X889Y1310D03*
X611Y1625D03*
X711Y1625D03*
X1537Y1703D03*
X1637Y1703D03*
X1737Y1703D03*
X1837Y1703D03*
X2948Y1262D03*
X2848Y1262D03*
X3174Y2983D03*
X3074Y2983D03*
X3802Y3133D03*
X3702Y3133D03*
G54D18*
X4770Y1624D03*
X5570Y1624D03*
X5755Y2798D03*
X5755Y1998D03*
X5218Y1912D03*
X5218Y2712D03*
X4764Y3014D03*
X4764Y2214D03*
X4391Y3014D03*
X4391Y2214D03*
X6286Y2798D03*
X6286Y1998D03*
G54D12*
X659Y1329D03*
X259Y1329D03*
X1361Y2644D03*
X1361Y2944D03*
X2239Y2706D03*
X2239Y2306D03*
X2042Y2783D03*
X2042Y2483D03*
X1885Y2143D03*
X1885Y2443D03*
X1786Y2458D03*
X1786Y2758D03*
X1452Y2419D03*
X1452Y2719D03*
G54D19*
X3348Y2642D03*
X3348Y2442D03*
X3348Y2642D03*
X3348Y2442D03*
G54D16*
X3408Y454D03*
X3208Y454D03*
X6556Y2975D03*
X6756Y2975D03*
X5172Y2975D03*
X5372Y2975D03*
X5572Y2975D03*
G54D20*
X1400Y1408D03*
G54D21*
X1207Y1408D03*
G54D12*
X3135Y2227D03*
X2835Y2227D03*
X2421Y2109D03*
X2121Y2109D03*
X2503Y640D03*
X2503Y940D03*
X2923Y640D03*
X2623Y640D03*
X2835Y230D03*
X2535Y230D03*
X2815Y3152D03*
X2515Y3152D03*
X2897Y1817D03*
X2897Y2117D03*
X1801Y1498D03*
X2101Y1498D03*
X1374Y967D03*
X1674Y967D03*
X3824Y1545D03*
X4124Y1545D03*
X2123Y1612D03*
X2423Y1612D03*
X2816Y1908D03*
X2516Y1908D03*
X2423Y1907D03*
X2123Y1907D03*
X2423Y1708D03*
X2123Y1708D03*
X2423Y1809D03*
X2123Y1809D03*
X2421Y2010D03*
X2121Y2010D03*
X1943Y645D03*
X1943Y345D03*
X2041Y645D03*
X2041Y345D03*
X1596Y227D03*
X1896Y227D03*
X2018Y783D03*
X2118Y783D03*
X2218Y783D03*
X462Y640D03*
X562Y640D03*
X662Y640D03*
X160Y496D03*
X160Y896D03*
X554Y811D03*
X554Y1211D03*
G54D22*
X1400Y1625D03*
X1300Y1625D03*
X1153Y994D03*
X1053Y994D03*
X1933Y2932D03*
X1832Y2932D03*
X1550Y3012D03*
X1550Y3113D03*
X2618Y3033D03*
X2518Y3033D03*
X1005Y2255D03*
X1105Y2255D03*
X1105Y1743D03*
X1005Y1743D03*
X1204Y1625D03*
X1103Y1625D03*
G54D23*
X5583Y396D03*
X5664Y160D03*
X6143Y160D03*
X5664Y632D03*
X6143Y632D03*
X5585Y1073D03*
X5666Y837D03*
X6144Y837D03*
X5666Y1309D03*
X6144Y1309D03*
G54D12*
X1094Y2499D03*
X1094Y2799D03*
X1194Y2499D03*
X1194Y2799D03*
X769Y2499D03*
X769Y2799D03*
X869Y2499D03*
X869Y2799D03*
X1081Y3042D03*
X1181Y3042D03*
X1281Y3042D03*
X609Y3042D03*
X709Y3042D03*
X809Y3042D03*
X157Y2150D03*
X157Y2450D03*
X984Y2404D03*
X1284Y2404D03*
X986Y3101D03*
X986Y2801D03*
G54D16*
X6694Y1016D03*
X6694Y816D03*
X6694Y616D03*
X6694Y416D03*
G54D24*
X6990Y2483D03*
X6990Y2778D03*
G54D25*
X5868Y1831D03*
X5867Y1636D03*
X6043Y1635D03*
X6041Y1834D03*
G54D12*
X6320Y1635D03*
X6320Y1735D03*
G54D26*
X2416Y2880D03*
G54D27*
X295Y2288D03*
G54D28*
X3820Y1944D03*
G54D29*
X3820Y1875D03*
G54D26*
X1479Y1125D03*
X1812Y1125D03*
X2042Y2346D03*
X1629Y2363D03*
X1582Y2851D03*
X397Y1849D03*
X7107Y2153D03*
G54D28*
X3408Y454D03*
X6556Y2975D03*
X5172Y2975D03*
G54D26*
X1094Y2499D03*
X769Y2499D03*
G54D28*
X6694Y1016D03*
G54D26*
X6320Y1635D03*
G54D30*
X3316Y2475D02*
X3379Y2475D01*
X3315Y2474D02*
X3379Y2474D01*
X3315Y2473D02*
X3379Y2473D01*
X3315Y2472D02*
X3379Y2472D01*
X3315Y2471D02*
X3379Y2471D01*
X3315Y2470D02*
X3379Y2470D01*
X3315Y2469D02*
X3379Y2469D01*
X3315Y2468D02*
X3379Y2468D01*
X3315Y2467D02*
X3379Y2467D01*
X3315Y2466D02*
X3379Y2466D01*
X3315Y2465D02*
X3379Y2465D01*
X3315Y2464D02*
X3379Y2464D01*
X3315Y2463D02*
X3379Y2463D01*
X3315Y2462D02*
X3379Y2462D01*
X3315Y2461D02*
X3379Y2461D01*
X3315Y2460D02*
X3379Y2460D01*
X3315Y2459D02*
X3379Y2459D01*
X3315Y2458D02*
X3379Y2458D01*
X3315Y2457D02*
X3379Y2457D01*
X3315Y2456D02*
X3344Y2456D01*
X3350Y2456D02*
X3379Y2456D01*
X3315Y2455D02*
X3341Y2455D01*
X3353Y2455D02*
X3379Y2455D01*
X3315Y2454D02*
X3339Y2454D01*
X3355Y2454D02*
X3379Y2454D01*
X3315Y2453D02*
X3338Y2453D01*
X3357Y2453D02*
X3379Y2453D01*
X3315Y2452D02*
X3337Y2452D01*
X3358Y2452D02*
X3379Y2452D01*
X3315Y2451D02*
X3336Y2451D01*
X3358Y2451D02*
X3379Y2451D01*
X3315Y2450D02*
X3335Y2450D01*
X3359Y2450D02*
X3379Y2450D01*
X3315Y2449D02*
X3335Y2449D01*
X3360Y2449D02*
X3379Y2449D01*
X3315Y2448D02*
X3334Y2448D01*
X3360Y2448D02*
X3379Y2448D01*
X3315Y2447D02*
X3334Y2447D01*
X3361Y2447D02*
X3379Y2447D01*
X3315Y2446D02*
X3333Y2446D01*
X3361Y2446D02*
X3379Y2446D01*
X3315Y2445D02*
X3333Y2445D01*
X3361Y2445D02*
X3379Y2445D01*
X3315Y2444D02*
X3333Y2444D01*
X3361Y2444D02*
X3379Y2444D01*
X3315Y2443D02*
X3333Y2443D01*
X3361Y2443D02*
X3379Y2443D01*
X3315Y2442D02*
X3333Y2442D01*
X3361Y2442D02*
X3379Y2442D01*
X3315Y2441D02*
X3333Y2441D01*
X3361Y2441D02*
X3379Y2441D01*
X3315Y2440D02*
X3333Y2440D01*
X3361Y2440D02*
X3379Y2440D01*
X3315Y2439D02*
X3333Y2439D01*
X3361Y2439D02*
X3379Y2439D01*
X3315Y2438D02*
X3334Y2438D01*
X3361Y2438D02*
X3379Y2438D01*
X3315Y2437D02*
X3334Y2437D01*
X3360Y2437D02*
X3379Y2437D01*
X3315Y2436D02*
X3335Y2436D01*
X3360Y2436D02*
X3379Y2436D01*
X3315Y2435D02*
X3335Y2435D01*
X3359Y2435D02*
X3379Y2435D01*
X3315Y2434D02*
X3336Y2434D01*
X3358Y2434D02*
X3379Y2434D01*
X3315Y2433D02*
X3337Y2433D01*
X3358Y2433D02*
X3379Y2433D01*
X3315Y2432D02*
X3338Y2432D01*
X3356Y2432D02*
X3379Y2432D01*
X3315Y2431D02*
X3339Y2431D01*
X3355Y2431D02*
X3379Y2431D01*
X3315Y2430D02*
X3341Y2430D01*
X3353Y2430D02*
X3379Y2430D01*
X3315Y2429D02*
X3344Y2429D01*
X3350Y2429D02*
X3379Y2429D01*
X3315Y2428D02*
X3379Y2428D01*
X3315Y2427D02*
X3379Y2427D01*
X3315Y2426D02*
X3379Y2426D01*
X3315Y2425D02*
X3379Y2425D01*
X3315Y2424D02*
X3379Y2424D01*
X3315Y2423D02*
X3379Y2423D01*
X3315Y2422D02*
X3379Y2422D01*
X3315Y2421D02*
X3379Y2421D01*
X3315Y2420D02*
X3379Y2420D01*
X3315Y2419D02*
X3379Y2419D01*
X3315Y2418D02*
X3379Y2418D01*
X3315Y2417D02*
X3379Y2417D01*
X3315Y2416D02*
X3379Y2416D01*
X3315Y2415D02*
X3379Y2415D01*
X3315Y2414D02*
X3379Y2414D01*
X3315Y2413D02*
X3379Y2413D01*
X3315Y2412D02*
X3379Y2412D01*
X3315Y2411D02*
X3379Y2411D01*
X5657Y1374D02*
X5673Y1374D01*
X6135Y1374D02*
X6151Y1374D01*
X5651Y1373D02*
X5678Y1373D01*
X6130Y1373D02*
X6157Y1373D01*
X5647Y1372D02*
X5682Y1372D01*
X6126Y1372D02*
X6161Y1372D01*
X5644Y1371D02*
X5686Y1371D01*
X6123Y1371D02*
X6164Y1371D01*
X5641Y1370D02*
X5688Y1370D01*
X6120Y1370D02*
X6167Y1370D01*
X5639Y1369D02*
X5691Y1369D01*
X6117Y1369D02*
X6169Y1369D01*
X5637Y1368D02*
X5693Y1368D01*
X6115Y1368D02*
X6171Y1368D01*
X5635Y1367D02*
X5695Y1367D01*
X6113Y1367D02*
X6173Y1367D01*
X5633Y1366D02*
X5697Y1366D01*
X6112Y1366D02*
X6175Y1366D01*
X5632Y1365D02*
X5698Y1365D01*
X6110Y1365D02*
X6177Y1365D01*
X5630Y1364D02*
X5700Y1364D01*
X6108Y1364D02*
X6178Y1364D01*
X5628Y1363D02*
X5701Y1363D01*
X6107Y1363D02*
X6180Y1363D01*
X5627Y1362D02*
X5703Y1362D01*
X6105Y1362D02*
X6181Y1362D01*
X5626Y1361D02*
X5704Y1361D01*
X6104Y1361D02*
X6182Y1361D01*
X5624Y1360D02*
X5705Y1360D01*
X6103Y1360D02*
X6184Y1360D01*
X5623Y1359D02*
X5707Y1359D01*
X6102Y1359D02*
X6185Y1359D01*
X5622Y1358D02*
X5708Y1358D01*
X6100Y1358D02*
X6186Y1358D01*
X5621Y1357D02*
X5709Y1357D01*
X6099Y1357D02*
X6187Y1357D01*
X5620Y1356D02*
X5710Y1356D01*
X6098Y1356D02*
X6188Y1356D01*
X5619Y1355D02*
X5711Y1355D01*
X6097Y1355D02*
X6189Y1355D01*
X5618Y1354D02*
X5712Y1354D01*
X6096Y1354D02*
X6190Y1354D01*
X5617Y1353D02*
X5713Y1353D01*
X6095Y1353D02*
X6191Y1353D01*
X5616Y1352D02*
X5714Y1352D01*
X6095Y1352D02*
X6192Y1352D01*
X5615Y1351D02*
X5714Y1351D01*
X6094Y1351D02*
X6193Y1351D01*
X5615Y1350D02*
X5715Y1350D01*
X6093Y1350D02*
X6194Y1350D01*
X5614Y1349D02*
X5716Y1349D01*
X6092Y1349D02*
X6194Y1349D01*
X5613Y1348D02*
X5717Y1348D01*
X6091Y1348D02*
X6195Y1348D01*
X5612Y1347D02*
X5717Y1347D01*
X6091Y1347D02*
X6196Y1347D01*
X5612Y1346D02*
X5718Y1346D01*
X6090Y1346D02*
X6196Y1346D01*
X5611Y1345D02*
X5719Y1345D01*
X6089Y1345D02*
X6197Y1345D01*
X5610Y1344D02*
X5719Y1344D01*
X6089Y1344D02*
X6198Y1344D01*
X5610Y1343D02*
X5720Y1343D01*
X6088Y1343D02*
X6198Y1343D01*
X5609Y1342D02*
X5721Y1342D01*
X6088Y1342D02*
X6199Y1342D01*
X5609Y1341D02*
X5721Y1341D01*
X6087Y1341D02*
X6200Y1341D01*
X5608Y1340D02*
X5722Y1340D01*
X6086Y1340D02*
X6200Y1340D01*
X5608Y1339D02*
X5722Y1339D01*
X6086Y1339D02*
X6201Y1339D01*
X5607Y1338D02*
X5723Y1338D01*
X6085Y1338D02*
X6201Y1338D01*
X5607Y1337D02*
X5723Y1337D01*
X6085Y1337D02*
X6202Y1337D01*
X5606Y1336D02*
X5724Y1336D01*
X6084Y1336D02*
X6202Y1336D01*
X5606Y1335D02*
X5660Y1335D01*
X5670Y1335D02*
X5724Y1335D01*
X6084Y1335D02*
X6138Y1335D01*
X6148Y1335D02*
X6203Y1335D01*
X5605Y1334D02*
X5656Y1334D01*
X5674Y1334D02*
X5725Y1334D01*
X6084Y1334D02*
X6135Y1334D01*
X6152Y1334D02*
X6203Y1334D01*
X5605Y1333D02*
X5654Y1333D01*
X5676Y1333D02*
X5725Y1333D01*
X6083Y1333D02*
X6132Y1333D01*
X6154Y1333D02*
X6203Y1333D01*
X5605Y1332D02*
X5652Y1332D01*
X5678Y1332D02*
X5725Y1332D01*
X6083Y1332D02*
X6130Y1332D01*
X6156Y1332D02*
X6204Y1332D01*
X5604Y1331D02*
X5650Y1331D01*
X5680Y1331D02*
X5726Y1331D01*
X6082Y1331D02*
X6128Y1331D01*
X6158Y1331D02*
X6204Y1331D01*
X5604Y1330D02*
X5649Y1330D01*
X5681Y1330D02*
X5726Y1330D01*
X6082Y1330D02*
X6127Y1330D01*
X6159Y1330D02*
X6204Y1330D01*
X5603Y1329D02*
X5648Y1329D01*
X5682Y1329D02*
X5726Y1329D01*
X6082Y1329D02*
X6126Y1329D01*
X6160Y1329D02*
X6205Y1329D01*
X5603Y1328D02*
X5647Y1328D01*
X5683Y1328D02*
X5727Y1328D01*
X6082Y1328D02*
X6125Y1328D01*
X6162Y1328D02*
X6205Y1328D01*
X5603Y1327D02*
X5646Y1327D01*
X5684Y1327D02*
X5727Y1327D01*
X6081Y1327D02*
X6124Y1327D01*
X6163Y1327D02*
X6205Y1327D01*
X5603Y1326D02*
X5645Y1326D01*
X5685Y1326D02*
X5727Y1326D01*
X6081Y1326D02*
X6123Y1326D01*
X6163Y1326D02*
X6205Y1326D01*
X5602Y1325D02*
X5644Y1325D01*
X5686Y1325D02*
X5727Y1325D01*
X6081Y1325D02*
X6122Y1325D01*
X6164Y1325D02*
X6206Y1325D01*
X5602Y1324D02*
X5643Y1324D01*
X5687Y1324D02*
X5728Y1324D01*
X6081Y1324D02*
X6121Y1324D01*
X6165Y1324D02*
X6206Y1324D01*
X5602Y1323D02*
X5643Y1323D01*
X5687Y1323D02*
X5728Y1323D01*
X6080Y1323D02*
X6121Y1323D01*
X6166Y1323D02*
X6206Y1323D01*
X5602Y1322D02*
X5642Y1322D01*
X5688Y1322D02*
X5728Y1322D01*
X6080Y1322D02*
X6120Y1322D01*
X6166Y1322D02*
X6206Y1322D01*
X5602Y1321D02*
X5642Y1321D01*
X5688Y1321D02*
X5728Y1321D01*
X6080Y1321D02*
X6120Y1321D01*
X6167Y1321D02*
X6207Y1321D01*
X5601Y1320D02*
X5641Y1320D01*
X5689Y1320D02*
X5728Y1320D01*
X6080Y1320D02*
X6119Y1320D01*
X6167Y1320D02*
X6207Y1320D01*
X5601Y1319D02*
X5641Y1319D01*
X5689Y1319D02*
X5729Y1319D01*
X6080Y1319D02*
X6119Y1319D01*
X6168Y1319D02*
X6207Y1319D01*
X5601Y1318D02*
X5640Y1318D01*
X5690Y1318D02*
X5729Y1318D01*
X6079Y1318D02*
X6118Y1318D01*
X6168Y1318D02*
X6207Y1318D01*
X5601Y1317D02*
X5640Y1317D01*
X5690Y1317D02*
X5729Y1317D01*
X6079Y1317D02*
X6118Y1317D01*
X6168Y1317D02*
X6207Y1317D01*
X5601Y1316D02*
X5640Y1316D01*
X5690Y1316D02*
X5729Y1316D01*
X6079Y1316D02*
X6118Y1316D01*
X6169Y1316D02*
X6207Y1316D01*
X5601Y1315D02*
X5639Y1315D01*
X5691Y1315D02*
X5729Y1315D01*
X6079Y1315D02*
X6118Y1315D01*
X6169Y1315D02*
X6207Y1315D01*
X5601Y1314D02*
X5639Y1314D01*
X5691Y1314D02*
X5729Y1314D01*
X6079Y1314D02*
X6117Y1314D01*
X6169Y1314D02*
X6207Y1314D01*
X5601Y1313D02*
X5639Y1313D01*
X5691Y1313D02*
X5729Y1313D01*
X6079Y1313D02*
X6117Y1313D01*
X6169Y1313D02*
X6207Y1313D01*
X5601Y1312D02*
X5639Y1312D01*
X5691Y1312D02*
X5729Y1312D01*
X6079Y1312D02*
X6117Y1312D01*
X6169Y1312D02*
X6208Y1312D01*
X5601Y1311D02*
X5639Y1311D01*
X5691Y1311D02*
X5729Y1311D01*
X6079Y1311D02*
X6117Y1311D01*
X6169Y1311D02*
X6208Y1311D01*
X5600Y1310D02*
X5639Y1310D01*
X5691Y1310D02*
X5729Y1310D01*
X6079Y1310D02*
X6117Y1310D01*
X6169Y1310D02*
X6208Y1310D01*
X5601Y1309D02*
X5639Y1309D01*
X5691Y1309D02*
X5729Y1309D01*
X6079Y1309D02*
X6117Y1309D01*
X6169Y1309D02*
X6208Y1309D01*
X5601Y1308D02*
X5639Y1308D01*
X5691Y1308D02*
X5729Y1308D01*
X6079Y1308D02*
X6117Y1308D01*
X6169Y1308D02*
X6208Y1308D01*
X5601Y1307D02*
X5639Y1307D01*
X5691Y1307D02*
X5729Y1307D01*
X6079Y1307D02*
X6117Y1307D01*
X6169Y1307D02*
X6208Y1307D01*
X5601Y1306D02*
X5639Y1306D01*
X5691Y1306D02*
X5729Y1306D01*
X6079Y1306D02*
X6117Y1306D01*
X6169Y1306D02*
X6207Y1306D01*
X5601Y1305D02*
X5639Y1305D01*
X5691Y1305D02*
X5729Y1305D01*
X6079Y1305D02*
X6117Y1305D01*
X6169Y1305D02*
X6207Y1305D01*
X5601Y1304D02*
X5639Y1304D01*
X5690Y1304D02*
X5729Y1304D01*
X6079Y1304D02*
X6118Y1304D01*
X6169Y1304D02*
X6207Y1304D01*
X5601Y1303D02*
X5640Y1303D01*
X5690Y1303D02*
X5729Y1303D01*
X6079Y1303D02*
X6118Y1303D01*
X6168Y1303D02*
X6207Y1303D01*
X5601Y1302D02*
X5640Y1302D01*
X5690Y1302D02*
X5729Y1302D01*
X6079Y1302D02*
X6118Y1302D01*
X6168Y1302D02*
X6207Y1302D01*
X5601Y1301D02*
X5640Y1301D01*
X5689Y1301D02*
X5729Y1301D01*
X6080Y1301D02*
X6119Y1301D01*
X6168Y1301D02*
X6207Y1301D01*
X5601Y1300D02*
X5641Y1300D01*
X5689Y1300D02*
X5728Y1300D01*
X6080Y1300D02*
X6119Y1300D01*
X6167Y1300D02*
X6207Y1300D01*
X5602Y1299D02*
X5641Y1299D01*
X5689Y1299D02*
X5728Y1299D01*
X6080Y1299D02*
X6120Y1299D01*
X6167Y1299D02*
X6207Y1299D01*
X5602Y1298D02*
X5642Y1298D01*
X5688Y1298D02*
X5728Y1298D01*
X6080Y1298D02*
X6120Y1298D01*
X6166Y1298D02*
X6206Y1298D01*
X5602Y1297D02*
X5642Y1297D01*
X5688Y1297D02*
X5728Y1297D01*
X6080Y1297D02*
X6121Y1297D01*
X6166Y1297D02*
X6206Y1297D01*
X5602Y1296D02*
X5643Y1296D01*
X5687Y1296D02*
X5728Y1296D01*
X6080Y1296D02*
X6121Y1296D01*
X6165Y1296D02*
X6206Y1296D01*
X5602Y1295D02*
X5643Y1295D01*
X5686Y1295D02*
X5728Y1295D01*
X6081Y1295D02*
X6122Y1295D01*
X6165Y1295D02*
X6206Y1295D01*
X5603Y1294D02*
X5644Y1294D01*
X5686Y1294D02*
X5727Y1294D01*
X6081Y1294D02*
X6123Y1294D01*
X6164Y1294D02*
X6206Y1294D01*
X5603Y1293D02*
X5645Y1293D01*
X5685Y1293D02*
X5727Y1293D01*
X6081Y1293D02*
X6123Y1293D01*
X6163Y1293D02*
X6205Y1293D01*
X5603Y1292D02*
X5646Y1292D01*
X5684Y1292D02*
X5727Y1292D01*
X6081Y1292D02*
X6124Y1292D01*
X6162Y1292D02*
X6205Y1292D01*
X5603Y1291D02*
X5647Y1291D01*
X5683Y1291D02*
X5727Y1291D01*
X6082Y1291D02*
X6125Y1291D01*
X6161Y1291D02*
X6205Y1291D01*
X5604Y1290D02*
X5648Y1290D01*
X5682Y1290D02*
X5726Y1290D01*
X6082Y1290D02*
X6127Y1290D01*
X6160Y1290D02*
X6205Y1290D01*
X5604Y1289D02*
X5649Y1289D01*
X5680Y1289D02*
X5726Y1289D01*
X6082Y1289D02*
X6128Y1289D01*
X6159Y1289D02*
X6204Y1289D01*
X5604Y1288D02*
X5651Y1288D01*
X5679Y1288D02*
X5726Y1288D01*
X6083Y1288D02*
X6129Y1288D01*
X6157Y1288D02*
X6204Y1288D01*
X5605Y1287D02*
X5653Y1287D01*
X5677Y1287D02*
X5725Y1287D01*
X6083Y1287D02*
X6131Y1287D01*
X6155Y1287D02*
X6203Y1287D01*
X5605Y1286D02*
X5655Y1286D01*
X5675Y1286D02*
X5725Y1286D01*
X6083Y1286D02*
X6133Y1286D01*
X6153Y1286D02*
X6203Y1286D01*
X5605Y1285D02*
X5658Y1285D01*
X5672Y1285D02*
X5724Y1285D01*
X6084Y1285D02*
X6136Y1285D01*
X6151Y1285D02*
X6203Y1285D01*
X5606Y1284D02*
X5724Y1284D01*
X6084Y1284D02*
X6202Y1284D01*
X5606Y1283D02*
X5724Y1283D01*
X6085Y1283D02*
X6202Y1283D01*
X5607Y1282D02*
X5723Y1282D01*
X6085Y1282D02*
X6201Y1282D01*
X5607Y1281D02*
X5723Y1281D01*
X6086Y1281D02*
X6201Y1281D01*
X5608Y1280D02*
X5722Y1280D01*
X6086Y1280D02*
X6200Y1280D01*
X5608Y1279D02*
X5722Y1279D01*
X6087Y1279D02*
X6200Y1279D01*
X5609Y1278D02*
X5721Y1278D01*
X6087Y1278D02*
X6199Y1278D01*
X5609Y1277D02*
X5720Y1277D01*
X6088Y1277D02*
X6199Y1277D01*
X5610Y1276D02*
X5720Y1276D01*
X6088Y1276D02*
X6198Y1276D01*
X5611Y1275D02*
X5719Y1275D01*
X6089Y1275D02*
X6197Y1275D01*
X5611Y1274D02*
X5719Y1274D01*
X6090Y1274D02*
X6197Y1274D01*
X5612Y1273D02*
X5718Y1273D01*
X6090Y1273D02*
X6196Y1273D01*
X5613Y1272D02*
X5717Y1272D01*
X6091Y1272D02*
X6195Y1272D01*
X5613Y1271D02*
X5716Y1271D01*
X6092Y1271D02*
X6195Y1271D01*
X5614Y1270D02*
X5716Y1270D01*
X6093Y1270D02*
X6194Y1270D01*
X5615Y1269D02*
X5715Y1269D01*
X6093Y1269D02*
X6193Y1269D01*
X5616Y1268D02*
X5714Y1268D01*
X6094Y1268D02*
X6192Y1268D01*
X5617Y1267D02*
X5713Y1267D01*
X6095Y1267D02*
X6192Y1267D01*
X5618Y1266D02*
X5712Y1266D01*
X6096Y1266D02*
X6191Y1266D01*
X5618Y1265D02*
X5711Y1265D01*
X6097Y1265D02*
X6190Y1265D01*
X5619Y1264D02*
X5711Y1264D01*
X6098Y1264D02*
X6189Y1264D01*
X5620Y1263D02*
X5709Y1263D01*
X6099Y1263D02*
X6188Y1263D01*
X5621Y1262D02*
X5708Y1262D01*
X6100Y1262D02*
X6187Y1262D01*
X5623Y1261D02*
X5707Y1261D01*
X6101Y1261D02*
X6186Y1261D01*
X5624Y1260D02*
X5706Y1260D01*
X6102Y1260D02*
X6184Y1260D01*
X5625Y1259D02*
X5705Y1259D01*
X6103Y1259D02*
X6183Y1259D01*
X5626Y1258D02*
X5703Y1258D01*
X6105Y1258D02*
X6182Y1258D01*
X5628Y1257D02*
X5702Y1257D01*
X6106Y1257D02*
X6180Y1257D01*
X5629Y1256D02*
X5701Y1256D01*
X6107Y1256D02*
X6179Y1256D01*
X5631Y1255D02*
X5699Y1255D01*
X6109Y1255D02*
X6177Y1255D01*
X5632Y1254D02*
X5698Y1254D01*
X6111Y1254D02*
X6176Y1254D01*
X5634Y1253D02*
X5696Y1253D01*
X6112Y1253D02*
X6174Y1253D01*
X5636Y1252D02*
X5694Y1252D01*
X6114Y1252D02*
X6172Y1252D01*
X5638Y1251D02*
X5692Y1251D01*
X6116Y1251D02*
X6170Y1251D01*
X5640Y1250D02*
X5690Y1250D01*
X6118Y1250D02*
X6168Y1250D01*
X5643Y1249D02*
X5687Y1249D01*
X6121Y1249D02*
X6166Y1249D01*
X5645Y1248D02*
X5684Y1248D01*
X6124Y1248D02*
X6163Y1248D01*
X5649Y1247D02*
X5681Y1247D01*
X6127Y1247D02*
X6159Y1247D01*
X5654Y1246D02*
X5676Y1246D01*
X6132Y1246D02*
X6155Y1246D01*
X5662Y1245D02*
X5668Y1245D01*
X6140Y1245D02*
X6147Y1245D01*
X5578Y1138D02*
X5591Y1138D01*
X5571Y1137D02*
X5597Y1137D01*
X5567Y1136D02*
X5601Y1136D01*
X5564Y1135D02*
X5604Y1135D01*
X5561Y1134D02*
X5607Y1134D01*
X5559Y1133D02*
X5610Y1133D01*
X5557Y1132D02*
X5612Y1132D01*
X5555Y1131D02*
X5614Y1131D01*
X5553Y1130D02*
X5616Y1130D01*
X5551Y1129D02*
X5617Y1129D01*
X5550Y1128D02*
X5619Y1128D01*
X5548Y1127D02*
X5620Y1127D01*
X5547Y1126D02*
X5622Y1126D01*
X5545Y1125D02*
X5623Y1125D01*
X5544Y1124D02*
X5624Y1124D01*
X5543Y1123D02*
X5626Y1123D01*
X5542Y1122D02*
X5627Y1122D01*
X5540Y1121D02*
X5628Y1121D01*
X5539Y1120D02*
X5629Y1120D01*
X5538Y1119D02*
X5630Y1119D01*
X5537Y1118D02*
X5631Y1118D01*
X5537Y1117D02*
X5632Y1117D01*
X5536Y1116D02*
X5633Y1116D01*
X5535Y1115D02*
X5634Y1115D01*
X5534Y1114D02*
X5634Y1114D01*
X5533Y1113D02*
X5635Y1113D01*
X5533Y1112D02*
X5636Y1112D01*
X5532Y1111D02*
X5637Y1111D01*
X5531Y1110D02*
X5637Y1110D01*
X5530Y1109D02*
X5638Y1109D01*
X5530Y1108D02*
X5639Y1108D01*
X5529Y1107D02*
X5639Y1107D01*
X5529Y1106D02*
X5640Y1106D01*
X5528Y1105D02*
X5640Y1105D01*
X5527Y1104D02*
X5641Y1104D01*
X5527Y1103D02*
X5641Y1103D01*
X5526Y1102D02*
X5642Y1102D01*
X5526Y1101D02*
X5642Y1101D01*
X5525Y1100D02*
X5643Y1100D01*
X5525Y1099D02*
X5581Y1099D01*
X5588Y1099D02*
X5643Y1099D01*
X5525Y1098D02*
X5576Y1098D01*
X5592Y1098D02*
X5644Y1098D01*
X5524Y1097D02*
X5574Y1097D01*
X5595Y1097D02*
X5644Y1097D01*
X5524Y1096D02*
X5572Y1096D01*
X5597Y1096D02*
X5645Y1096D01*
X5524Y1095D02*
X5570Y1095D01*
X5599Y1095D02*
X5645Y1095D01*
X5523Y1094D02*
X5568Y1094D01*
X5600Y1094D02*
X5645Y1094D01*
X5523Y1093D02*
X5567Y1093D01*
X5601Y1093D02*
X5646Y1093D01*
X5523Y1092D02*
X5566Y1092D01*
X5602Y1092D02*
X5646Y1092D01*
X5522Y1091D02*
X5565Y1091D01*
X5603Y1091D02*
X5646Y1091D01*
X5522Y1090D02*
X5564Y1090D01*
X5604Y1090D02*
X5646Y1090D01*
X5522Y1089D02*
X5563Y1089D01*
X5605Y1089D02*
X5647Y1089D01*
X5522Y1088D02*
X5563Y1088D01*
X5606Y1088D02*
X5647Y1088D01*
X5521Y1087D02*
X5562Y1087D01*
X5606Y1087D02*
X5647Y1087D01*
X5521Y1086D02*
X5561Y1086D01*
X5607Y1086D02*
X5647Y1086D01*
X5521Y1085D02*
X5561Y1085D01*
X5608Y1085D02*
X5647Y1085D01*
X5521Y1084D02*
X5560Y1084D01*
X5608Y1084D02*
X5648Y1084D01*
X5521Y1083D02*
X5560Y1083D01*
X5608Y1083D02*
X5648Y1083D01*
X5520Y1082D02*
X5560Y1082D01*
X5609Y1082D02*
X5648Y1082D01*
X5520Y1081D02*
X5559Y1081D01*
X5609Y1081D02*
X5648Y1081D01*
X5520Y1080D02*
X5559Y1080D01*
X5610Y1080D02*
X5648Y1080D01*
X5520Y1079D02*
X5559Y1079D01*
X5610Y1079D02*
X5648Y1079D01*
X5520Y1078D02*
X5558Y1078D01*
X5610Y1078D02*
X5648Y1078D01*
X5520Y1077D02*
X5558Y1077D01*
X5610Y1077D02*
X5648Y1077D01*
X5520Y1076D02*
X5558Y1076D01*
X5610Y1076D02*
X5649Y1076D01*
X5520Y1075D02*
X5558Y1075D01*
X5610Y1075D02*
X5649Y1075D01*
X5520Y1074D02*
X5558Y1074D01*
X5610Y1074D02*
X5649Y1074D01*
X5520Y1073D02*
X5558Y1073D01*
X5610Y1073D02*
X5649Y1073D01*
X5520Y1072D02*
X5558Y1072D01*
X5610Y1072D02*
X5649Y1072D01*
X5520Y1071D02*
X5558Y1071D01*
X5610Y1071D02*
X5649Y1071D01*
X5520Y1070D02*
X5558Y1070D01*
X5610Y1070D02*
X5648Y1070D01*
X5520Y1069D02*
X5558Y1069D01*
X5610Y1069D02*
X5648Y1069D01*
X5520Y1068D02*
X5559Y1068D01*
X5610Y1068D02*
X5648Y1068D01*
X5520Y1067D02*
X5559Y1067D01*
X5610Y1067D02*
X5648Y1067D01*
X5520Y1066D02*
X5559Y1066D01*
X5609Y1066D02*
X5648Y1066D01*
X5520Y1065D02*
X5560Y1065D01*
X5609Y1065D02*
X5648Y1065D01*
X5521Y1064D02*
X5560Y1064D01*
X5608Y1064D02*
X5648Y1064D01*
X5521Y1063D02*
X5560Y1063D01*
X5608Y1063D02*
X5648Y1063D01*
X5521Y1062D02*
X5561Y1062D01*
X5607Y1062D02*
X5647Y1062D01*
X5521Y1061D02*
X5561Y1061D01*
X5607Y1061D02*
X5647Y1061D01*
X5521Y1060D02*
X5562Y1060D01*
X5606Y1060D02*
X5647Y1060D01*
X5522Y1059D02*
X5563Y1059D01*
X5606Y1059D02*
X5647Y1059D01*
X5522Y1058D02*
X5563Y1058D01*
X5605Y1058D02*
X5647Y1058D01*
X5522Y1057D02*
X5564Y1057D01*
X5604Y1057D02*
X5646Y1057D01*
X5522Y1056D02*
X5565Y1056D01*
X5603Y1056D02*
X5646Y1056D01*
X5523Y1055D02*
X5566Y1055D01*
X5602Y1055D02*
X5646Y1055D01*
X5523Y1054D02*
X5567Y1054D01*
X5601Y1054D02*
X5646Y1054D01*
X5523Y1053D02*
X5568Y1053D01*
X5600Y1053D02*
X5645Y1053D01*
X5524Y1052D02*
X5570Y1052D01*
X5599Y1052D02*
X5645Y1052D01*
X5524Y1051D02*
X5572Y1051D01*
X5597Y1051D02*
X5645Y1051D01*
X5524Y1050D02*
X5574Y1050D01*
X5595Y1050D02*
X5644Y1050D01*
X5525Y1049D02*
X5576Y1049D01*
X5592Y1049D02*
X5644Y1049D01*
X5525Y1048D02*
X5582Y1048D01*
X5586Y1048D02*
X5643Y1048D01*
X5525Y1047D02*
X5643Y1047D01*
X5526Y1046D02*
X5642Y1046D01*
X5526Y1045D02*
X5642Y1045D01*
X5527Y1044D02*
X5641Y1044D01*
X5527Y1043D02*
X5641Y1043D01*
X5528Y1042D02*
X5640Y1042D01*
X5529Y1041D02*
X5640Y1041D01*
X5529Y1040D02*
X5639Y1040D01*
X5530Y1039D02*
X5639Y1039D01*
X5530Y1038D02*
X5638Y1038D01*
X5531Y1037D02*
X5637Y1037D01*
X5532Y1036D02*
X5637Y1036D01*
X5533Y1035D02*
X5636Y1035D01*
X5533Y1034D02*
X5635Y1034D01*
X5534Y1033D02*
X5634Y1033D01*
X5535Y1032D02*
X5634Y1032D01*
X5536Y1031D02*
X5633Y1031D01*
X5537Y1030D02*
X5632Y1030D01*
X5538Y1029D02*
X5631Y1029D01*
X5538Y1028D02*
X5630Y1028D01*
X5539Y1027D02*
X5629Y1027D01*
X5541Y1026D02*
X5628Y1026D01*
X5542Y1025D02*
X5627Y1025D01*
X5543Y1024D02*
X5626Y1024D01*
X5544Y1023D02*
X5624Y1023D01*
X5545Y1022D02*
X5623Y1022D01*
X5547Y1021D02*
X5622Y1021D01*
X5548Y1020D02*
X5620Y1020D01*
X5550Y1019D02*
X5619Y1019D01*
X5551Y1018D02*
X5617Y1018D01*
X5553Y1017D02*
X5615Y1017D01*
X5555Y1016D02*
X5614Y1016D01*
X5557Y1015D02*
X5612Y1015D01*
X5559Y1014D02*
X5610Y1014D01*
X5561Y1013D02*
X5607Y1013D01*
X5564Y1012D02*
X5604Y1012D01*
X5568Y1011D02*
X5601Y1011D01*
X5572Y1010D02*
X5597Y1010D01*
X5578Y1009D02*
X5590Y1009D01*
X5660Y902D02*
X5670Y902D01*
X6138Y902D02*
X6148Y902D01*
X5653Y901D02*
X5677Y901D01*
X6131Y901D02*
X6155Y901D01*
X5649Y900D02*
X5681Y900D01*
X6127Y900D02*
X6159Y900D01*
X5645Y899D02*
X5685Y899D01*
X6123Y899D02*
X6163Y899D01*
X5642Y898D02*
X5687Y898D01*
X6121Y898D02*
X6166Y898D01*
X5640Y897D02*
X5690Y897D01*
X6118Y897D02*
X6168Y897D01*
X5638Y896D02*
X5692Y896D01*
X6116Y896D02*
X6170Y896D01*
X5636Y895D02*
X5694Y895D01*
X6114Y895D02*
X6173Y895D01*
X5634Y894D02*
X5696Y894D01*
X6112Y894D02*
X6174Y894D01*
X5632Y893D02*
X5698Y893D01*
X6110Y893D02*
X6176Y893D01*
X5631Y892D02*
X5699Y892D01*
X6109Y892D02*
X6178Y892D01*
X5629Y891D02*
X5701Y891D01*
X6107Y891D02*
X6179Y891D01*
X5628Y890D02*
X5702Y890D01*
X6106Y890D02*
X6181Y890D01*
X5626Y889D02*
X5704Y889D01*
X6105Y889D02*
X6182Y889D01*
X5625Y888D02*
X5705Y888D01*
X6103Y888D02*
X6183Y888D01*
X5624Y887D02*
X5706Y887D01*
X6102Y887D02*
X6185Y887D01*
X5623Y886D02*
X5707Y886D01*
X6101Y886D02*
X6186Y886D01*
X5621Y885D02*
X5708Y885D01*
X6100Y885D02*
X6187Y885D01*
X5620Y884D02*
X5710Y884D01*
X6099Y884D02*
X6188Y884D01*
X5619Y883D02*
X5711Y883D01*
X6098Y883D02*
X6189Y883D01*
X5618Y882D02*
X5711Y882D01*
X6097Y882D02*
X6190Y882D01*
X5617Y881D02*
X5712Y881D01*
X6096Y881D02*
X6191Y881D01*
X5617Y880D02*
X5713Y880D01*
X6095Y880D02*
X6192Y880D01*
X5616Y879D02*
X5714Y879D01*
X6094Y879D02*
X6193Y879D01*
X5615Y878D02*
X5715Y878D01*
X6093Y878D02*
X6193Y878D01*
X5614Y877D02*
X5716Y877D01*
X6092Y877D02*
X6194Y877D01*
X5613Y876D02*
X5716Y876D01*
X6092Y876D02*
X6195Y876D01*
X5613Y875D02*
X5717Y875D01*
X6091Y875D02*
X6195Y875D01*
X5612Y874D02*
X5718Y874D01*
X6090Y874D02*
X6196Y874D01*
X5611Y873D02*
X5719Y873D01*
X6090Y873D02*
X6197Y873D01*
X5611Y872D02*
X5719Y872D01*
X6089Y872D02*
X6198Y872D01*
X5610Y871D02*
X5720Y871D01*
X6088Y871D02*
X6198Y871D01*
X5609Y870D02*
X5720Y870D01*
X6088Y870D02*
X6199Y870D01*
X5609Y869D02*
X5721Y869D01*
X6087Y869D02*
X6199Y869D01*
X5608Y868D02*
X5722Y868D01*
X6087Y868D02*
X6200Y868D01*
X5608Y867D02*
X5722Y867D01*
X6086Y867D02*
X6200Y867D01*
X5607Y866D02*
X5723Y866D01*
X6086Y866D02*
X6201Y866D01*
X5607Y865D02*
X5723Y865D01*
X6085Y865D02*
X6201Y865D01*
X5606Y864D02*
X5724Y864D01*
X6085Y864D02*
X6202Y864D01*
X5606Y863D02*
X5724Y863D01*
X6084Y863D02*
X6202Y863D01*
X5605Y862D02*
X5657Y862D01*
X5673Y862D02*
X5724Y862D01*
X6084Y862D02*
X6136Y862D01*
X6151Y862D02*
X6203Y862D01*
X5605Y861D02*
X5655Y861D01*
X5675Y861D02*
X5725Y861D01*
X6083Y861D02*
X6133Y861D01*
X6154Y861D02*
X6203Y861D01*
X5605Y860D02*
X5653Y860D01*
X5677Y860D02*
X5725Y860D01*
X6083Y860D02*
X6131Y860D01*
X6156Y860D02*
X6204Y860D01*
X5604Y859D02*
X5651Y859D01*
X5679Y859D02*
X5726Y859D01*
X6083Y859D02*
X6129Y859D01*
X6157Y859D02*
X6204Y859D01*
X5604Y858D02*
X5649Y858D01*
X5681Y858D02*
X5726Y858D01*
X6082Y858D02*
X6128Y858D01*
X6159Y858D02*
X6204Y858D01*
X5604Y857D02*
X5648Y857D01*
X5682Y857D02*
X5726Y857D01*
X6082Y857D02*
X6126Y857D01*
X6160Y857D02*
X6205Y857D01*
X5603Y856D02*
X5647Y856D01*
X5683Y856D02*
X5727Y856D01*
X6082Y856D02*
X6125Y856D01*
X6161Y856D02*
X6205Y856D01*
X5603Y855D02*
X5646Y855D01*
X5684Y855D02*
X5727Y855D01*
X6081Y855D02*
X6124Y855D01*
X6162Y855D02*
X6205Y855D01*
X5603Y854D02*
X5645Y854D01*
X5685Y854D02*
X5727Y854D01*
X6081Y854D02*
X6123Y854D01*
X6163Y854D02*
X6205Y854D01*
X5603Y853D02*
X5644Y853D01*
X5686Y853D02*
X5727Y853D01*
X6081Y853D02*
X6123Y853D01*
X6164Y853D02*
X6206Y853D01*
X5602Y852D02*
X5643Y852D01*
X5686Y852D02*
X5728Y852D01*
X6081Y852D02*
X6122Y852D01*
X6165Y852D02*
X6206Y852D01*
X5602Y851D02*
X5643Y851D01*
X5687Y851D02*
X5728Y851D01*
X6080Y851D02*
X6121Y851D01*
X6165Y851D02*
X6206Y851D01*
X5602Y850D02*
X5642Y850D01*
X5688Y850D02*
X5728Y850D01*
X6080Y850D02*
X6121Y850D01*
X6166Y850D02*
X6206Y850D01*
X5602Y849D02*
X5642Y849D01*
X5688Y849D02*
X5728Y849D01*
X6080Y849D02*
X6120Y849D01*
X6166Y849D02*
X6206Y849D01*
X5601Y848D02*
X5641Y848D01*
X5689Y848D02*
X5728Y848D01*
X6080Y848D02*
X6119Y848D01*
X6167Y848D02*
X6207Y848D01*
X5601Y847D02*
X5641Y847D01*
X5689Y847D02*
X5728Y847D01*
X6080Y847D02*
X6119Y847D01*
X6167Y847D02*
X6207Y847D01*
X5601Y846D02*
X5640Y846D01*
X5690Y846D02*
X5729Y846D01*
X6079Y846D02*
X6119Y846D01*
X6168Y846D02*
X6207Y846D01*
X5601Y845D02*
X5640Y845D01*
X5690Y845D02*
X5729Y845D01*
X6079Y845D02*
X6118Y845D01*
X6168Y845D02*
X6207Y845D01*
X5601Y844D02*
X5640Y844D01*
X5690Y844D02*
X5729Y844D01*
X6079Y844D02*
X6118Y844D01*
X6169Y844D02*
X6207Y844D01*
X5601Y843D02*
X5639Y843D01*
X5690Y843D02*
X5729Y843D01*
X6079Y843D02*
X6118Y843D01*
X6169Y843D02*
X6207Y843D01*
X5601Y842D02*
X5639Y842D01*
X5691Y842D02*
X5729Y842D01*
X6079Y842D02*
X6117Y842D01*
X6169Y842D02*
X6207Y842D01*
X5601Y841D02*
X5639Y841D01*
X5691Y841D02*
X5729Y841D01*
X6079Y841D02*
X6117Y841D01*
X6169Y841D02*
X6207Y841D01*
X5601Y840D02*
X5639Y840D01*
X5691Y840D02*
X5729Y840D01*
X6079Y840D02*
X6117Y840D01*
X6169Y840D02*
X6208Y840D01*
X5601Y839D02*
X5639Y839D01*
X5691Y839D02*
X5729Y839D01*
X6079Y839D02*
X6117Y839D01*
X6169Y839D02*
X6208Y839D01*
X5600Y838D02*
X5639Y838D01*
X5691Y838D02*
X5729Y838D01*
X6079Y838D02*
X6117Y838D01*
X6169Y838D02*
X6208Y838D01*
X5600Y837D02*
X5639Y837D01*
X5691Y837D02*
X5729Y837D01*
X6079Y837D02*
X6117Y837D01*
X6169Y837D02*
X6208Y837D01*
X5601Y836D02*
X5639Y836D01*
X5691Y836D02*
X5729Y836D01*
X6079Y836D02*
X6117Y836D01*
X6169Y836D02*
X6208Y836D01*
X5601Y835D02*
X5639Y835D01*
X5691Y835D02*
X5729Y835D01*
X6079Y835D02*
X6117Y835D01*
X6169Y835D02*
X6208Y835D01*
X5601Y834D02*
X5639Y834D01*
X5691Y834D02*
X5729Y834D01*
X6079Y834D02*
X6117Y834D01*
X6169Y834D02*
X6207Y834D01*
X5601Y833D02*
X5639Y833D01*
X5691Y833D02*
X5729Y833D01*
X6079Y833D02*
X6117Y833D01*
X6169Y833D02*
X6207Y833D01*
X5601Y832D02*
X5639Y832D01*
X5691Y832D02*
X5729Y832D01*
X6079Y832D02*
X6118Y832D01*
X6169Y832D02*
X6207Y832D01*
X5601Y831D02*
X5640Y831D01*
X5690Y831D02*
X5729Y831D01*
X6079Y831D02*
X6118Y831D01*
X6169Y831D02*
X6207Y831D01*
X5601Y830D02*
X5640Y830D01*
X5690Y830D02*
X5729Y830D01*
X6079Y830D02*
X6118Y830D01*
X6168Y830D02*
X6207Y830D01*
X5601Y829D02*
X5640Y829D01*
X5690Y829D02*
X5729Y829D01*
X6079Y829D02*
X6119Y829D01*
X6168Y829D02*
X6207Y829D01*
X5601Y828D02*
X5641Y828D01*
X5689Y828D02*
X5729Y828D01*
X6080Y828D02*
X6119Y828D01*
X6168Y828D02*
X6207Y828D01*
X5601Y827D02*
X5641Y827D01*
X5689Y827D02*
X5728Y827D01*
X6080Y827D02*
X6119Y827D01*
X6167Y827D02*
X6207Y827D01*
X5602Y826D02*
X5642Y826D01*
X5688Y826D02*
X5728Y826D01*
X6080Y826D02*
X6120Y826D01*
X6167Y826D02*
X6207Y826D01*
X5602Y825D02*
X5642Y825D01*
X5688Y825D02*
X5728Y825D01*
X6080Y825D02*
X6120Y825D01*
X6166Y825D02*
X6206Y825D01*
X5602Y824D02*
X5643Y824D01*
X5687Y824D02*
X5728Y824D01*
X6080Y824D02*
X6121Y824D01*
X6166Y824D02*
X6206Y824D01*
X5602Y823D02*
X5643Y823D01*
X5687Y823D02*
X5728Y823D01*
X6081Y823D02*
X6121Y823D01*
X6165Y823D02*
X6206Y823D01*
X5602Y822D02*
X5644Y822D01*
X5686Y822D02*
X5727Y822D01*
X6081Y822D02*
X6122Y822D01*
X6164Y822D02*
X6206Y822D01*
X5603Y821D02*
X5645Y821D01*
X5685Y821D02*
X5727Y821D01*
X6081Y821D02*
X6123Y821D01*
X6163Y821D02*
X6205Y821D01*
X5603Y820D02*
X5646Y820D01*
X5684Y820D02*
X5727Y820D01*
X6081Y820D02*
X6124Y820D01*
X6162Y820D02*
X6205Y820D01*
X5603Y819D02*
X5647Y819D01*
X5683Y819D02*
X5727Y819D01*
X6082Y819D02*
X6125Y819D01*
X6162Y819D02*
X6205Y819D01*
X5603Y818D02*
X5648Y818D01*
X5682Y818D02*
X5726Y818D01*
X6082Y818D02*
X6126Y818D01*
X6160Y818D02*
X6205Y818D01*
X5604Y817D02*
X5649Y817D01*
X5681Y817D02*
X5726Y817D01*
X6082Y817D02*
X6127Y817D01*
X6159Y817D02*
X6204Y817D01*
X5604Y816D02*
X5650Y816D01*
X5680Y816D02*
X5726Y816D01*
X6082Y816D02*
X6129Y816D01*
X6158Y816D02*
X6204Y816D01*
X5605Y815D02*
X5652Y815D01*
X5678Y815D02*
X5725Y815D01*
X6083Y815D02*
X6130Y815D01*
X6156Y815D02*
X6204Y815D01*
X5605Y814D02*
X5654Y814D01*
X5676Y814D02*
X5725Y814D01*
X6083Y814D02*
X6132Y814D01*
X6154Y814D02*
X6203Y814D01*
X5605Y813D02*
X5656Y813D01*
X5673Y813D02*
X5725Y813D01*
X6084Y813D02*
X6135Y813D01*
X6152Y813D02*
X6203Y813D01*
X5606Y812D02*
X5661Y812D01*
X5669Y812D02*
X5724Y812D01*
X6084Y812D02*
X6139Y812D01*
X6147Y812D02*
X6203Y812D01*
X5606Y811D02*
X5724Y811D01*
X6084Y811D02*
X6202Y811D01*
X5607Y810D02*
X5723Y810D01*
X6085Y810D02*
X6202Y810D01*
X5607Y809D02*
X5723Y809D01*
X6085Y809D02*
X6201Y809D01*
X5608Y808D02*
X5722Y808D01*
X6086Y808D02*
X6201Y808D01*
X5608Y807D02*
X5722Y807D01*
X6086Y807D02*
X6200Y807D01*
X5609Y806D02*
X5721Y806D01*
X6087Y806D02*
X6200Y806D01*
X5609Y805D02*
X5721Y805D01*
X6088Y805D02*
X6199Y805D01*
X5610Y804D02*
X5720Y804D01*
X6088Y804D02*
X6198Y804D01*
X5610Y803D02*
X5719Y803D01*
X6089Y803D02*
X6198Y803D01*
X5611Y802D02*
X5719Y802D01*
X6089Y802D02*
X6197Y802D01*
X5612Y801D02*
X5718Y801D01*
X6090Y801D02*
X6196Y801D01*
X5612Y800D02*
X5717Y800D01*
X6091Y800D02*
X6196Y800D01*
X5613Y799D02*
X5717Y799D01*
X6092Y799D02*
X6195Y799D01*
X5614Y798D02*
X5716Y798D01*
X6092Y798D02*
X6194Y798D01*
X5615Y797D02*
X5715Y797D01*
X6093Y797D02*
X6193Y797D01*
X5615Y796D02*
X5714Y796D01*
X6094Y796D02*
X6193Y796D01*
X5616Y795D02*
X5714Y795D01*
X6095Y795D02*
X6192Y795D01*
X5617Y794D02*
X5713Y794D01*
X6096Y794D02*
X6191Y794D01*
X5618Y793D02*
X5712Y793D01*
X6096Y793D02*
X6190Y793D01*
X5619Y792D02*
X5711Y792D01*
X6097Y792D02*
X6189Y792D01*
X5620Y791D02*
X5710Y791D01*
X6098Y791D02*
X6188Y791D01*
X5621Y790D02*
X5709Y790D01*
X6099Y790D02*
X6187Y790D01*
X5622Y789D02*
X5708Y789D01*
X6101Y789D02*
X6186Y789D01*
X5623Y788D02*
X5706Y788D01*
X6102Y788D02*
X6185Y788D01*
X5625Y787D02*
X5705Y787D01*
X6103Y787D02*
X6184Y787D01*
X5626Y786D02*
X5704Y786D01*
X6104Y786D02*
X6182Y786D01*
X5627Y785D02*
X5703Y785D01*
X6106Y785D02*
X6181Y785D01*
X5629Y784D02*
X5701Y784D01*
X6107Y784D02*
X6180Y784D01*
X5630Y783D02*
X5700Y783D01*
X6108Y783D02*
X6178Y783D01*
X5632Y782D02*
X5698Y782D01*
X6110Y782D02*
X6176Y782D01*
X5633Y781D02*
X5696Y781D01*
X6112Y781D02*
X6175Y781D01*
X5635Y780D02*
X5695Y780D01*
X6113Y780D02*
X6173Y780D01*
X5637Y779D02*
X5693Y779D01*
X6115Y779D02*
X6171Y779D01*
X5639Y778D02*
X5691Y778D01*
X6118Y778D02*
X6169Y778D01*
X5642Y777D02*
X5688Y777D01*
X6120Y777D02*
X6166Y777D01*
X5644Y776D02*
X5685Y776D01*
X6123Y776D02*
X6164Y776D01*
X5648Y775D02*
X5682Y775D01*
X6126Y775D02*
X6160Y775D01*
X5652Y774D02*
X5678Y774D01*
X6130Y774D02*
X6156Y774D01*
X5658Y773D02*
X5672Y773D01*
X6136Y773D02*
X6150Y773D01*
X5654Y697D02*
X5672Y697D01*
X6133Y697D02*
X6150Y697D01*
X5649Y696D02*
X5678Y696D01*
X6127Y696D02*
X6156Y696D01*
X5645Y695D02*
X5682Y695D01*
X6123Y695D02*
X6160Y695D01*
X5642Y694D02*
X5685Y694D01*
X6120Y694D02*
X6163Y694D01*
X5639Y693D02*
X5687Y693D01*
X6118Y693D02*
X6166Y693D01*
X5637Y692D02*
X5690Y692D01*
X6115Y692D02*
X6168Y692D01*
X5635Y691D02*
X5692Y691D01*
X6113Y691D02*
X6170Y691D01*
X5633Y690D02*
X5694Y690D01*
X6111Y690D02*
X6172Y690D01*
X5631Y689D02*
X5695Y689D01*
X6110Y689D02*
X6174Y689D01*
X5630Y688D02*
X5697Y688D01*
X6108Y688D02*
X6175Y688D01*
X5628Y687D02*
X5699Y687D01*
X6106Y687D02*
X6177Y687D01*
X5627Y686D02*
X5700Y686D01*
X6105Y686D02*
X6178Y686D01*
X5625Y685D02*
X5701Y685D01*
X6104Y685D02*
X6180Y685D01*
X5624Y684D02*
X5703Y684D01*
X6102Y684D02*
X6181Y684D01*
X5623Y683D02*
X5704Y683D01*
X6101Y683D02*
X6182Y683D01*
X5621Y682D02*
X5705Y682D01*
X6100Y682D02*
X6183Y682D01*
X5620Y681D02*
X5706Y681D01*
X6099Y681D02*
X6185Y681D01*
X5619Y680D02*
X5707Y680D01*
X6097Y680D02*
X6186Y680D01*
X5618Y679D02*
X5709Y679D01*
X6096Y679D02*
X6187Y679D01*
X5617Y678D02*
X5709Y678D01*
X6095Y678D02*
X6188Y678D01*
X5616Y677D02*
X5710Y677D01*
X6095Y677D02*
X6189Y677D01*
X5615Y676D02*
X5711Y676D01*
X6094Y676D02*
X6190Y676D01*
X5614Y675D02*
X5712Y675D01*
X6093Y675D02*
X6190Y675D01*
X5614Y674D02*
X5713Y674D01*
X6092Y674D02*
X6191Y674D01*
X5613Y673D02*
X5714Y673D01*
X6091Y673D02*
X6192Y673D01*
X5612Y672D02*
X5714Y672D01*
X6090Y672D02*
X6193Y672D01*
X5611Y671D02*
X5715Y671D01*
X6090Y671D02*
X6194Y671D01*
X5611Y670D02*
X5716Y670D01*
X6089Y670D02*
X6194Y670D01*
X5610Y669D02*
X5717Y669D01*
X6088Y669D02*
X6195Y669D01*
X5609Y668D02*
X5717Y668D01*
X6088Y668D02*
X6196Y668D01*
X5609Y667D02*
X5718Y667D01*
X6087Y667D02*
X6196Y667D01*
X5608Y666D02*
X5719Y666D01*
X6086Y666D02*
X6197Y666D01*
X5607Y665D02*
X5719Y665D01*
X6086Y665D02*
X6197Y665D01*
X5607Y664D02*
X5720Y664D01*
X6085Y664D02*
X6198Y664D01*
X5606Y663D02*
X5720Y663D01*
X6085Y663D02*
X6199Y663D01*
X5606Y662D02*
X5721Y662D01*
X6084Y662D02*
X6199Y662D01*
X5605Y661D02*
X5721Y661D01*
X6084Y661D02*
X6200Y661D01*
X5605Y660D02*
X5722Y660D01*
X6083Y660D02*
X6200Y660D01*
X5604Y659D02*
X5722Y659D01*
X6083Y659D02*
X6201Y659D01*
X5604Y658D02*
X5657Y658D01*
X5669Y658D02*
X5723Y658D01*
X6082Y658D02*
X6136Y658D01*
X6148Y658D02*
X6201Y658D01*
X5604Y657D02*
X5654Y657D01*
X5672Y657D02*
X5723Y657D01*
X6082Y657D02*
X6132Y657D01*
X6151Y657D02*
X6201Y657D01*
X5603Y656D02*
X5652Y656D01*
X5675Y656D02*
X5723Y656D01*
X6081Y656D02*
X6130Y656D01*
X6153Y656D02*
X6202Y656D01*
X5603Y655D02*
X5650Y655D01*
X5677Y655D02*
X5724Y655D01*
X6081Y655D02*
X6128Y655D01*
X6155Y655D02*
X6202Y655D01*
X5602Y654D02*
X5648Y654D01*
X5678Y654D02*
X5724Y654D01*
X6081Y654D02*
X6127Y654D01*
X6157Y654D02*
X6202Y654D01*
X5602Y653D02*
X5647Y653D01*
X5680Y653D02*
X5724Y653D01*
X6080Y653D02*
X6125Y653D01*
X6158Y653D02*
X6203Y653D01*
X5602Y652D02*
X5646Y652D01*
X5681Y652D02*
X5725Y652D01*
X6080Y652D02*
X6124Y652D01*
X6159Y652D02*
X6203Y652D01*
X5602Y651D02*
X5645Y651D01*
X5682Y651D02*
X5725Y651D01*
X6080Y651D02*
X6123Y651D01*
X6160Y651D02*
X6203Y651D01*
X5601Y650D02*
X5644Y650D01*
X5683Y650D02*
X5725Y650D01*
X6080Y650D02*
X6122Y650D01*
X6161Y650D02*
X6204Y650D01*
X5601Y649D02*
X5643Y649D01*
X5684Y649D02*
X5726Y649D01*
X6079Y649D02*
X6121Y649D01*
X6162Y649D02*
X6204Y649D01*
X5601Y648D02*
X5642Y648D01*
X5684Y648D02*
X5726Y648D01*
X6079Y648D02*
X6120Y648D01*
X6163Y648D02*
X6204Y648D01*
X5601Y647D02*
X5641Y647D01*
X5685Y647D02*
X5726Y647D01*
X6079Y647D02*
X6120Y647D01*
X6164Y647D02*
X6204Y647D01*
X5600Y646D02*
X5641Y646D01*
X5686Y646D02*
X5726Y646D01*
X6079Y646D02*
X6119Y646D01*
X6164Y646D02*
X6205Y646D01*
X5600Y645D02*
X5640Y645D01*
X5686Y645D02*
X5726Y645D01*
X6078Y645D02*
X6119Y645D01*
X6165Y645D02*
X6205Y645D01*
X5600Y644D02*
X5640Y644D01*
X5687Y644D02*
X5727Y644D01*
X6078Y644D02*
X6118Y644D01*
X6165Y644D02*
X6205Y644D01*
X5600Y643D02*
X5639Y643D01*
X5687Y643D02*
X5727Y643D01*
X6078Y643D02*
X6118Y643D01*
X6166Y643D02*
X6205Y643D01*
X5600Y642D02*
X5639Y642D01*
X5688Y642D02*
X5727Y642D01*
X6078Y642D02*
X6117Y642D01*
X6166Y642D02*
X6205Y642D01*
X5599Y641D02*
X5638Y641D01*
X5688Y641D02*
X5727Y641D01*
X6078Y641D02*
X6117Y641D01*
X6166Y641D02*
X6205Y641D01*
X5599Y640D02*
X5638Y640D01*
X5688Y640D02*
X5727Y640D01*
X6078Y640D02*
X6116Y640D01*
X6167Y640D02*
X6206Y640D01*
X5599Y639D02*
X5638Y639D01*
X5689Y639D02*
X5727Y639D01*
X6078Y639D02*
X6116Y639D01*
X6167Y639D02*
X6206Y639D01*
X5599Y638D02*
X5638Y638D01*
X5689Y638D02*
X5727Y638D01*
X6077Y638D02*
X6116Y638D01*
X6167Y638D02*
X6206Y638D01*
X5599Y637D02*
X5637Y637D01*
X5689Y637D02*
X5727Y637D01*
X6077Y637D02*
X6116Y637D01*
X6167Y637D02*
X6206Y637D01*
X5599Y636D02*
X5637Y636D01*
X5689Y636D02*
X5728Y636D01*
X6077Y636D02*
X6116Y636D01*
X6168Y636D02*
X6206Y636D01*
X5599Y635D02*
X5637Y635D01*
X5689Y635D02*
X5728Y635D01*
X6077Y635D02*
X6116Y635D01*
X6168Y635D02*
X6206Y635D01*
X5599Y634D02*
X5637Y634D01*
X5689Y634D02*
X5728Y634D01*
X6077Y634D02*
X6116Y634D01*
X6168Y634D02*
X6206Y634D01*
X5599Y633D02*
X5637Y633D01*
X5689Y633D02*
X5728Y633D01*
X6077Y633D02*
X6116Y633D01*
X6168Y633D02*
X6206Y633D01*
X5599Y632D02*
X5637Y632D01*
X5689Y632D02*
X5728Y632D01*
X6077Y632D02*
X6116Y632D01*
X6168Y632D02*
X6206Y632D01*
X5599Y631D02*
X5637Y631D01*
X5689Y631D02*
X5728Y631D01*
X6077Y631D02*
X6116Y631D01*
X6168Y631D02*
X6206Y631D01*
X5599Y630D02*
X5637Y630D01*
X5689Y630D02*
X5728Y630D01*
X6077Y630D02*
X6116Y630D01*
X6168Y630D02*
X6206Y630D01*
X5599Y629D02*
X5637Y629D01*
X5689Y629D02*
X5728Y629D01*
X6077Y629D02*
X6116Y629D01*
X6167Y629D02*
X6206Y629D01*
X5599Y628D02*
X5638Y628D01*
X5689Y628D02*
X5727Y628D01*
X6077Y628D02*
X6116Y628D01*
X6167Y628D02*
X6206Y628D01*
X5599Y627D02*
X5638Y627D01*
X5689Y627D02*
X5727Y627D01*
X6078Y627D02*
X6116Y627D01*
X6167Y627D02*
X6206Y627D01*
X5599Y626D02*
X5638Y626D01*
X5688Y626D02*
X5727Y626D01*
X6078Y626D02*
X6116Y626D01*
X6167Y626D02*
X6206Y626D01*
X5599Y625D02*
X5638Y625D01*
X5688Y625D02*
X5727Y625D01*
X6078Y625D02*
X6117Y625D01*
X6167Y625D02*
X6205Y625D01*
X5600Y624D02*
X5639Y624D01*
X5688Y624D02*
X5727Y624D01*
X6078Y624D02*
X6117Y624D01*
X6166Y624D02*
X6205Y624D01*
X5600Y623D02*
X5639Y623D01*
X5687Y623D02*
X5727Y623D01*
X6078Y623D02*
X6118Y623D01*
X6166Y623D02*
X6205Y623D01*
X5600Y622D02*
X5640Y622D01*
X5687Y622D02*
X5727Y622D01*
X6078Y622D02*
X6118Y622D01*
X6165Y622D02*
X6205Y622D01*
X5600Y621D02*
X5640Y621D01*
X5686Y621D02*
X5727Y621D01*
X6078Y621D02*
X6119Y621D01*
X6165Y621D02*
X6205Y621D01*
X5600Y620D02*
X5641Y620D01*
X5686Y620D02*
X5726Y620D01*
X6079Y620D02*
X6119Y620D01*
X6164Y620D02*
X6205Y620D01*
X5600Y619D02*
X5641Y619D01*
X5685Y619D02*
X5726Y619D01*
X6079Y619D02*
X6120Y619D01*
X6164Y619D02*
X6204Y619D01*
X5601Y618D02*
X5642Y618D01*
X5685Y618D02*
X5726Y618D01*
X6079Y618D02*
X6120Y618D01*
X6163Y618D02*
X6204Y618D01*
X5601Y617D02*
X5643Y617D01*
X5684Y617D02*
X5726Y617D01*
X6079Y617D02*
X6121Y617D01*
X6162Y617D02*
X6204Y617D01*
X5601Y616D02*
X5644Y616D01*
X5683Y616D02*
X5725Y616D01*
X6080Y616D02*
X6122Y616D01*
X6161Y616D02*
X6204Y616D01*
X5601Y615D02*
X5645Y615D01*
X5682Y615D02*
X5725Y615D01*
X6080Y615D02*
X6123Y615D01*
X6160Y615D02*
X6203Y615D01*
X5602Y614D02*
X5646Y614D01*
X5681Y614D02*
X5725Y614D01*
X6080Y614D02*
X6124Y614D01*
X6159Y614D02*
X6203Y614D01*
X5602Y613D02*
X5647Y613D01*
X5680Y613D02*
X5725Y613D01*
X6080Y613D02*
X6125Y613D01*
X6158Y613D02*
X6203Y613D01*
X5602Y612D02*
X5648Y612D01*
X5679Y612D02*
X5724Y612D01*
X6081Y612D02*
X6126Y612D01*
X6157Y612D02*
X6203Y612D01*
X5603Y611D02*
X5650Y611D01*
X5677Y611D02*
X5724Y611D01*
X6081Y611D02*
X6128Y611D01*
X6155Y611D02*
X6202Y611D01*
X5603Y610D02*
X5651Y610D01*
X5675Y610D02*
X5723Y610D01*
X6081Y610D02*
X6130Y610D01*
X6153Y610D02*
X6202Y610D01*
X5603Y609D02*
X5654Y609D01*
X5673Y609D02*
X5723Y609D01*
X6082Y609D02*
X6132Y609D01*
X6151Y609D02*
X6201Y609D01*
X5604Y608D02*
X5657Y608D01*
X5670Y608D02*
X5723Y608D01*
X6082Y608D02*
X6135Y608D01*
X6148Y608D02*
X6201Y608D01*
X5604Y607D02*
X5722Y607D01*
X6083Y607D02*
X6201Y607D01*
X5605Y606D02*
X5722Y606D01*
X6083Y606D02*
X6200Y606D01*
X5605Y605D02*
X5721Y605D01*
X6084Y605D02*
X6200Y605D01*
X5606Y604D02*
X5721Y604D01*
X6084Y604D02*
X6199Y604D01*
X5606Y603D02*
X5720Y603D01*
X6085Y603D02*
X6199Y603D01*
X5607Y602D02*
X5720Y602D01*
X6085Y602D02*
X6198Y602D01*
X5607Y601D02*
X5719Y601D01*
X6086Y601D02*
X6198Y601D01*
X5608Y600D02*
X5719Y600D01*
X6086Y600D02*
X6197Y600D01*
X5609Y599D02*
X5718Y599D01*
X6087Y599D02*
X6196Y599D01*
X5609Y598D02*
X5717Y598D01*
X6088Y598D02*
X6196Y598D01*
X5610Y597D02*
X5717Y597D01*
X6088Y597D02*
X6195Y597D01*
X5610Y596D02*
X5716Y596D01*
X6089Y596D02*
X6194Y596D01*
X5611Y595D02*
X5715Y595D01*
X6090Y595D02*
X6194Y595D01*
X5612Y594D02*
X5715Y594D01*
X6090Y594D02*
X6193Y594D01*
X5613Y593D02*
X5714Y593D01*
X6091Y593D02*
X6192Y593D01*
X5613Y592D02*
X5713Y592D01*
X6092Y592D02*
X6191Y592D01*
X5614Y591D02*
X5712Y591D01*
X6093Y591D02*
X6191Y591D01*
X5615Y590D02*
X5711Y590D01*
X6093Y590D02*
X6190Y590D01*
X5616Y589D02*
X5711Y589D01*
X6094Y589D02*
X6189Y589D01*
X5617Y588D02*
X5710Y588D01*
X6095Y588D02*
X6188Y588D01*
X5618Y587D02*
X5709Y587D01*
X6096Y587D02*
X6187Y587D01*
X5619Y586D02*
X5708Y586D01*
X6097Y586D02*
X6186Y586D01*
X5620Y585D02*
X5707Y585D01*
X6098Y585D02*
X6185Y585D01*
X5621Y584D02*
X5705Y584D01*
X6099Y584D02*
X6184Y584D01*
X5622Y583D02*
X5704Y583D01*
X6101Y583D02*
X6183Y583D01*
X5624Y582D02*
X5703Y582D01*
X6102Y582D02*
X6181Y582D01*
X5625Y581D02*
X5702Y581D01*
X6103Y581D02*
X6180Y581D01*
X5626Y580D02*
X5700Y580D01*
X6105Y580D02*
X6179Y580D01*
X5628Y579D02*
X5699Y579D01*
X6106Y579D02*
X6177Y579D01*
X5629Y578D02*
X5697Y578D01*
X6108Y578D02*
X6176Y578D01*
X5631Y577D02*
X5696Y577D01*
X6109Y577D02*
X6174Y577D01*
X5633Y576D02*
X5694Y576D01*
X6111Y576D02*
X6172Y576D01*
X5635Y575D02*
X5692Y575D01*
X6113Y575D02*
X6170Y575D01*
X5637Y574D02*
X5690Y574D01*
X6115Y574D02*
X6168Y574D01*
X5639Y573D02*
X5688Y573D01*
X6117Y573D02*
X6166Y573D01*
X5641Y572D02*
X5685Y572D01*
X6120Y572D02*
X6163Y572D01*
X5644Y571D02*
X5682Y571D01*
X6123Y571D02*
X6161Y571D01*
X5648Y570D02*
X5678Y570D01*
X6127Y570D02*
X6157Y570D01*
X5653Y569D02*
X5674Y569D01*
X6131Y569D02*
X6152Y569D01*
X5663Y568D02*
X5664Y568D01*
X6141Y568D02*
X6142Y568D01*
X5575Y461D02*
X5590Y461D01*
X5569Y460D02*
X5596Y460D01*
X5565Y459D02*
X5600Y459D01*
X5562Y458D02*
X5603Y458D01*
X5559Y457D02*
X5606Y457D01*
X5557Y456D02*
X5609Y456D01*
X5555Y455D02*
X5611Y455D01*
X5553Y454D02*
X5613Y454D01*
X5551Y453D02*
X5614Y453D01*
X5549Y452D02*
X5616Y452D01*
X5548Y451D02*
X5618Y451D01*
X5546Y450D02*
X5619Y450D01*
X5545Y449D02*
X5620Y449D01*
X5543Y448D02*
X5622Y448D01*
X5542Y447D02*
X5623Y447D01*
X5541Y446D02*
X5624Y446D01*
X5540Y445D02*
X5625Y445D01*
X5539Y444D02*
X5627Y444D01*
X5538Y443D02*
X5628Y443D01*
X5537Y442D02*
X5629Y442D01*
X5536Y441D02*
X5629Y441D01*
X5535Y440D02*
X5630Y440D01*
X5534Y439D02*
X5631Y439D01*
X5533Y438D02*
X5632Y438D01*
X5532Y437D02*
X5633Y437D01*
X5532Y436D02*
X5634Y436D01*
X5531Y435D02*
X5634Y435D01*
X5530Y434D02*
X5635Y434D01*
X5529Y433D02*
X5636Y433D01*
X5529Y432D02*
X5636Y432D01*
X5528Y431D02*
X5637Y431D01*
X5527Y430D02*
X5638Y430D01*
X5527Y429D02*
X5638Y429D01*
X5526Y428D02*
X5639Y428D01*
X5526Y427D02*
X5639Y427D01*
X5525Y426D02*
X5640Y426D01*
X5525Y425D02*
X5640Y425D01*
X5524Y424D02*
X5641Y424D01*
X5524Y423D02*
X5641Y423D01*
X5523Y422D02*
X5578Y422D01*
X5588Y422D02*
X5642Y422D01*
X5523Y421D02*
X5574Y421D01*
X5591Y421D02*
X5642Y421D01*
X5523Y420D02*
X5572Y420D01*
X5594Y420D02*
X5643Y420D01*
X5522Y419D02*
X5570Y419D01*
X5596Y419D02*
X5643Y419D01*
X5522Y418D02*
X5568Y418D01*
X5597Y418D02*
X5643Y418D01*
X5521Y417D02*
X5567Y417D01*
X5599Y417D02*
X5644Y417D01*
X5521Y416D02*
X5565Y416D01*
X5600Y416D02*
X5644Y416D01*
X5521Y415D02*
X5564Y415D01*
X5601Y415D02*
X5644Y415D01*
X5521Y414D02*
X5563Y414D01*
X5602Y414D02*
X5645Y414D01*
X5520Y413D02*
X5562Y413D01*
X5603Y413D02*
X5645Y413D01*
X5520Y412D02*
X5562Y412D01*
X5604Y412D02*
X5645Y412D01*
X5520Y411D02*
X5561Y411D01*
X5604Y411D02*
X5645Y411D01*
X5520Y410D02*
X5560Y410D01*
X5605Y410D02*
X5646Y410D01*
X5519Y409D02*
X5560Y409D01*
X5605Y409D02*
X5646Y409D01*
X5519Y408D02*
X5559Y408D01*
X5606Y408D02*
X5646Y408D01*
X5519Y407D02*
X5559Y407D01*
X5607Y407D02*
X5646Y407D01*
X5519Y406D02*
X5558Y406D01*
X5607Y406D02*
X5646Y406D01*
X5519Y405D02*
X5558Y405D01*
X5607Y405D02*
X5646Y405D01*
X5519Y404D02*
X5557Y404D01*
X5608Y404D02*
X5647Y404D01*
X5519Y403D02*
X5557Y403D01*
X5608Y403D02*
X5647Y403D01*
X5518Y402D02*
X5557Y402D01*
X5608Y402D02*
X5647Y402D01*
X5518Y401D02*
X5557Y401D01*
X5608Y401D02*
X5647Y401D01*
X5518Y400D02*
X5557Y400D01*
X5609Y400D02*
X5647Y400D01*
X5518Y399D02*
X5557Y399D01*
X5609Y399D02*
X5647Y399D01*
X5518Y398D02*
X5557Y398D01*
X5609Y398D02*
X5647Y398D01*
X5518Y397D02*
X5557Y397D01*
X5609Y397D02*
X5647Y397D01*
X5518Y396D02*
X5557Y396D01*
X5609Y396D02*
X5647Y396D01*
X5518Y395D02*
X5557Y395D01*
X5609Y395D02*
X5647Y395D01*
X5518Y394D02*
X5557Y394D01*
X5609Y394D02*
X5647Y394D01*
X5518Y393D02*
X5557Y393D01*
X5608Y393D02*
X5647Y393D01*
X5518Y392D02*
X5557Y392D01*
X5608Y392D02*
X5647Y392D01*
X5518Y391D02*
X5557Y391D01*
X5608Y391D02*
X5647Y391D01*
X5519Y390D02*
X5557Y390D01*
X5608Y390D02*
X5647Y390D01*
X5519Y389D02*
X5558Y389D01*
X5608Y389D02*
X5646Y389D01*
X5519Y388D02*
X5558Y388D01*
X5607Y388D02*
X5646Y388D01*
X5519Y387D02*
X5558Y387D01*
X5607Y387D02*
X5646Y387D01*
X5519Y386D02*
X5559Y386D01*
X5606Y386D02*
X5646Y386D01*
X5519Y385D02*
X5559Y385D01*
X5606Y385D02*
X5646Y385D01*
X5520Y384D02*
X5560Y384D01*
X5605Y384D02*
X5646Y384D01*
X5520Y383D02*
X5560Y383D01*
X5605Y383D02*
X5645Y383D01*
X5520Y382D02*
X5561Y382D01*
X5604Y382D02*
X5645Y382D01*
X5520Y381D02*
X5562Y381D01*
X5603Y381D02*
X5645Y381D01*
X5520Y380D02*
X5563Y380D01*
X5602Y380D02*
X5645Y380D01*
X5521Y379D02*
X5564Y379D01*
X5602Y379D02*
X5644Y379D01*
X5521Y378D02*
X5565Y378D01*
X5600Y378D02*
X5644Y378D01*
X5521Y377D02*
X5566Y377D01*
X5599Y377D02*
X5644Y377D01*
X5522Y376D02*
X5567Y376D01*
X5598Y376D02*
X5644Y376D01*
X5522Y375D02*
X5569Y375D01*
X5597Y375D02*
X5643Y375D01*
X5522Y374D02*
X5570Y374D01*
X5595Y374D02*
X5643Y374D01*
X5523Y373D02*
X5572Y373D01*
X5593Y373D02*
X5642Y373D01*
X5523Y372D02*
X5575Y372D01*
X5590Y372D02*
X5642Y372D01*
X5523Y371D02*
X5642Y371D01*
X5524Y370D02*
X5641Y370D01*
X5524Y369D02*
X5641Y369D01*
X5525Y368D02*
X5640Y368D01*
X5525Y367D02*
X5640Y367D01*
X5526Y366D02*
X5639Y366D01*
X5527Y365D02*
X5639Y365D01*
X5527Y364D02*
X5638Y364D01*
X5528Y363D02*
X5637Y363D01*
X5528Y362D02*
X5637Y362D01*
X5529Y361D02*
X5636Y361D01*
X5530Y360D02*
X5636Y360D01*
X5530Y359D02*
X5635Y359D01*
X5531Y358D02*
X5634Y358D01*
X5532Y357D02*
X5633Y357D01*
X5533Y356D02*
X5633Y356D01*
X5533Y355D02*
X5632Y355D01*
X5534Y354D02*
X5631Y354D01*
X5535Y353D02*
X5630Y353D01*
X5536Y352D02*
X5629Y352D01*
X5537Y351D02*
X5628Y351D01*
X5538Y350D02*
X5627Y350D01*
X5539Y349D02*
X5626Y349D01*
X5540Y348D02*
X5625Y348D01*
X5541Y347D02*
X5624Y347D01*
X5543Y346D02*
X5622Y346D01*
X5544Y345D02*
X5621Y345D01*
X5545Y344D02*
X5620Y344D01*
X5547Y343D02*
X5618Y343D01*
X5548Y342D02*
X5617Y342D01*
X5550Y341D02*
X5615Y341D01*
X5552Y340D02*
X5614Y340D01*
X5553Y339D02*
X5612Y339D01*
X5556Y338D02*
X5610Y338D01*
X5558Y337D02*
X5608Y337D01*
X5560Y336D02*
X5605Y336D01*
X5563Y335D02*
X5602Y335D01*
X5567Y334D02*
X5598Y334D01*
X5571Y333D02*
X5594Y333D01*
X5579Y332D02*
X5586Y332D01*
X5657Y225D02*
X5670Y225D01*
X6135Y225D02*
X6148Y225D01*
X5650Y224D02*
X5676Y224D01*
X6129Y224D02*
X6154Y224D01*
X5646Y223D02*
X5680Y223D01*
X6125Y223D02*
X6158Y223D01*
X5643Y222D02*
X5684Y222D01*
X6121Y222D02*
X6162Y222D01*
X5640Y221D02*
X5686Y221D01*
X6119Y221D02*
X6165Y221D01*
X5638Y220D02*
X5689Y220D01*
X6116Y220D02*
X6167Y220D01*
X5636Y219D02*
X5691Y219D01*
X6114Y219D02*
X6169Y219D01*
X5634Y218D02*
X5693Y218D01*
X6112Y218D02*
X6171Y218D01*
X5632Y217D02*
X5695Y217D01*
X6110Y217D02*
X6173Y217D01*
X5630Y216D02*
X5696Y216D01*
X6109Y216D02*
X6175Y216D01*
X5629Y215D02*
X5698Y215D01*
X6107Y215D02*
X6176Y215D01*
X5627Y214D02*
X5700Y214D01*
X6105Y214D02*
X6178Y214D01*
X5626Y213D02*
X5701Y213D01*
X6104Y213D02*
X6179Y213D01*
X5624Y212D02*
X5702Y212D01*
X6103Y212D02*
X6181Y212D01*
X5623Y211D02*
X5704Y211D01*
X6101Y211D02*
X6182Y211D01*
X5622Y210D02*
X5705Y210D01*
X6100Y210D02*
X6183Y210D01*
X5621Y209D02*
X5706Y209D01*
X6099Y209D02*
X6184Y209D01*
X5620Y208D02*
X5707Y208D01*
X6098Y208D02*
X6185Y208D01*
X5618Y207D02*
X5708Y207D01*
X6097Y207D02*
X6186Y207D01*
X5617Y206D02*
X5709Y206D01*
X6096Y206D02*
X6187Y206D01*
X5617Y205D02*
X5710Y205D01*
X6095Y205D02*
X6188Y205D01*
X5616Y204D02*
X5711Y204D01*
X6094Y204D02*
X6189Y204D01*
X5615Y203D02*
X5712Y203D01*
X6093Y203D02*
X6190Y203D01*
X5614Y202D02*
X5713Y202D01*
X6092Y202D02*
X6191Y202D01*
X5613Y201D02*
X5713Y201D01*
X6091Y201D02*
X6192Y201D01*
X5612Y200D02*
X5714Y200D01*
X6091Y200D02*
X6193Y200D01*
X5612Y199D02*
X5715Y199D01*
X6090Y199D02*
X6193Y199D01*
X5611Y198D02*
X5716Y198D01*
X6089Y198D02*
X6194Y198D01*
X5610Y197D02*
X5716Y197D01*
X6088Y197D02*
X6195Y197D01*
X5610Y196D02*
X5717Y196D01*
X6088Y196D02*
X6195Y196D01*
X5609Y195D02*
X5718Y195D01*
X6087Y195D02*
X6196Y195D01*
X5608Y194D02*
X5718Y194D01*
X6087Y194D02*
X6197Y194D01*
X5608Y193D02*
X5719Y193D01*
X6086Y193D02*
X6197Y193D01*
X5607Y192D02*
X5720Y192D01*
X6085Y192D02*
X6198Y192D01*
X5606Y191D02*
X5720Y191D01*
X6085Y191D02*
X6198Y191D01*
X5606Y190D02*
X5721Y190D01*
X6084Y190D02*
X6199Y190D01*
X5606Y189D02*
X5721Y189D01*
X6084Y189D02*
X6199Y189D01*
X5605Y188D02*
X5722Y188D01*
X6083Y188D02*
X6200Y188D01*
X5605Y187D02*
X5722Y187D01*
X6083Y187D02*
X6200Y187D01*
X5604Y186D02*
X5660Y186D01*
X5667Y186D02*
X5723Y186D01*
X6082Y186D02*
X6138Y186D01*
X6145Y186D02*
X6201Y186D01*
X5604Y185D02*
X5655Y185D01*
X5672Y185D02*
X5723Y185D01*
X6082Y185D02*
X6133Y185D01*
X6150Y185D02*
X6201Y185D01*
X5603Y184D02*
X5653Y184D01*
X5674Y184D02*
X5723Y184D01*
X6082Y184D02*
X6131Y184D01*
X6152Y184D02*
X6202Y184D01*
X5603Y183D02*
X5651Y183D01*
X5676Y183D02*
X5724Y183D01*
X6081Y183D02*
X6129Y183D01*
X6154Y183D02*
X6202Y183D01*
X5603Y182D02*
X5649Y182D01*
X5678Y182D02*
X5724Y182D01*
X6081Y182D02*
X6127Y182D01*
X6156Y182D02*
X6202Y182D01*
X5602Y181D02*
X5647Y181D01*
X5679Y181D02*
X5724Y181D01*
X6081Y181D02*
X6126Y181D01*
X6157Y181D02*
X6203Y181D01*
X5602Y180D02*
X5646Y180D01*
X5680Y180D02*
X5725Y180D01*
X6080Y180D02*
X6125Y180D01*
X6159Y180D02*
X6203Y180D01*
X5602Y179D02*
X5645Y179D01*
X5681Y179D02*
X5725Y179D01*
X6080Y179D02*
X6123Y179D01*
X6160Y179D02*
X6203Y179D01*
X5601Y178D02*
X5644Y178D01*
X5682Y178D02*
X5725Y178D01*
X6080Y178D02*
X6122Y178D01*
X6161Y178D02*
X6204Y178D01*
X5601Y177D02*
X5643Y177D01*
X5683Y177D02*
X5725Y177D01*
X6079Y177D02*
X6122Y177D01*
X6162Y177D02*
X6204Y177D01*
X5601Y176D02*
X5642Y176D01*
X5684Y176D02*
X5726Y176D01*
X6079Y176D02*
X6121Y176D01*
X6162Y176D02*
X6204Y176D01*
X5601Y175D02*
X5642Y175D01*
X5685Y175D02*
X5726Y175D01*
X6079Y175D02*
X6120Y175D01*
X6163Y175D02*
X6204Y175D01*
X5600Y174D02*
X5641Y174D01*
X5686Y174D02*
X5726Y174D01*
X6079Y174D02*
X6119Y174D01*
X6164Y174D02*
X6205Y174D01*
X5600Y173D02*
X5640Y173D01*
X5686Y173D02*
X5726Y173D01*
X6078Y173D02*
X6119Y173D01*
X6164Y173D02*
X6205Y173D01*
X5600Y172D02*
X5640Y172D01*
X5687Y172D02*
X5727Y172D01*
X6078Y172D02*
X6118Y172D01*
X6165Y172D02*
X6205Y172D01*
X5600Y171D02*
X5639Y171D01*
X5687Y171D02*
X5727Y171D01*
X6078Y171D02*
X6118Y171D01*
X6165Y171D02*
X6205Y171D01*
X5600Y170D02*
X5639Y170D01*
X5688Y170D02*
X5727Y170D01*
X6078Y170D02*
X6117Y170D01*
X6166Y170D02*
X6205Y170D01*
X5600Y169D02*
X5639Y169D01*
X5688Y169D02*
X5727Y169D01*
X6078Y169D02*
X6117Y169D01*
X6166Y169D02*
X6205Y169D01*
X5599Y168D02*
X5638Y168D01*
X5688Y168D02*
X5727Y168D01*
X6078Y168D02*
X6117Y168D01*
X6167Y168D02*
X6206Y168D01*
X5599Y167D02*
X5638Y167D01*
X5689Y167D02*
X5727Y167D01*
X6078Y167D02*
X6116Y167D01*
X6167Y167D02*
X6206Y167D01*
X5599Y166D02*
X5638Y166D01*
X5689Y166D02*
X5727Y166D01*
X6077Y166D02*
X6116Y166D01*
X6167Y166D02*
X6206Y166D01*
X5599Y165D02*
X5638Y165D01*
X5689Y165D02*
X5727Y165D01*
X6077Y165D02*
X6116Y165D01*
X6167Y165D02*
X6206Y165D01*
X5599Y164D02*
X5637Y164D01*
X5689Y164D02*
X5728Y164D01*
X6077Y164D02*
X6116Y164D01*
X6168Y164D02*
X6206Y164D01*
X5599Y163D02*
X5637Y163D01*
X5689Y163D02*
X5728Y163D01*
X6077Y163D02*
X6116Y163D01*
X6168Y163D02*
X6206Y163D01*
X5599Y162D02*
X5637Y162D01*
X5689Y162D02*
X5728Y162D01*
X6077Y162D02*
X6116Y162D01*
X6168Y162D02*
X6206Y162D01*
X5599Y161D02*
X5637Y161D01*
X5689Y161D02*
X5728Y161D01*
X6077Y161D02*
X6116Y161D01*
X6168Y161D02*
X6206Y161D01*
X5599Y160D02*
X5637Y160D01*
X5689Y160D02*
X5728Y160D01*
X6077Y160D02*
X6116Y160D01*
X6168Y160D02*
X6206Y160D01*
X5599Y159D02*
X5637Y159D01*
X5689Y159D02*
X5728Y159D01*
X6077Y159D02*
X6116Y159D01*
X6168Y159D02*
X6206Y159D01*
X5599Y158D02*
X5637Y158D01*
X5689Y158D02*
X5728Y158D01*
X6077Y158D02*
X6116Y158D01*
X6168Y158D02*
X6206Y158D01*
X5599Y157D02*
X5637Y157D01*
X5689Y157D02*
X5728Y157D01*
X6077Y157D02*
X6116Y157D01*
X6168Y157D02*
X6206Y157D01*
X5599Y156D02*
X5638Y156D01*
X5689Y156D02*
X5727Y156D01*
X6077Y156D02*
X6116Y156D01*
X6167Y156D02*
X6206Y156D01*
X5599Y155D02*
X5638Y155D01*
X5689Y155D02*
X5727Y155D01*
X6077Y155D02*
X6116Y155D01*
X6167Y155D02*
X6206Y155D01*
X5599Y154D02*
X5638Y154D01*
X5689Y154D02*
X5727Y154D01*
X6078Y154D02*
X6116Y154D01*
X6167Y154D02*
X6206Y154D01*
X5599Y153D02*
X5638Y153D01*
X5688Y153D02*
X5727Y153D01*
X6078Y153D02*
X6117Y153D01*
X6167Y153D02*
X6206Y153D01*
X5600Y152D02*
X5639Y152D01*
X5688Y152D02*
X5727Y152D01*
X6078Y152D02*
X6117Y152D01*
X6166Y152D02*
X6205Y152D01*
X5600Y151D02*
X5639Y151D01*
X5688Y151D02*
X5727Y151D01*
X6078Y151D02*
X6117Y151D01*
X6166Y151D02*
X6205Y151D01*
X5600Y150D02*
X5640Y150D01*
X5687Y150D02*
X5727Y150D01*
X6078Y150D02*
X6118Y150D01*
X6165Y150D02*
X6205Y150D01*
X5600Y149D02*
X5640Y149D01*
X5687Y149D02*
X5727Y149D01*
X6078Y149D02*
X6118Y149D01*
X6165Y149D02*
X6205Y149D01*
X5600Y148D02*
X5641Y148D01*
X5686Y148D02*
X5726Y148D01*
X6079Y148D02*
X6119Y148D01*
X6164Y148D02*
X6205Y148D01*
X5600Y147D02*
X5641Y147D01*
X5686Y147D02*
X5726Y147D01*
X6079Y147D02*
X6119Y147D01*
X6164Y147D02*
X6205Y147D01*
X5601Y146D02*
X5642Y146D01*
X5685Y146D02*
X5726Y146D01*
X6079Y146D02*
X6120Y146D01*
X6163Y146D02*
X6204Y146D01*
X5601Y145D02*
X5643Y145D01*
X5684Y145D02*
X5726Y145D01*
X6079Y145D02*
X6121Y145D01*
X6162Y145D02*
X6204Y145D01*
X5601Y144D02*
X5643Y144D01*
X5683Y144D02*
X5725Y144D01*
X6079Y144D02*
X6122Y144D01*
X6162Y144D02*
X6204Y144D01*
X5601Y143D02*
X5644Y143D01*
X5682Y143D02*
X5725Y143D01*
X6080Y143D02*
X6123Y143D01*
X6161Y143D02*
X6204Y143D01*
X5602Y142D02*
X5645Y142D01*
X5681Y142D02*
X5725Y142D01*
X6080Y142D02*
X6124Y142D01*
X6160Y142D02*
X6203Y142D01*
X5602Y141D02*
X5646Y141D01*
X5680Y141D02*
X5725Y141D01*
X6080Y141D02*
X6125Y141D01*
X6158Y141D02*
X6203Y141D01*
X5602Y140D02*
X5648Y140D01*
X5679Y140D02*
X5724Y140D01*
X6081Y140D02*
X6126Y140D01*
X6157Y140D02*
X6203Y140D01*
X5603Y139D02*
X5649Y139D01*
X5678Y139D02*
X5724Y139D01*
X6081Y139D02*
X6127Y139D01*
X6156Y139D02*
X6202Y139D01*
X5603Y138D02*
X5651Y138D01*
X5676Y138D02*
X5724Y138D01*
X6081Y138D02*
X6129Y138D01*
X6154Y138D02*
X6202Y138D01*
X5603Y137D02*
X5653Y137D01*
X5674Y137D02*
X5723Y137D01*
X6082Y137D02*
X6131Y137D01*
X6152Y137D02*
X6202Y137D01*
X5604Y136D02*
X5655Y136D01*
X5671Y136D02*
X5723Y136D01*
X6082Y136D02*
X6134Y136D01*
X6150Y136D02*
X6201Y136D01*
X5604Y135D02*
X5662Y135D01*
X5665Y135D02*
X5722Y135D01*
X6082Y135D02*
X6140Y135D01*
X6143Y135D02*
X6201Y135D01*
X5605Y134D02*
X5722Y134D01*
X6083Y134D02*
X6200Y134D01*
X5605Y133D02*
X5722Y133D01*
X6083Y133D02*
X6200Y133D01*
X5606Y132D02*
X5721Y132D01*
X6084Y132D02*
X6199Y132D01*
X5606Y131D02*
X5721Y131D01*
X6084Y131D02*
X6199Y131D01*
X5607Y130D02*
X5720Y130D01*
X6085Y130D02*
X6198Y130D01*
X5607Y129D02*
X5719Y129D01*
X6085Y129D02*
X6198Y129D01*
X5608Y128D02*
X5719Y128D01*
X6086Y128D02*
X6197Y128D01*
X5608Y127D02*
X5718Y127D01*
X6087Y127D02*
X6197Y127D01*
X5609Y126D02*
X5718Y126D01*
X6087Y126D02*
X6196Y126D01*
X5610Y125D02*
X5717Y125D01*
X6088Y125D02*
X6195Y125D01*
X5610Y124D02*
X5716Y124D01*
X6089Y124D02*
X6195Y124D01*
X5611Y123D02*
X5716Y123D01*
X6089Y123D02*
X6194Y123D01*
X5612Y122D02*
X5715Y122D01*
X6090Y122D02*
X6193Y122D01*
X5612Y121D02*
X5714Y121D01*
X6091Y121D02*
X6192Y121D01*
X5613Y120D02*
X5713Y120D01*
X6092Y120D02*
X6192Y120D01*
X5614Y119D02*
X5713Y119D01*
X6092Y119D02*
X6191Y119D01*
X5615Y118D02*
X5712Y118D01*
X6093Y118D02*
X6190Y118D01*
X5616Y117D02*
X5711Y117D01*
X6094Y117D02*
X6189Y117D01*
X5617Y116D02*
X5710Y116D01*
X6095Y116D02*
X6188Y116D01*
X5618Y115D02*
X5709Y115D01*
X6096Y115D02*
X6187Y115D01*
X5619Y114D02*
X5708Y114D01*
X6097Y114D02*
X6186Y114D01*
X5620Y113D02*
X5707Y113D01*
X6098Y113D02*
X6185Y113D01*
X5621Y112D02*
X5706Y112D01*
X6099Y112D02*
X6184Y112D01*
X5622Y111D02*
X5705Y111D01*
X6100Y111D02*
X6183Y111D01*
X5623Y110D02*
X5703Y110D01*
X6101Y110D02*
X6182Y110D01*
X5625Y109D02*
X5702Y109D01*
X6103Y109D02*
X6180Y109D01*
X5626Y108D02*
X5701Y108D01*
X6104Y108D02*
X6179Y108D01*
X5627Y107D02*
X5699Y107D01*
X6106Y107D02*
X6178Y107D01*
X5629Y106D02*
X5698Y106D01*
X6107Y106D02*
X6176Y106D01*
X5630Y105D02*
X5696Y105D01*
X6109Y105D02*
X6174Y105D01*
X5632Y104D02*
X5695Y104D01*
X6110Y104D02*
X6173Y104D01*
X5634Y103D02*
X5693Y103D01*
X6112Y103D02*
X6171Y103D01*
X5636Y102D02*
X5691Y102D01*
X6114Y102D02*
X6169Y102D01*
X5638Y101D02*
X5689Y101D01*
X6116Y101D02*
X6167Y101D01*
X5641Y100D02*
X5686Y100D01*
X6119Y100D02*
X6164Y100D01*
X5643Y99D02*
X5683Y99D01*
X6122Y99D02*
X6162Y99D01*
X5647Y98D02*
X5680Y98D01*
X6125Y98D02*
X6158Y98D01*
X5651Y97D02*
X5676Y97D01*
X6129Y97D02*
X6154Y97D01*
X5657Y96D02*
X5669Y96D01*
X6136Y96D02*
X6148Y96D01*
D02*
G04 End of Copper1*
M02*