G04 MADE WITH FRITZING*
G04 WWW.FRITZING.ORG*
G04 DOUBLE SIDED*
G04 HOLES PLATED*
G04 CONTOUR ON CENTER OF CONTOUR VECTOR*
%ASAXBY*%
%FSLAX23Y23*%
%MOIN*%
%OFA0B0*%
%SFA1.0B1.0*%
%ADD10R,7.283470X3.346460X7.267470X3.330460*%
%ADD11C,0.008000*%
%ADD12R,0.001000X0.001000*%
%LNSILK0*%
G90*
G70*
G54D11*
X4Y3342D02*
X7279Y3342D01*
X7279Y4D01*
X4Y4D01*
X4Y3342D01*
D02*
X4034Y495D02*
X4034Y512D01*
D02*
X4034Y512D02*
X3853Y512D01*
D02*
X3853Y512D02*
X3853Y495D01*
D02*
X3853Y416D02*
X3853Y398D01*
D02*
X3853Y398D02*
X4034Y398D01*
D02*
X4034Y398D02*
X4034Y416D01*
D02*
X3905Y495D02*
X3905Y416D01*
D02*
X3027Y2835D02*
X3009Y2835D01*
D02*
X3009Y2835D02*
X3009Y2654D01*
D02*
X3009Y2654D02*
X3027Y2654D01*
D02*
X3105Y2654D02*
X3123Y2654D01*
D02*
X3123Y2654D02*
X3123Y2835D01*
D02*
X3123Y2835D02*
X3105Y2835D01*
D02*
X3027Y2705D02*
X3105Y2705D01*
D02*
X3381Y1755D02*
X3381Y1737D01*
D02*
X3381Y1737D02*
X3562Y1737D01*
D02*
X3562Y1737D02*
X3562Y1755D01*
D02*
X3562Y1833D02*
X3562Y1851D01*
D02*
X3562Y1851D02*
X3381Y1851D01*
D02*
X3381Y1851D02*
X3381Y1833D01*
D02*
X3511Y1755D02*
X3511Y1833D01*
D02*
X2588Y503D02*
X2588Y520D01*
D02*
X2588Y520D02*
X2407Y520D01*
D02*
X2407Y520D02*
X2407Y503D01*
D02*
X2407Y424D02*
X2407Y406D01*
D02*
X2407Y406D02*
X2588Y406D01*
D02*
X2588Y406D02*
X2588Y424D01*
D02*
X2458Y503D02*
X2458Y424D01*
D02*
X2917Y805D02*
X2941Y805D01*
D02*
X2941Y805D02*
X2941Y773D01*
D02*
X2854Y805D02*
X2830Y805D01*
D02*
X2830Y805D02*
X2830Y773D01*
D02*
X1928Y887D02*
X1952Y887D01*
D02*
X1952Y887D02*
X1952Y855D01*
D02*
X1865Y887D02*
X1842Y887D01*
D02*
X1842Y887D02*
X1842Y855D01*
G54D12*
X3019Y2926D02*
X3035Y2926D01*
X3069Y2926D02*
X3086Y2926D01*
X3017Y2925D02*
X3037Y2925D01*
X3067Y2925D02*
X3086Y2925D01*
X3017Y2924D02*
X3038Y2924D01*
X3067Y2924D02*
X3086Y2924D01*
X3017Y2923D02*
X3040Y2923D01*
X3067Y2923D02*
X3086Y2923D01*
X3017Y2922D02*
X3040Y2922D01*
X3067Y2922D02*
X3086Y2922D01*
X3017Y2921D02*
X3041Y2921D01*
X3067Y2921D02*
X3086Y2921D01*
X3018Y2920D02*
X3042Y2920D01*
X3068Y2920D02*
X3086Y2920D01*
X3023Y2919D02*
X3030Y2919D01*
X3035Y2919D02*
X3042Y2919D01*
X3080Y2919D02*
X3086Y2919D01*
X3023Y2918D02*
X3030Y2918D01*
X3036Y2918D02*
X3043Y2918D01*
X3080Y2918D02*
X3086Y2918D01*
X3023Y2917D02*
X3030Y2917D01*
X3036Y2917D02*
X3043Y2917D01*
X3080Y2917D02*
X3086Y2917D01*
X3023Y2916D02*
X3030Y2916D01*
X3037Y2916D02*
X3044Y2916D01*
X3080Y2916D02*
X3086Y2916D01*
X3023Y2915D02*
X3030Y2915D01*
X3037Y2915D02*
X3044Y2915D01*
X3080Y2915D02*
X3086Y2915D01*
X3023Y2914D02*
X3030Y2914D01*
X3038Y2914D02*
X3045Y2914D01*
X3080Y2914D02*
X3086Y2914D01*
X3023Y2913D02*
X3030Y2913D01*
X3038Y2913D02*
X3045Y2913D01*
X3080Y2913D02*
X3086Y2913D01*
X3023Y2912D02*
X3030Y2912D01*
X3039Y2912D02*
X3046Y2912D01*
X3080Y2912D02*
X3086Y2912D01*
X3023Y2911D02*
X3030Y2911D01*
X3039Y2911D02*
X3046Y2911D01*
X3080Y2911D02*
X3086Y2911D01*
X3023Y2910D02*
X3030Y2910D01*
X3040Y2910D02*
X3047Y2910D01*
X3080Y2910D02*
X3086Y2910D01*
X3023Y2909D02*
X3030Y2909D01*
X3040Y2909D02*
X3047Y2909D01*
X3080Y2909D02*
X3086Y2909D01*
X3023Y2908D02*
X3030Y2908D01*
X3041Y2908D02*
X3048Y2908D01*
X3080Y2908D02*
X3086Y2908D01*
X3023Y2907D02*
X3030Y2907D01*
X3041Y2907D02*
X3048Y2907D01*
X3080Y2907D02*
X3086Y2907D01*
X3023Y2906D02*
X3030Y2906D01*
X3042Y2906D02*
X3049Y2906D01*
X3080Y2906D02*
X3086Y2906D01*
X3023Y2905D02*
X3030Y2905D01*
X3042Y2905D02*
X3049Y2905D01*
X3080Y2905D02*
X3086Y2905D01*
X3023Y2904D02*
X3030Y2904D01*
X3043Y2904D02*
X3049Y2904D01*
X3080Y2904D02*
X3086Y2904D01*
X3023Y2903D02*
X3030Y2903D01*
X3043Y2903D02*
X3050Y2903D01*
X3080Y2903D02*
X3086Y2903D01*
X3023Y2902D02*
X3030Y2902D01*
X3044Y2902D02*
X3050Y2902D01*
X3080Y2902D02*
X3086Y2902D01*
X3023Y2901D02*
X3030Y2901D01*
X3044Y2901D02*
X3050Y2901D01*
X3080Y2901D02*
X3086Y2901D01*
X3023Y2900D02*
X3030Y2900D01*
X3044Y2900D02*
X3050Y2900D01*
X3080Y2900D02*
X3086Y2900D01*
X3023Y2899D02*
X3030Y2899D01*
X3044Y2899D02*
X3050Y2899D01*
X3080Y2899D02*
X3086Y2899D01*
X3023Y2898D02*
X3030Y2898D01*
X3044Y2898D02*
X3050Y2898D01*
X3080Y2898D02*
X3086Y2898D01*
X3023Y2897D02*
X3030Y2897D01*
X3044Y2897D02*
X3050Y2897D01*
X3080Y2897D02*
X3086Y2897D01*
X3023Y2896D02*
X3030Y2896D01*
X3043Y2896D02*
X3050Y2896D01*
X3080Y2896D02*
X3086Y2896D01*
X3095Y2896D02*
X3099Y2896D01*
X3023Y2895D02*
X3030Y2895D01*
X3043Y2895D02*
X3050Y2895D01*
X3080Y2895D02*
X3086Y2895D01*
X3095Y2895D02*
X3100Y2895D01*
X3023Y2894D02*
X3030Y2894D01*
X3043Y2894D02*
X3049Y2894D01*
X3080Y2894D02*
X3086Y2894D01*
X3094Y2894D02*
X3100Y2894D01*
X3023Y2893D02*
X3030Y2893D01*
X3042Y2893D02*
X3049Y2893D01*
X3080Y2893D02*
X3086Y2893D01*
X3094Y2893D02*
X3100Y2893D01*
X3023Y2892D02*
X3030Y2892D01*
X3042Y2892D02*
X3048Y2892D01*
X3080Y2892D02*
X3086Y2892D01*
X3094Y2892D02*
X3100Y2892D01*
X3023Y2891D02*
X3030Y2891D01*
X3041Y2891D02*
X3048Y2891D01*
X3080Y2891D02*
X3086Y2891D01*
X3094Y2891D02*
X3100Y2891D01*
X3023Y2890D02*
X3030Y2890D01*
X3041Y2890D02*
X3047Y2890D01*
X3080Y2890D02*
X3086Y2890D01*
X3094Y2890D02*
X3100Y2890D01*
X3023Y2889D02*
X3030Y2889D01*
X3040Y2889D02*
X3047Y2889D01*
X3080Y2889D02*
X3086Y2889D01*
X3094Y2889D02*
X3100Y2889D01*
X3023Y2888D02*
X3030Y2888D01*
X3040Y2888D02*
X3046Y2888D01*
X3080Y2888D02*
X3086Y2888D01*
X3094Y2888D02*
X3100Y2888D01*
X3023Y2887D02*
X3030Y2887D01*
X3039Y2887D02*
X3046Y2887D01*
X3080Y2887D02*
X3086Y2887D01*
X3094Y2887D02*
X3100Y2887D01*
X3023Y2886D02*
X3030Y2886D01*
X3039Y2886D02*
X3045Y2886D01*
X3080Y2886D02*
X3086Y2886D01*
X3094Y2886D02*
X3100Y2886D01*
X3023Y2885D02*
X3030Y2885D01*
X3038Y2885D02*
X3045Y2885D01*
X3080Y2885D02*
X3086Y2885D01*
X3094Y2885D02*
X3100Y2885D01*
X3023Y2884D02*
X3030Y2884D01*
X3037Y2884D02*
X3044Y2884D01*
X3080Y2884D02*
X3086Y2884D01*
X3094Y2884D02*
X3100Y2884D01*
X3023Y2883D02*
X3030Y2883D01*
X3037Y2883D02*
X3044Y2883D01*
X3080Y2883D02*
X3086Y2883D01*
X3094Y2883D02*
X3100Y2883D01*
X3023Y2882D02*
X3030Y2882D01*
X3036Y2882D02*
X3043Y2882D01*
X3080Y2882D02*
X3086Y2882D01*
X3094Y2882D02*
X3100Y2882D01*
X3023Y2881D02*
X3030Y2881D01*
X3036Y2881D02*
X3043Y2881D01*
X3080Y2881D02*
X3086Y2881D01*
X3094Y2881D02*
X3100Y2881D01*
X3023Y2880D02*
X3030Y2880D01*
X3035Y2880D02*
X3042Y2880D01*
X3080Y2880D02*
X3086Y2880D01*
X3094Y2880D02*
X3100Y2880D01*
X3019Y2879D02*
X3042Y2879D01*
X3069Y2879D02*
X3100Y2879D01*
X3018Y2878D02*
X3041Y2878D01*
X3068Y2878D02*
X3100Y2878D01*
X3017Y2877D02*
X3041Y2877D01*
X3067Y2877D02*
X3100Y2877D01*
X3017Y2876D02*
X3040Y2876D01*
X3067Y2876D02*
X3100Y2876D01*
X3017Y2875D02*
X3039Y2875D01*
X3067Y2875D02*
X3100Y2875D01*
X3017Y2874D02*
X3038Y2874D01*
X3067Y2874D02*
X3100Y2874D01*
X3018Y2873D02*
X3036Y2873D01*
X3068Y2873D02*
X3099Y2873D01*
X3411Y1914D02*
X3425Y1914D01*
X3461Y1914D02*
X3485Y1914D01*
X3409Y1913D02*
X3428Y1913D01*
X3459Y1913D02*
X3488Y1913D01*
X3408Y1912D02*
X3429Y1912D01*
X3458Y1912D02*
X3489Y1912D01*
X3408Y1911D02*
X3431Y1911D01*
X3458Y1911D02*
X3490Y1911D01*
X3408Y1910D02*
X3432Y1910D01*
X3458Y1910D02*
X3491Y1910D01*
X3408Y1909D02*
X3432Y1909D01*
X3458Y1909D02*
X3491Y1909D01*
X3409Y1908D02*
X3433Y1908D01*
X3459Y1908D02*
X3491Y1908D01*
X3414Y1907D02*
X3421Y1907D01*
X3425Y1907D02*
X3433Y1907D01*
X3485Y1907D02*
X3492Y1907D01*
X3415Y1906D02*
X3421Y1906D01*
X3427Y1906D02*
X3434Y1906D01*
X3486Y1906D02*
X3492Y1906D01*
X3415Y1905D02*
X3421Y1905D01*
X3427Y1905D02*
X3434Y1905D01*
X3486Y1905D02*
X3492Y1905D01*
X3415Y1904D02*
X3421Y1904D01*
X3428Y1904D02*
X3435Y1904D01*
X3486Y1904D02*
X3492Y1904D01*
X3415Y1903D02*
X3421Y1903D01*
X3429Y1903D02*
X3435Y1903D01*
X3486Y1903D02*
X3492Y1903D01*
X3415Y1902D02*
X3421Y1902D01*
X3429Y1902D02*
X3436Y1902D01*
X3486Y1902D02*
X3492Y1902D01*
X3415Y1901D02*
X3421Y1901D01*
X3430Y1901D02*
X3436Y1901D01*
X3486Y1901D02*
X3492Y1901D01*
X3415Y1900D02*
X3421Y1900D01*
X3430Y1900D02*
X3437Y1900D01*
X3486Y1900D02*
X3492Y1900D01*
X3415Y1899D02*
X3421Y1899D01*
X3431Y1899D02*
X3437Y1899D01*
X3486Y1899D02*
X3492Y1899D01*
X3415Y1898D02*
X3421Y1898D01*
X3431Y1898D02*
X3438Y1898D01*
X3486Y1898D02*
X3492Y1898D01*
X3415Y1897D02*
X3421Y1897D01*
X3432Y1897D02*
X3438Y1897D01*
X3486Y1897D02*
X3492Y1897D01*
X3415Y1896D02*
X3421Y1896D01*
X3432Y1896D02*
X3439Y1896D01*
X3486Y1896D02*
X3492Y1896D01*
X3415Y1895D02*
X3421Y1895D01*
X3433Y1895D02*
X3439Y1895D01*
X3486Y1895D02*
X3492Y1895D01*
X3415Y1894D02*
X3421Y1894D01*
X3433Y1894D02*
X3440Y1894D01*
X3486Y1894D02*
X3492Y1894D01*
X3415Y1893D02*
X3421Y1893D01*
X3434Y1893D02*
X3440Y1893D01*
X3486Y1893D02*
X3492Y1893D01*
X3415Y1892D02*
X3421Y1892D01*
X3434Y1892D02*
X3441Y1892D01*
X3486Y1892D02*
X3492Y1892D01*
X3415Y1891D02*
X3421Y1891D01*
X3435Y1891D02*
X3441Y1891D01*
X3486Y1891D02*
X3492Y1891D01*
X3415Y1890D02*
X3421Y1890D01*
X3435Y1890D02*
X3441Y1890D01*
X3462Y1890D02*
X3492Y1890D01*
X3415Y1889D02*
X3421Y1889D01*
X3435Y1889D02*
X3441Y1889D01*
X3461Y1889D02*
X3491Y1889D01*
X3415Y1888D02*
X3421Y1888D01*
X3435Y1888D02*
X3442Y1888D01*
X3460Y1888D02*
X3491Y1888D01*
X3415Y1887D02*
X3421Y1887D01*
X3436Y1887D02*
X3442Y1887D01*
X3459Y1887D02*
X3491Y1887D01*
X3415Y1886D02*
X3421Y1886D01*
X3435Y1886D02*
X3442Y1886D01*
X3458Y1886D02*
X3490Y1886D01*
X3415Y1885D02*
X3421Y1885D01*
X3435Y1885D02*
X3441Y1885D01*
X3458Y1885D02*
X3489Y1885D01*
X3415Y1884D02*
X3421Y1884D01*
X3435Y1884D02*
X3441Y1884D01*
X3458Y1884D02*
X3487Y1884D01*
X3415Y1883D02*
X3421Y1883D01*
X3435Y1883D02*
X3441Y1883D01*
X3458Y1883D02*
X3464Y1883D01*
X3415Y1882D02*
X3421Y1882D01*
X3434Y1882D02*
X3441Y1882D01*
X3458Y1882D02*
X3464Y1882D01*
X3415Y1881D02*
X3421Y1881D01*
X3434Y1881D02*
X3440Y1881D01*
X3458Y1881D02*
X3464Y1881D01*
X3415Y1880D02*
X3421Y1880D01*
X3433Y1880D02*
X3440Y1880D01*
X3458Y1880D02*
X3464Y1880D01*
X3415Y1879D02*
X3421Y1879D01*
X3433Y1879D02*
X3439Y1879D01*
X3458Y1879D02*
X3464Y1879D01*
X3415Y1878D02*
X3421Y1878D01*
X3432Y1878D02*
X3439Y1878D01*
X3458Y1878D02*
X3464Y1878D01*
X3415Y1877D02*
X3421Y1877D01*
X3432Y1877D02*
X3438Y1877D01*
X3458Y1877D02*
X3464Y1877D01*
X3415Y1876D02*
X3421Y1876D01*
X3431Y1876D02*
X3438Y1876D01*
X3458Y1876D02*
X3464Y1876D01*
X3415Y1875D02*
X3421Y1875D01*
X3431Y1875D02*
X3437Y1875D01*
X3458Y1875D02*
X3464Y1875D01*
X3415Y1874D02*
X3421Y1874D01*
X3430Y1874D02*
X3437Y1874D01*
X3458Y1874D02*
X3464Y1874D01*
X3415Y1873D02*
X3421Y1873D01*
X3430Y1873D02*
X3436Y1873D01*
X3458Y1873D02*
X3464Y1873D01*
X3415Y1872D02*
X3421Y1872D01*
X3429Y1872D02*
X3436Y1872D01*
X3458Y1872D02*
X3464Y1872D01*
X3415Y1871D02*
X3421Y1871D01*
X3428Y1871D02*
X3435Y1871D01*
X3458Y1871D02*
X3464Y1871D01*
X3415Y1870D02*
X3421Y1870D01*
X3428Y1870D02*
X3435Y1870D01*
X3458Y1870D02*
X3464Y1870D01*
X3415Y1869D02*
X3421Y1869D01*
X3427Y1869D02*
X3434Y1869D01*
X3458Y1869D02*
X3464Y1869D01*
X3415Y1868D02*
X3421Y1868D01*
X3427Y1868D02*
X3434Y1868D01*
X3458Y1868D02*
X3464Y1868D01*
X3414Y1867D02*
X3421Y1867D01*
X3425Y1867D02*
X3433Y1867D01*
X3458Y1867D02*
X3464Y1867D01*
X3409Y1866D02*
X3433Y1866D01*
X3458Y1866D02*
X3490Y1866D01*
X3408Y1865D02*
X3432Y1865D01*
X3458Y1865D02*
X3491Y1865D01*
X3408Y1864D02*
X3432Y1864D01*
X3458Y1864D02*
X3491Y1864D01*
X3408Y1863D02*
X3431Y1863D01*
X3458Y1863D02*
X3491Y1863D01*
X3408Y1862D02*
X3430Y1862D01*
X3458Y1862D02*
X3491Y1862D01*
X3409Y1861D02*
X3428Y1861D01*
X3458Y1861D02*
X3490Y1861D01*
X3411Y1860D02*
X3424Y1860D01*
X3458Y1860D02*
X3488Y1860D01*
X1985Y940D02*
X1990Y940D01*
X2014Y940D02*
X2044Y940D01*
X1984Y939D02*
X1992Y939D01*
X2013Y939D02*
X2045Y939D01*
X1982Y938D02*
X1993Y938D01*
X2012Y938D02*
X2046Y938D01*
X1981Y937D02*
X1994Y937D01*
X2012Y937D02*
X2046Y937D01*
X1980Y936D02*
X1995Y936D01*
X2012Y936D02*
X2046Y936D01*
X1979Y935D02*
X1995Y935D01*
X2012Y935D02*
X2046Y935D01*
X1978Y934D02*
X1996Y934D01*
X2012Y934D02*
X2046Y934D01*
X1976Y933D02*
X1986Y933D01*
X1989Y933D02*
X1996Y933D01*
X2012Y933D02*
X2018Y933D01*
X2040Y933D02*
X2046Y933D01*
X1975Y932D02*
X1985Y932D01*
X1990Y932D02*
X1996Y932D01*
X2012Y932D02*
X2018Y932D01*
X2040Y932D02*
X2046Y932D01*
X1974Y931D02*
X1984Y931D01*
X1990Y931D02*
X1996Y931D01*
X2012Y931D02*
X2018Y931D01*
X2040Y931D02*
X2046Y931D01*
X1973Y930D02*
X1983Y930D01*
X1990Y930D02*
X1996Y930D01*
X2012Y930D02*
X2018Y930D01*
X2040Y930D02*
X2046Y930D01*
X1972Y929D02*
X1982Y929D01*
X1990Y929D02*
X1996Y929D01*
X2012Y929D02*
X2018Y929D01*
X2040Y929D02*
X2046Y929D01*
X1970Y928D02*
X1980Y928D01*
X1990Y928D02*
X1996Y928D01*
X2012Y928D02*
X2018Y928D01*
X2040Y928D02*
X2046Y928D01*
X1969Y927D02*
X1979Y927D01*
X1990Y927D02*
X1996Y927D01*
X2012Y927D02*
X2018Y927D01*
X2040Y927D02*
X2046Y927D01*
X1968Y926D02*
X1978Y926D01*
X1990Y926D02*
X1996Y926D01*
X2012Y926D02*
X2018Y926D01*
X2040Y926D02*
X2046Y926D01*
X1967Y925D02*
X1977Y925D01*
X1990Y925D02*
X1996Y925D01*
X2012Y925D02*
X2018Y925D01*
X2040Y925D02*
X2046Y925D01*
X1966Y924D02*
X1976Y924D01*
X1990Y924D02*
X1996Y924D01*
X2012Y924D02*
X2018Y924D01*
X2040Y924D02*
X2046Y924D01*
X1965Y923D02*
X1974Y923D01*
X1990Y923D02*
X1996Y923D01*
X2012Y923D02*
X2018Y923D01*
X2040Y923D02*
X2046Y923D01*
X1964Y922D02*
X1973Y922D01*
X1990Y922D02*
X1996Y922D01*
X2012Y922D02*
X2046Y922D01*
X1964Y921D02*
X1972Y921D01*
X1990Y921D02*
X1996Y921D01*
X2012Y921D02*
X2046Y921D01*
X1963Y920D02*
X1971Y920D01*
X1990Y920D02*
X1996Y920D01*
X2012Y920D02*
X2046Y920D01*
X1963Y919D02*
X1970Y919D01*
X1990Y919D02*
X1996Y919D01*
X2012Y919D02*
X2046Y919D01*
X1963Y918D02*
X1969Y918D01*
X1990Y918D02*
X1996Y918D01*
X2013Y918D02*
X2046Y918D01*
X1963Y917D02*
X1969Y917D01*
X1990Y917D02*
X1996Y917D01*
X2013Y917D02*
X2046Y917D01*
X1962Y916D02*
X1968Y916D01*
X1990Y916D02*
X1996Y916D01*
X2015Y916D02*
X2046Y916D01*
X1962Y915D02*
X1968Y915D01*
X1990Y915D02*
X1996Y915D01*
X2040Y915D02*
X2046Y915D01*
X1962Y914D02*
X1968Y914D01*
X1990Y914D02*
X1996Y914D01*
X2040Y914D02*
X2046Y914D01*
X1962Y913D02*
X1968Y913D01*
X1990Y913D02*
X1996Y913D01*
X2040Y913D02*
X2046Y913D01*
X1962Y912D02*
X1968Y912D01*
X1990Y912D02*
X1996Y912D01*
X2040Y912D02*
X2046Y912D01*
X1962Y911D02*
X1968Y911D01*
X1990Y911D02*
X1996Y911D01*
X2040Y911D02*
X2046Y911D01*
X1962Y910D02*
X1968Y910D01*
X1977Y910D02*
X1981Y910D01*
X1989Y910D02*
X1996Y910D01*
X2040Y910D02*
X2046Y910D01*
X2855Y910D02*
X2861Y910D01*
X2891Y910D02*
X2908Y910D01*
X1962Y909D02*
X1968Y909D01*
X1976Y909D02*
X1982Y909D01*
X1989Y909D02*
X1995Y909D01*
X2040Y909D02*
X2046Y909D01*
X2854Y909D02*
X2862Y909D01*
X2890Y909D02*
X2909Y909D01*
X1962Y908D02*
X1968Y908D01*
X1976Y908D02*
X1982Y908D01*
X1988Y908D02*
X1995Y908D01*
X2040Y908D02*
X2046Y908D01*
X2852Y908D02*
X2864Y908D01*
X2890Y908D02*
X2909Y908D01*
X1962Y907D02*
X1968Y907D01*
X1976Y907D02*
X1983Y907D01*
X1987Y907D02*
X1995Y907D01*
X2040Y907D02*
X2046Y907D01*
X2851Y907D02*
X2864Y907D01*
X2890Y907D02*
X2909Y907D01*
X1962Y906D02*
X1968Y906D01*
X1976Y906D02*
X1983Y906D01*
X1986Y906D02*
X1994Y906D01*
X2040Y906D02*
X2046Y906D01*
X2850Y906D02*
X2865Y906D01*
X2890Y906D02*
X2909Y906D01*
X1962Y905D02*
X1968Y905D01*
X1977Y905D02*
X1983Y905D01*
X1985Y905D02*
X1994Y905D01*
X2040Y905D02*
X2046Y905D01*
X2849Y905D02*
X2866Y905D01*
X2890Y905D02*
X2909Y905D01*
X1962Y904D02*
X1968Y904D01*
X1977Y904D02*
X1993Y904D01*
X2040Y904D02*
X2046Y904D01*
X2848Y904D02*
X2866Y904D01*
X2890Y904D02*
X2909Y904D01*
X1962Y903D02*
X1968Y903D01*
X1978Y903D02*
X1992Y903D01*
X2040Y903D02*
X2046Y903D01*
X2847Y903D02*
X2856Y903D01*
X2860Y903D02*
X2866Y903D01*
X2890Y903D02*
X2895Y903D01*
X2903Y903D02*
X2909Y903D01*
X1962Y902D02*
X1968Y902D01*
X1978Y902D02*
X1991Y902D01*
X2040Y902D02*
X2046Y902D01*
X2845Y902D02*
X2855Y902D01*
X2860Y902D02*
X2866Y902D01*
X2890Y902D02*
X2895Y902D01*
X2903Y902D02*
X2909Y902D01*
X1962Y901D02*
X1968Y901D01*
X1978Y901D02*
X1990Y901D01*
X2040Y901D02*
X2046Y901D01*
X2844Y901D02*
X2854Y901D01*
X2860Y901D02*
X2866Y901D01*
X2890Y901D02*
X2895Y901D01*
X2903Y901D02*
X2909Y901D01*
X1962Y900D02*
X1968Y900D01*
X1979Y900D02*
X1989Y900D01*
X2040Y900D02*
X2046Y900D01*
X2843Y900D02*
X2853Y900D01*
X2860Y900D02*
X2866Y900D01*
X2890Y900D02*
X2895Y900D01*
X2903Y900D02*
X2909Y900D01*
X1962Y899D02*
X1968Y899D01*
X1978Y899D02*
X1988Y899D01*
X2040Y899D02*
X2046Y899D01*
X2842Y899D02*
X2852Y899D01*
X2860Y899D02*
X2866Y899D01*
X2890Y899D02*
X2895Y899D01*
X2903Y899D02*
X2909Y899D01*
X1962Y898D02*
X1968Y898D01*
X1977Y898D02*
X1987Y898D01*
X2040Y898D02*
X2046Y898D01*
X2841Y898D02*
X2851Y898D01*
X2860Y898D02*
X2866Y898D01*
X2890Y898D02*
X2895Y898D01*
X2903Y898D02*
X2909Y898D01*
X1962Y897D02*
X1968Y897D01*
X1976Y897D02*
X1986Y897D01*
X2040Y897D02*
X2046Y897D01*
X2839Y897D02*
X2849Y897D01*
X2860Y897D02*
X2866Y897D01*
X2890Y897D02*
X2895Y897D01*
X2903Y897D02*
X2909Y897D01*
X1962Y896D02*
X1968Y896D01*
X1974Y896D02*
X1987Y896D01*
X2040Y896D02*
X2046Y896D01*
X2838Y896D02*
X2848Y896D01*
X2860Y896D02*
X2866Y896D01*
X2890Y896D02*
X2895Y896D01*
X2903Y896D02*
X2909Y896D01*
X1962Y895D02*
X1968Y895D01*
X1973Y895D02*
X1987Y895D01*
X2040Y895D02*
X2046Y895D01*
X2837Y895D02*
X2847Y895D01*
X2860Y895D02*
X2866Y895D01*
X2890Y895D02*
X2895Y895D01*
X2903Y895D02*
X2909Y895D01*
X1962Y894D02*
X1969Y894D01*
X1972Y894D02*
X1988Y894D01*
X2040Y894D02*
X2046Y894D01*
X2836Y894D02*
X2846Y894D01*
X2860Y894D02*
X2866Y894D01*
X2890Y894D02*
X2895Y894D01*
X2903Y894D02*
X2909Y894D01*
X1962Y893D02*
X1994Y893D01*
X2038Y893D02*
X2046Y893D01*
X2835Y893D02*
X2845Y893D01*
X2860Y893D02*
X2866Y893D01*
X2890Y893D02*
X2895Y893D01*
X2903Y893D02*
X2909Y893D01*
X1963Y892D02*
X1979Y892D01*
X1982Y892D02*
X1995Y892D01*
X2037Y892D02*
X2046Y892D01*
X2835Y892D02*
X2843Y892D01*
X2860Y892D02*
X2866Y892D01*
X2890Y892D02*
X2895Y892D01*
X2903Y892D02*
X2909Y892D01*
X1963Y891D02*
X1978Y891D01*
X1982Y891D02*
X1996Y891D01*
X2037Y891D02*
X2046Y891D01*
X2834Y891D02*
X2842Y891D01*
X2860Y891D02*
X2866Y891D01*
X2890Y891D02*
X2895Y891D01*
X2903Y891D02*
X2909Y891D01*
X1964Y890D02*
X1977Y890D01*
X1983Y890D02*
X1996Y890D01*
X2036Y890D02*
X2046Y890D01*
X2834Y890D02*
X2841Y890D01*
X2860Y890D02*
X2866Y890D01*
X2890Y890D02*
X2895Y890D01*
X2903Y890D02*
X2909Y890D01*
X1965Y889D02*
X1976Y889D01*
X1983Y889D02*
X1996Y889D01*
X2037Y889D02*
X2046Y889D01*
X2833Y889D02*
X2840Y889D01*
X2860Y889D02*
X2866Y889D01*
X2890Y889D02*
X2895Y889D01*
X2903Y889D02*
X2909Y889D01*
X1966Y888D02*
X1975Y888D01*
X1983Y888D02*
X1995Y888D01*
X2037Y888D02*
X2045Y888D01*
X2833Y888D02*
X2839Y888D01*
X2860Y888D02*
X2866Y888D01*
X2890Y888D02*
X2895Y888D01*
X2903Y888D02*
X2909Y888D01*
X1967Y887D02*
X1973Y887D01*
X1984Y887D02*
X1994Y887D01*
X2038Y887D02*
X2044Y887D01*
X2833Y887D02*
X2839Y887D01*
X2860Y887D02*
X2866Y887D01*
X2889Y887D02*
X2910Y887D01*
X2833Y886D02*
X2839Y886D01*
X2860Y886D02*
X2866Y886D01*
X2886Y886D02*
X2913Y886D01*
X2833Y885D02*
X2839Y885D01*
X2860Y885D02*
X2866Y885D01*
X2885Y885D02*
X2914Y885D01*
X2833Y884D02*
X2839Y884D01*
X2860Y884D02*
X2866Y884D01*
X2884Y884D02*
X2915Y884D01*
X2833Y883D02*
X2839Y883D01*
X2860Y883D02*
X2866Y883D01*
X2883Y883D02*
X2915Y883D01*
X2833Y882D02*
X2839Y882D01*
X2860Y882D02*
X2866Y882D01*
X2883Y882D02*
X2916Y882D01*
X2833Y881D02*
X2839Y881D01*
X2849Y881D02*
X2849Y881D01*
X2860Y881D02*
X2866Y881D01*
X2883Y881D02*
X2916Y881D01*
X2833Y880D02*
X2839Y880D01*
X2847Y880D02*
X2851Y880D01*
X2860Y880D02*
X2866Y880D01*
X2883Y880D02*
X2889Y880D01*
X2910Y880D02*
X2916Y880D01*
X2833Y879D02*
X2839Y879D01*
X2847Y879D02*
X2852Y879D01*
X2859Y879D02*
X2866Y879D01*
X2883Y879D02*
X2889Y879D01*
X2910Y879D02*
X2916Y879D01*
X2833Y878D02*
X2839Y878D01*
X2846Y878D02*
X2852Y878D01*
X2858Y878D02*
X2865Y878D01*
X2883Y878D02*
X2889Y878D01*
X2910Y878D02*
X2916Y878D01*
X2833Y877D02*
X2839Y877D01*
X2846Y877D02*
X2853Y877D01*
X2858Y877D02*
X2865Y877D01*
X2883Y877D02*
X2889Y877D01*
X2910Y877D02*
X2916Y877D01*
X2833Y876D02*
X2839Y876D01*
X2847Y876D02*
X2853Y876D01*
X2856Y876D02*
X2865Y876D01*
X2883Y876D02*
X2889Y876D01*
X2910Y876D02*
X2916Y876D01*
X2833Y875D02*
X2839Y875D01*
X2847Y875D02*
X2864Y875D01*
X2883Y875D02*
X2889Y875D01*
X2910Y875D02*
X2916Y875D01*
X2833Y874D02*
X2839Y874D01*
X2847Y874D02*
X2863Y874D01*
X2883Y874D02*
X2889Y874D01*
X2910Y874D02*
X2916Y874D01*
X2833Y873D02*
X2839Y873D01*
X2848Y873D02*
X2862Y873D01*
X2883Y873D02*
X2889Y873D01*
X2910Y873D02*
X2916Y873D01*
X2833Y872D02*
X2839Y872D01*
X2848Y872D02*
X2861Y872D01*
X2883Y872D02*
X2889Y872D01*
X2910Y872D02*
X2916Y872D01*
X2833Y871D02*
X2839Y871D01*
X2849Y871D02*
X2860Y871D01*
X2883Y871D02*
X2889Y871D01*
X2910Y871D02*
X2916Y871D01*
X2833Y870D02*
X2839Y870D01*
X2849Y870D02*
X2859Y870D01*
X2883Y870D02*
X2889Y870D01*
X2910Y870D02*
X2916Y870D01*
X2833Y869D02*
X2839Y869D01*
X2848Y869D02*
X2858Y869D01*
X2883Y869D02*
X2889Y869D01*
X2910Y869D02*
X2916Y869D01*
X2833Y868D02*
X2839Y868D01*
X2847Y868D02*
X2857Y868D01*
X2883Y868D02*
X2889Y868D01*
X2910Y868D02*
X2916Y868D01*
X2833Y867D02*
X2839Y867D01*
X2846Y867D02*
X2857Y867D01*
X2883Y867D02*
X2889Y867D01*
X2910Y867D02*
X2916Y867D01*
X2833Y866D02*
X2839Y866D01*
X2845Y866D02*
X2857Y866D01*
X2883Y866D02*
X2889Y866D01*
X2910Y866D02*
X2916Y866D01*
X2833Y865D02*
X2839Y865D01*
X2843Y865D02*
X2857Y865D01*
X2883Y865D02*
X2889Y865D01*
X2910Y865D02*
X2916Y865D01*
X2833Y864D02*
X2839Y864D01*
X2842Y864D02*
X2858Y864D01*
X2883Y864D02*
X2889Y864D01*
X2910Y864D02*
X2916Y864D01*
X2833Y863D02*
X2864Y863D01*
X2883Y863D02*
X2916Y863D01*
X2833Y862D02*
X2850Y862D01*
X2852Y862D02*
X2865Y862D01*
X2883Y862D02*
X2916Y862D01*
X2834Y861D02*
X2848Y861D01*
X2853Y861D02*
X2866Y861D01*
X2883Y861D02*
X2916Y861D01*
X2834Y860D02*
X2847Y860D01*
X2853Y860D02*
X2866Y860D01*
X2884Y860D02*
X2915Y860D01*
X2835Y859D02*
X2846Y859D01*
X2853Y859D02*
X2866Y859D01*
X2884Y859D02*
X2914Y859D01*
X2836Y858D02*
X2845Y858D01*
X2854Y858D02*
X2866Y858D01*
X2885Y858D02*
X2913Y858D01*
X2838Y857D02*
X2843Y857D01*
X2854Y857D02*
X2864Y857D01*
X2887Y857D02*
X2912Y857D01*
X2457Y579D02*
X2474Y579D01*
X2507Y579D02*
X2535Y579D01*
X2456Y578D02*
X2476Y578D01*
X2506Y578D02*
X2536Y578D01*
X2455Y577D02*
X2477Y577D01*
X2505Y577D02*
X2537Y577D01*
X2455Y576D02*
X2479Y576D01*
X2505Y576D02*
X2538Y576D01*
X2456Y575D02*
X2479Y575D01*
X2506Y575D02*
X2538Y575D01*
X2456Y574D02*
X2480Y574D01*
X2506Y574D02*
X2539Y574D01*
X2457Y573D02*
X2480Y573D01*
X2507Y573D02*
X2539Y573D01*
X2462Y572D02*
X2468Y572D01*
X2474Y572D02*
X2481Y572D01*
X2533Y572D02*
X2539Y572D01*
X2462Y571D02*
X2468Y571D01*
X2475Y571D02*
X2481Y571D01*
X2533Y571D02*
X2539Y571D01*
X2462Y570D02*
X2468Y570D01*
X2475Y570D02*
X2482Y570D01*
X2533Y570D02*
X2539Y570D01*
X2462Y569D02*
X2468Y569D01*
X2476Y569D02*
X2482Y569D01*
X2533Y569D02*
X2539Y569D01*
X2462Y568D02*
X2468Y568D01*
X2476Y568D02*
X2483Y568D01*
X2533Y568D02*
X2539Y568D01*
X2462Y567D02*
X2468Y567D01*
X2477Y567D02*
X2483Y567D01*
X2533Y567D02*
X2539Y567D01*
X2462Y566D02*
X2468Y566D01*
X2477Y566D02*
X2484Y566D01*
X2533Y566D02*
X2539Y566D01*
X2462Y565D02*
X2468Y565D01*
X2478Y565D02*
X2484Y565D01*
X2533Y565D02*
X2539Y565D01*
X3695Y565D02*
X3713Y565D01*
X3747Y565D02*
X3750Y565D01*
X2462Y564D02*
X2468Y564D01*
X2478Y564D02*
X2485Y564D01*
X2533Y564D02*
X2539Y564D01*
X3694Y564D02*
X3715Y564D01*
X3746Y564D02*
X3751Y564D01*
X2462Y563D02*
X2468Y563D01*
X2479Y563D02*
X2486Y563D01*
X2533Y563D02*
X2539Y563D01*
X3694Y563D02*
X3716Y563D01*
X3745Y563D02*
X3751Y563D01*
X2462Y562D02*
X2468Y562D01*
X2479Y562D02*
X2486Y562D01*
X2533Y562D02*
X2539Y562D01*
X3694Y562D02*
X3717Y562D01*
X3745Y562D02*
X3751Y562D01*
X2462Y561D02*
X2468Y561D01*
X2480Y561D02*
X2487Y561D01*
X2533Y561D02*
X2539Y561D01*
X3694Y561D02*
X3718Y561D01*
X3745Y561D02*
X3751Y561D01*
X2462Y560D02*
X2468Y560D01*
X2480Y560D02*
X2487Y560D01*
X2533Y560D02*
X2539Y560D01*
X3694Y560D02*
X3718Y560D01*
X3745Y560D02*
X3751Y560D01*
X2462Y559D02*
X2468Y559D01*
X2481Y559D02*
X2487Y559D01*
X2533Y559D02*
X2539Y559D01*
X3696Y559D02*
X3719Y559D01*
X3745Y559D02*
X3751Y559D01*
X3767Y559D02*
X3771Y559D01*
X2462Y558D02*
X2468Y558D01*
X2481Y558D02*
X2488Y558D01*
X2532Y558D02*
X2539Y558D01*
X3700Y558D02*
X3707Y558D01*
X3712Y558D02*
X3719Y558D01*
X3745Y558D02*
X3751Y558D01*
X3766Y558D02*
X3772Y558D01*
X2462Y557D02*
X2468Y557D01*
X2482Y557D02*
X2488Y557D01*
X2532Y557D02*
X2539Y557D01*
X3700Y557D02*
X3707Y557D01*
X3713Y557D02*
X3720Y557D01*
X3745Y557D02*
X3751Y557D01*
X3766Y557D02*
X3772Y557D01*
X2462Y556D02*
X2468Y556D01*
X2482Y556D02*
X2488Y556D01*
X2515Y556D02*
X2538Y556D01*
X3700Y556D02*
X3707Y556D01*
X3713Y556D02*
X3720Y556D01*
X3745Y556D02*
X3751Y556D01*
X3766Y556D02*
X3772Y556D01*
X2462Y555D02*
X2468Y555D01*
X2482Y555D02*
X2489Y555D01*
X2513Y555D02*
X2538Y555D01*
X3700Y555D02*
X3707Y555D01*
X3714Y555D02*
X3721Y555D01*
X3745Y555D02*
X3751Y555D01*
X3766Y555D02*
X3772Y555D01*
X2462Y554D02*
X2468Y554D01*
X2483Y554D02*
X2489Y554D01*
X2513Y554D02*
X2537Y554D01*
X3700Y554D02*
X3707Y554D01*
X3714Y554D02*
X3721Y554D01*
X3745Y554D02*
X3751Y554D01*
X3766Y554D02*
X3772Y554D01*
X2462Y553D02*
X2468Y553D01*
X2483Y553D02*
X2489Y553D01*
X2512Y553D02*
X2536Y553D01*
X3700Y553D02*
X3707Y553D01*
X3715Y553D02*
X3722Y553D01*
X3745Y553D02*
X3751Y553D01*
X3766Y553D02*
X3772Y553D01*
X2462Y552D02*
X2468Y552D01*
X2483Y552D02*
X2489Y552D01*
X2512Y552D02*
X2537Y552D01*
X3700Y552D02*
X3707Y552D01*
X3715Y552D02*
X3722Y552D01*
X3745Y552D02*
X3751Y552D01*
X3766Y552D02*
X3772Y552D01*
X2462Y551D02*
X2468Y551D01*
X2483Y551D02*
X2489Y551D01*
X2513Y551D02*
X2537Y551D01*
X3700Y551D02*
X3707Y551D01*
X3716Y551D02*
X3723Y551D01*
X3745Y551D02*
X3751Y551D01*
X3766Y551D02*
X3772Y551D01*
X2462Y550D02*
X2468Y550D01*
X2482Y550D02*
X2489Y550D01*
X2513Y550D02*
X2538Y550D01*
X3700Y550D02*
X3707Y550D01*
X3716Y550D02*
X3723Y550D01*
X3745Y550D02*
X3751Y550D01*
X3766Y550D02*
X3772Y550D01*
X2462Y549D02*
X2468Y549D01*
X2482Y549D02*
X2488Y549D01*
X2530Y549D02*
X2538Y549D01*
X3700Y549D02*
X3707Y549D01*
X3717Y549D02*
X3724Y549D01*
X3745Y549D02*
X3751Y549D01*
X3766Y549D02*
X3772Y549D01*
X2462Y548D02*
X2468Y548D01*
X2482Y548D02*
X2488Y548D01*
X2532Y548D02*
X2539Y548D01*
X3700Y548D02*
X3707Y548D01*
X3718Y548D02*
X3724Y548D01*
X3745Y548D02*
X3751Y548D01*
X3766Y548D02*
X3772Y548D01*
X2462Y547D02*
X2468Y547D01*
X2481Y547D02*
X2488Y547D01*
X2532Y547D02*
X2539Y547D01*
X3700Y547D02*
X3707Y547D01*
X3718Y547D02*
X3725Y547D01*
X3745Y547D02*
X3751Y547D01*
X3766Y547D02*
X3772Y547D01*
X2462Y546D02*
X2468Y546D01*
X2481Y546D02*
X2487Y546D01*
X2533Y546D02*
X2539Y546D01*
X3700Y546D02*
X3707Y546D01*
X3719Y546D02*
X3725Y546D01*
X3745Y546D02*
X3751Y546D01*
X3766Y546D02*
X3772Y546D01*
X2462Y545D02*
X2468Y545D01*
X2480Y545D02*
X2487Y545D01*
X2533Y545D02*
X2539Y545D01*
X3700Y545D02*
X3707Y545D01*
X3719Y545D02*
X3726Y545D01*
X3745Y545D02*
X3751Y545D01*
X3766Y545D02*
X3772Y545D01*
X2462Y544D02*
X2468Y544D01*
X2480Y544D02*
X2486Y544D01*
X2533Y544D02*
X2539Y544D01*
X3700Y544D02*
X3707Y544D01*
X3720Y544D02*
X3726Y544D01*
X3745Y544D02*
X3751Y544D01*
X3766Y544D02*
X3772Y544D01*
X2462Y543D02*
X2468Y543D01*
X2479Y543D02*
X2486Y543D01*
X2533Y543D02*
X2539Y543D01*
X3700Y543D02*
X3707Y543D01*
X3720Y543D02*
X3726Y543D01*
X3745Y543D02*
X3751Y543D01*
X3766Y543D02*
X3772Y543D01*
X2462Y542D02*
X2468Y542D01*
X2479Y542D02*
X2485Y542D01*
X2533Y542D02*
X2539Y542D01*
X3700Y542D02*
X3707Y542D01*
X3720Y542D02*
X3727Y542D01*
X3745Y542D02*
X3751Y542D01*
X3766Y542D02*
X3772Y542D01*
X2462Y541D02*
X2468Y541D01*
X2478Y541D02*
X2485Y541D01*
X2533Y541D02*
X2539Y541D01*
X3700Y541D02*
X3707Y541D01*
X3721Y541D02*
X3727Y541D01*
X3745Y541D02*
X3751Y541D01*
X3766Y541D02*
X3772Y541D01*
X2462Y540D02*
X2468Y540D01*
X2478Y540D02*
X2484Y540D01*
X2533Y540D02*
X2539Y540D01*
X3700Y540D02*
X3707Y540D01*
X3721Y540D02*
X3727Y540D01*
X3745Y540D02*
X3751Y540D01*
X3766Y540D02*
X3772Y540D01*
X2462Y539D02*
X2468Y539D01*
X2477Y539D02*
X2484Y539D01*
X2533Y539D02*
X2539Y539D01*
X3700Y539D02*
X3707Y539D01*
X3721Y539D02*
X3727Y539D01*
X3745Y539D02*
X3751Y539D01*
X3766Y539D02*
X3772Y539D01*
X2462Y538D02*
X2468Y538D01*
X2477Y538D02*
X2483Y538D01*
X2533Y538D02*
X2539Y538D01*
X3700Y538D02*
X3707Y538D01*
X3721Y538D02*
X3727Y538D01*
X3745Y538D02*
X3751Y538D01*
X3766Y538D02*
X3772Y538D01*
X2462Y537D02*
X2468Y537D01*
X2476Y537D02*
X2483Y537D01*
X2533Y537D02*
X2539Y537D01*
X3700Y537D02*
X3707Y537D01*
X3721Y537D02*
X3727Y537D01*
X3745Y537D02*
X3751Y537D01*
X3766Y537D02*
X3772Y537D01*
X2462Y536D02*
X2468Y536D01*
X2476Y536D02*
X2483Y536D01*
X2533Y536D02*
X2539Y536D01*
X3700Y536D02*
X3707Y536D01*
X3721Y536D02*
X3727Y536D01*
X3745Y536D02*
X3773Y536D01*
X2462Y535D02*
X2468Y535D01*
X2475Y535D02*
X2482Y535D01*
X2533Y535D02*
X2539Y535D01*
X3700Y535D02*
X3707Y535D01*
X3720Y535D02*
X3727Y535D01*
X3745Y535D02*
X3775Y535D01*
X2462Y534D02*
X2468Y534D01*
X2474Y534D02*
X2482Y534D01*
X2533Y534D02*
X2539Y534D01*
X3700Y534D02*
X3707Y534D01*
X3720Y534D02*
X3726Y534D01*
X3745Y534D02*
X3775Y534D01*
X2462Y533D02*
X2468Y533D01*
X2473Y533D02*
X2481Y533D01*
X2533Y533D02*
X2539Y533D01*
X3700Y533D02*
X3707Y533D01*
X3719Y533D02*
X3726Y533D01*
X3745Y533D02*
X3775Y533D01*
X2457Y532D02*
X2481Y532D01*
X2507Y532D02*
X2539Y532D01*
X3700Y532D02*
X3707Y532D01*
X3719Y532D02*
X3726Y532D01*
X3745Y532D02*
X3775Y532D01*
X2456Y531D02*
X2480Y531D01*
X2506Y531D02*
X2539Y531D01*
X3700Y531D02*
X3707Y531D01*
X3718Y531D02*
X3725Y531D01*
X3745Y531D02*
X3775Y531D01*
X2456Y530D02*
X2479Y530D01*
X2506Y530D02*
X2538Y530D01*
X3700Y530D02*
X3707Y530D01*
X3718Y530D02*
X3725Y530D01*
X3745Y530D02*
X3774Y530D01*
X2455Y529D02*
X2479Y529D01*
X2505Y529D02*
X2538Y529D01*
X3700Y529D02*
X3707Y529D01*
X3717Y529D02*
X3724Y529D01*
X3766Y529D02*
X3772Y529D01*
X2456Y528D02*
X2478Y528D01*
X2506Y528D02*
X2537Y528D01*
X3700Y528D02*
X3707Y528D01*
X3717Y528D02*
X3724Y528D01*
X3766Y528D02*
X3772Y528D01*
X2456Y527D02*
X2476Y527D01*
X2506Y527D02*
X2536Y527D01*
X3700Y527D02*
X3707Y527D01*
X3716Y527D02*
X3723Y527D01*
X3766Y527D02*
X3772Y527D01*
X2457Y526D02*
X2474Y526D01*
X2507Y526D02*
X2534Y526D01*
X3700Y526D02*
X3707Y526D01*
X3716Y526D02*
X3723Y526D01*
X3766Y526D02*
X3772Y526D01*
X3700Y525D02*
X3707Y525D01*
X3715Y525D02*
X3722Y525D01*
X3766Y525D02*
X3772Y525D01*
X3700Y524D02*
X3707Y524D01*
X3715Y524D02*
X3722Y524D01*
X3766Y524D02*
X3772Y524D01*
X3700Y523D02*
X3707Y523D01*
X3714Y523D02*
X3721Y523D01*
X3766Y523D02*
X3772Y523D01*
X3700Y522D02*
X3707Y522D01*
X3714Y522D02*
X3721Y522D01*
X3766Y522D02*
X3772Y522D01*
X3700Y521D02*
X3707Y521D01*
X3713Y521D02*
X3720Y521D01*
X3766Y521D02*
X3772Y521D01*
X3700Y520D02*
X3707Y520D01*
X3713Y520D02*
X3720Y520D01*
X3766Y520D02*
X3772Y520D01*
X3700Y519D02*
X3707Y519D01*
X3712Y519D02*
X3719Y519D01*
X3766Y519D02*
X3772Y519D01*
X3695Y518D02*
X3719Y518D01*
X3766Y518D02*
X3772Y518D01*
X3694Y517D02*
X3718Y517D01*
X3766Y517D02*
X3772Y517D01*
X3694Y516D02*
X3718Y516D01*
X3766Y516D02*
X3772Y516D01*
X3694Y515D02*
X3717Y515D01*
X3766Y515D02*
X3772Y515D01*
X3694Y514D02*
X3716Y514D01*
X3766Y514D02*
X3772Y514D01*
X3694Y513D02*
X3714Y513D01*
X3767Y513D02*
X3771Y513D01*
X3695Y512D02*
X3712Y512D01*
X3768Y512D02*
X3770Y512D01*
D02*
G04 End of Silk0*
M02*